{
.appVersion = "1056";
date = "2018-10-04 13:48:58 +0000";
familyName = "Nouvelle police";
featurePrefixes = (
{
automatic = 1;
code = "languagesystem DFLT dflt;\012";
name = Languagesystems;
}
);
features = (
{
automatic = 1;
code = "sub A E hyphen one by A_E_hyphen_one.liga;\012sub A T hyphen one by A_T_hyphen_one.liga;\012sub A V hyphen one by A_V_hyphen_one.liga;\012sub A hyphen one by A_hyphen_one.liga;\012";
name = liga;
}
);
fontMaster = (
{
ascender = 700;
capHeight = 700;
descender = 0;
guideLines = (
{
locked = 1;
position = "{-300, 700}";
},
{
locked = 1;
position = "{-300, 0}";
},
{
locked = 1;
position = "{-300, 780}";
}
);
id = "90EC08FA-78FA-4D06-9A9B-D8A14CBAAFF5";
weight = SemiBold;
xHeight = 700;
}
);
glyphs = (
{
glyphname = A;
lastChange = "2018-12-17 09:23:10 +0000";
layers = (
{
layerId = "90EC08FA-78FA-4D06-9A9B-D8A14CBAAFF5";
paths = (
{
closed = 1;
nodes = (
"329 -15 LINE SMOOTH",
"337 -15 OFFCURVE",
"342 -13 OFFCURVE",
"348 -8 CURVE SMOOTH",
"353 -2 OFFCURVE",
"355 3 OFFCURVE",
"355 11 CURVE SMOOTH",
"355 89 LINE SMOOTH",
"355 97 OFFCURVE",
"353 102 OFFCURVE",
"348 108 CURVE SMOOTH",
"342 113 OFFCURVE",
"337 115 OFFCURVE",
"329 115 CURVE SMOOTH",
"302 115 LINE",
"367 285 LINE",
"616 285 LINE",
"679 115 LINE",
"651 115 LINE SMOOTH",
"643 115 OFFCURVE",
"638 113 OFFCURVE",
"633 108 CURVE SMOOTH",
"627 102 OFFCURVE",
"625 97 OFFCURVE",
"625 89 CURVE SMOOTH",
"625 11 LINE SMOOTH",
"625 3 OFFCURVE",
"627 -2 OFFCURVE",
"633 -8 CURVE SMOOTH",
"638 -13 OFFCURVE",
"643 -15 OFFCURVE",
"651 -15 CURVE SMOOTH",
"939 -15 LINE SMOOTH",
"947 -15 OFFCURVE",
"952 -13 OFFCURVE",
"958 -8 CURVE SMOOTH",
"963 -2 OFFCURVE",
"965 3 OFFCURVE",
"965 11 CURVE SMOOTH",
"965 89 LINE SMOOTH",
"965 97 OFFCURVE",
"963 102 OFFCURVE",
"958 108 CURVE SMOOTH",
"952 113 OFFCURVE",
"947 115 OFFCURVE",
"939 115 CURVE SMOOTH",
"910 115 LINE",
"698 696 LINE SMOOTH",
"695 702 OFFCURVE",
"692 707 OFFCURVE",
"687 710 CURVE SMOOTH",
"682 714 OFFCURVE",
"677 715 OFFCURVE",
"670 715 CURVE SMOOTH",
"320 715 LINE SMOOTH",
"313 715 OFFCURVE",
"308 714 OFFCURVE",
"303 710 CURVE SMOOTH",
"298 707 OFFCURVE",
"295 703 OFFCURVE",
"292 696 CURVE SMOOTH",
"70 115 LINE",
"41 115 LINE SMOOTH",
"33 115 OFFCURVE",
"28 113 OFFCURVE",
"23 108 CURVE SMOOTH",
"17 102 OFFCURVE",
"15 97 OFFCURVE",
"15 89 CURVE SMOOTH",
"15 11 LINE SMOOTH",
"15 3 OFFCURVE",
"17 -2 OFFCURVE",
"23 -8 CURVE SMOOTH",
"28 -13 OFFCURVE",
"33 -15 OFFCURVE",
"41 -15 CURVE SMOOTH"
);
},
{
closed = 1;
nodes = (
"45 85 LINE",
"70 85 LINE SMOOTH",
"78 85 OFFCURVE",
"83 86 OFFCURVE",
"88 90 CURVE SMOOTH",
"93 93 OFFCURVE",
"96 97 OFFCURVE",
"98 104 CURVE SMOOTH",
"320 685 LINE",
"670 685 LINE",
"882 104 LINE SMOOTH",
"885 98 OFFCURVE",
"888 93 OFFCURVE",
"893 90 CURVE SMOOTH",
"898 86 OFFCURVE",
"903 85 OFFCURVE",
"910 85 CURVE SMOOTH",
"935 85 LINE",
"935 15 LINE",
"655 15 LINE",
"655 85 LINE",
"688 85 LINE SMOOTH",
"697 85 OFFCURVE",
"702 88 OFFCURVE",
"707 94 CURVE SMOOTH",
"707 96 LINE SMOOTH",
"712 102 OFFCURVE",
"713 108 OFFCURVE",
"710 116 CURVE SMOOTH",
"644 296 LINE SMOOTH",
"642 302 OFFCURVE",
"639 307 OFFCURVE",
"634 310 CURVE SMOOTH",
"629 314 OFFCURVE",
"624 315 OFFCURVE",
"616 315 CURVE SMOOTH",
"367 315 LINE SMOOTH",
"360 315 OFFCURVE",
"355 314 OFFCURVE",
"350 310 CURVE SMOOTH",
"345 307 OFFCURVE",
"342 303 OFFCURVE",
"339 296 CURVE SMOOTH",
"271 116 LINE SMOOTH",
"268 109 OFFCURVE",
"269 102 OFFCURVE",
"273 96 CURVE SMOOTH",
"274 95 LINE SMOOTH",
"279 88 OFFCURVE",
"284 85 OFFCURVE",
"292 85 CURVE SMOOTH",
"325 85 LINE",
"325 15 LINE",
"45 15 LINE"
);
},
{
closed = 1;
nodes = (
"578 385 LINE SMOOTH",
"587 385 OFFCURVE",
"592 388 OFFCURVE",
"597 394 CURVE SMOOTH",
"597 396 LINE SMOOTH",
"602 402 OFFCURVE",
"603 408 OFFCURVE",
"600 416 CURVE SMOOTH",
"534 596 LINE SMOOTH",
"532 602 OFFCURVE",
"529 607 OFFCURVE",
"524 610 CURVE SMOOTH",
"519 614 OFFCURVE",
"514 615 OFFCURVE",
"506 615 CURVE SMOOTH",
"482 615 LINE SMOOTH",
"475 615 OFFCURVE",
"470 614 OFFCURVE",
"465 610 CURVE SMOOTH",
"460 607 OFFCURVE",
"457 603 OFFCURVE",
"454 596 CURVE SMOOTH",
"385 416 LINE SMOOTH",
"383 409 OFFCURVE",
"383 402 OFFCURVE",
"388 396 CURVE SMOOTH",
"389 395 LINE SMOOTH",
"393 388 OFFCURVE",
"399 385 OFFCURVE",
"407 385 CURVE SMOOTH"
);
},
{
closed = 1;
nodes = (
"482 585 LINE",
"506 585 LINE",
"569 415 LINE",
"417 415 LINE"
);
}
);
width = 980;
},
{
associatedMasterId = "90EC08FA-78FA-4D06-9A9B-D8A14CBAAFF5";
layerId = "D19FDBA6-B670-497B-8C45-5582D80F5967";
name = path;
paths = (
{
closed = 1;
nodes = (
"390 0 LINE",
"390 100 LINE",
"330.642 100 LINE",
"407.095 300 LINE",
"676.667 300 LINE",
"750 100 LINE",
"690 100 LINE",
"690 0 LINE",
"1000 0 LINE",
"1000 100 LINE",
"950 100 LINE",
"730 700 LINE",
"360 700 LINE",
"130.642 100 LINE",
"80 100 LINE",
"80 0 LINE"
);
},
{
closed = 1;
nodes = (
"521.774 600 LINE",
"566.667 600 LINE",
"640 400 LINE",
"445.321 400 LINE"
);
}
);
visible = 1;
width = 600;
},
{
associatedMasterId = "90EC08FA-78FA-4D06-9A9B-D8A14CBAAFF5";
layerId = "D12FC9C8-6AB3-416C-8E6E-43FCC704DC3B";
name = base;
paths = (
{
closed = 1;
nodes = (
"384 600 LINE",
"612 600 LINE",
"612 700 LINE",
"384 700 LINE"
);
},
{
closed = 1;
nodes = (
"80 0 LINE",
"390 0 LINE",
"390 100 LINE",
"80 100 LINE"
);
},
{
closed = 1;
nodes = (
"310 46 LINE",
"560 700 LINE",
"360 700 LINE",
"110 46 LINE"
);
},
{
closed = 1;
nodes = (
"290 300 LINE",
"690 300 LINE",
"690 400 LINE",
"290 400 LINE"
);
},
{
closed = 1;
nodes = (
"690 100 LINE",
"690 0 LINE",
"1000 0 LINE",
"1000 100 LINE"
);
},
{
closed = 1;
nodes = (
"730 700 LINE",
"530 700 LINE",
"770 46 LINE",
"970 46 LINE"
);
}
);
width = 600;
}
);
unicode = 0041;
},
{
color = 1;
glyphname = B;
lastChange = "2018-10-16 14:10:53 +0000";
layers = (
{
layerId = "90EC08FA-78FA-4D06-9A9B-D8A14CBAAFF5";
paths = (
{
closed = 1;
nodes = (
"487 -15 LINE SMOOTH",
"680.453 -15 OFFCURVE",
"764 49.247 OFFCURVE",
"764 200 CURVE SMOOTH",
"764 286.143 OFFCURVE",
"736.395 343.381 OFFCURVE",
"678.122 376.541 CURVE",
"697.642 408.287 OFFCURVE",
"707 448.66 OFFCURVE",
"707 500 CURVE SMOOTH",
"707 650.246 OFFCURVE",
"624.056 714.03 OFFCURVE",
"430.075 715 CURVE SMOOTH",
"40.845 715 LINE SMOOTH",
"33.137 715 OFFCURVE",
"27.83 712.83 OFFCURVE",
"22.5 707.5 CURVE SMOOTH",
"17.17 702.17 OFFCURVE",
"15 696.863 OFFCURVE",
"15 689.155 CURVE SMOOTH",
"15 610.845 LINE SMOOTH",
"15 603.137 OFFCURVE",
"17.17 597.83 OFFCURVE",
"22.5 592.5 CURVE SMOOTH",
"27.83 587.17 OFFCURVE",
"33.137 585 OFFCURVE",
"40.845 585 CURVE SMOOTH",
"65 585 LINE",
"65 115 LINE",
"40.845 115 LINE SMOOTH",
"33.137 115 OFFCURVE",
"27.83 112.83 OFFCURVE",
"22.5 107.5 CURVE SMOOTH",
"17.17 102.17 OFFCURVE",
"15 96.863 OFFCURVE",
"15 89.155 CURVE SMOOTH",
"15 10.845 LINE SMOOTH",
"15 3.137 OFFCURVE",
"17.17 -2.17 OFFCURVE",
"22.5 -7.5 CURVE SMOOTH",
"27.83 -12.83 OFFCURVE",
"33.137 -15 OFFCURVE",
"40.845 -15 CURVE SMOOTH"
);
},
{
closed = 1;
nodes = (
"457 85 LINE SMOOTH",
"539.751 85 OFFCURVE",
"584.017 125.754 OFFCURVE",
"584.017 202.376 CURVE SMOOTH",
"584.017 275.224 OFFCURVE",
"538.9 315 OFFCURVE",
"457 315 CURVE SMOOTH",
"290.845 315 LINE SMOOTH",
"283.137 315 OFFCURVE",
"277.83 312.83 OFFCURVE",
"272.5 307.5 CURVE SMOOTH",
"267.17 302.17 OFFCURVE",
"265 296.863 OFFCURVE",
"265 289.155 CURVE SMOOTH",
"265 110.845 LINE SMOOTH",
"265 103.137 OFFCURVE",
"267.17 97.83 OFFCURVE",
"272.5 92.5 CURVE SMOOTH",
"277.83 87.17 OFFCURVE",
"283.137 85 OFFCURVE",
"290.845 85 CURVE SMOOTH"
);
},
{
closed = 1;
nodes = (
"295 285 LINE",
"457 285 LINE SMOOTH",
"522.754 285 OFFCURVE",
"554.017 258.083 OFFCURVE",
"554.017 202.376 CURVE SMOOTH",
"554.017 142.635 OFFCURVE",
"523.55 115 OFFCURVE",
"457 115 CURVE SMOOTH",
"295 115 LINE"
);
},
{
closed = 1;
nodes = (
"45 85 LINE",
"69.155 85 LINE SMOOTH",
"76.863 85 OFFCURVE",
"82.17 87.17 OFFCURVE",
"87.5 92.5 CURVE SMOOTH",
"92.83 97.83 OFFCURVE",
"95 103.137 OFFCURVE",
"95 110.845 CURVE SMOOTH",
"95 589.155 LINE SMOOTH",
"95 596.863 OFFCURVE",
"92.83 602.17 OFFCURVE",
"87.5 607.5 CURVE SMOOTH",
"82.17 612.83 OFFCURVE",
"76.863 615 OFFCURVE",
"69.155 615 CURVE SMOOTH",
"45 615 LINE",
"45 685 LINE",
"430 685 LINE SMOOTH",
"608.472 684.107 OFFCURVE",
"677 631.713 OFFCURVE",
"677 500 CURVE SMOOTH",
"677 451.985 OFFCURVE",
"668.567 416.529 OFFCURVE",
"650.698 389.285 CURVE SMOOTH",
"646.406 382.671 OFFCURVE",
"644.995 377.077 OFFCURVE",
"646.856 369.404 CURVE SMOOTH",
"647.133 368.262 LINE SMOOTH",
"648.997 360.572 OFFCURVE",
"652.864 356.145 OFFCURVE",
"659.836 352.381 CURVE SMOOTH",
"711.151 324.911 OFFCURVE",
"734 277.85 OFFCURVE",
"734 200 CURVE SMOOTH",
"734 67.792 OFFCURVE",
"664.95 15 OFFCURVE",
"487 15 CURVE SMOOTH",
"45 15 LINE"
);
},
{
closed = 1;
nodes = (
"400 385 LINE SMOOTH",
"482.751 385 OFFCURVE",
"527.017 425.754 OFFCURVE",
"527.017 502.376 CURVE SMOOTH",
"527.017 575.224 OFFCURVE",
"481.9 615 OFFCURVE",
"400 615 CURVE SMOOTH",
"290.845 615 LINE SMOOTH",
"283.137 615 OFFCURVE",
"277.83 612.83 OFFCURVE",
"272.5 607.5 CURVE SMOOTH",
"267.17 602.17 OFFCURVE",
"265 596.863 OFFCURVE",
"265 589.155 CURVE SMOOTH",
"265 410.845 LINE SMOOTH",
"265 403.137 OFFCURVE",
"267.17 397.83 OFFCURVE",
"272.5 392.5 CURVE SMOOTH",
"277.83 387.17 OFFCURVE",
"283.137 385 OFFCURVE",
"290.845 385 CURVE SMOOTH"
);
},
{
closed = 1;
nodes = (
"295 585 LINE",
"400 585 LINE SMOOTH",
"465.754 585 OFFCURVE",
"497.017 558.083 OFFCURVE",
"497.017 502.376 CURVE SMOOTH",
"497.017 442.635 OFFCURVE",
"466.55 415 OFFCURVE",
"400 415 CURVE SMOOTH",
"295 415 LINE"
);
}
);
width = 779;
},
{
associatedMasterId = "90EC08FA-78FA-4D06-9A9B-D8A14CBAAFF5";
layerId = "B58DE425-B0BD-4F3F-8A2E-20200AD6B552";
name = path;
paths = (
{
closed = 1;
nodes = (
"440 400 OFFCURVE",
"481 430 OFFCURVE",
"482 500 CURVE SMOOTH",
"483 570 OFFCURVE",
"440 600 OFFCURVE",
"370 600 CURVE SMOOTH",
"250 600 LINE",
"250 400 LINE",
"370 400 LINE SMOOTH"
);
},
{
closed = 1;
nodes = (
"0 100 LINE",
"50 100 LINE",
"50 600 LINE",
"0 600 LINE",
"0 700 LINE",
"400 700 LINE SMOOTH",
"600 699 OFFCURVE",
"662 630 OFFCURVE",
"662 500 CURVE SMOOTH",
"662 446.933 OFFCURVE",
"652 404 OFFCURVE",
"626 371 CURVE",
"694 340 OFFCURVE",
"719 282.035 OFFCURVE",
"719 200 CURVE SMOOTH",
"719 70 OFFCURVE",
"657 0 OFFCURVE",
"457 0 CURVE SMOOTH",
"0 0 LINE"
);
},
{
closed = 1;
nodes = (
"427 100 LINE SMOOTH",
"497 100 OFFCURVE",
"538 130 OFFCURVE",
"539 200 CURVE SMOOTH",
"540 270 OFFCURVE",
"497 300 OFFCURVE",
"427 300 CURVE SMOOTH",
"250 300 LINE",
"250 100 LINE"
);
}
);
width = 600;
},
{
associatedMasterId = "90EC08FA-78FA-4D06-9A9B-D8A14CBAAFF5";
layerId = "0D3BFDCF-44CF-44A9-AFB5-C09CE9186DD8";
name = base;
paths = (
{
closed = 1;
nodes = (
"560 300 OFFCURVE",
"622 370 OFFCURVE",
"622 500 CURVE SMOOTH",
"622 630 OFFCURVE",
"560 699 OFFCURVE",
"360 700 CURVE",
"0 700 LINE",
"0 600 LINE",
"50 600 LINE",
"50 100 LINE",
"0 100 LINE",
"0 0 LINE",
"300 0 LINE",
"300 100 LINE",
"250 100 LINE",
"250 300 LINE",
"360 300 LINE SMOOTH"
);
},
{
closed = 1;
nodes = (
"250 400 LINE",
"250 600 LINE",
"330 600 LINE SMOOTH",
"400 600 OFFCURVE",
"443 570 OFFCURVE",
"442 500 CURVE SMOOTH",
"441 430 OFFCURVE",
"400 400 OFFCURVE",
"330 400 CURVE SMOOTH"
);
},
{
closed = 1;
nodes = (
"240 400 LINE",
"240 300 LINE",
"387 300 LINE",
"457 300 OFFCURVE",
"500 270 OFFCURVE",
"499 200 CURVE SMOOTH",
"498 130 OFFCURVE",
"457 100 OFFCURVE",
"387 100 CURVE",
"210 100 LINE",
"210 0 LINE",
"417 0 LINE SMOOTH",
"617 0 OFFCURVE",
"679 70 OFFCURVE",
"679 200 CURVE SMOOTH",
"679 330 OFFCURVE",
"617 398 OFFCURVE",
"417 400 CURVE"
);
}
);
width = 600;
},
{
associatedMasterId = "90EC08FA-78FA-4D06-9A9B-D8A14CBAAFF5";
layerId = "34E4255A-B237-4B3D-AFC4-6F855C6838B9";
name = "Oct 16 18, 16:09";
paths = (
{
closed = 1;
nodes = (
"560 300 OFFCURVE",
"622 370 OFFCURVE",
"622 500 CURVE SMOOTH",
"622 630 OFFCURVE",
"560 699 OFFCURVE",
"360 700 CURVE",
"0 700 LINE",
"0 600 LINE",
"50 600 LINE",
"50 100 LINE",
"0 100 LINE",
"0 0 LINE",
"300 0 LINE",
"300 100 LINE",
"250 100 LINE",
"250 300 LINE",
"360 300 LINE SMOOTH"
);
},
{
closed = 1;
nodes = (
"250 400 LINE",
"250 600 LINE",
"330 600 LINE SMOOTH",
"400 600 OFFCURVE",
"443 570 OFFCURVE",
"442 500 CURVE SMOOTH",
"441 430 OFFCURVE",
"400 400 OFFCURVE",
"330 400 CURVE SMOOTH"
);
},
{
closed = 1;
nodes = (
"240 400 LINE",
"240 300 LINE",
"387 300 LINE",
"457 300 OFFCURVE",
"500 270 OFFCURVE",
"499 200 CURVE SMOOTH",
"498 130 OFFCURVE",
"457 100 OFFCURVE",
"387 100 CURVE",
"210 100 LINE",
"210 0 LINE",
"417 0 LINE SMOOTH",
"617 0 OFFCURVE",
"679 70 OFFCURVE",
"679 200 CURVE SMOOTH",
"679 330 OFFCURVE",
"617 398 OFFCURVE",
"417 400 CURVE"
);
}
);
width = 600;
}
);
unicode = 0042;
},
{
color = 0;
glyphname = C;
lastChange = "2018-12-03 12:55:33 +0000";
layers = (
{
layerId = "90EC08FA-78FA-4D06-9A9B-D8A14CBAAFF5";
paths = (
{
closed = 1;
nodes = (
"410.012 -15 OFFCURVE",
"514.575 51.855 OFFCURVE",
"571.928 157.75 CURVE SMOOTH",
"575.865 165.118 OFFCURVE",
"575.522 171.357 OFFCURVE",
"571.195 178.358 CURVE SMOOTH",
"570.194 179.978 LINE SMOOTH",
"565.881 186.956 OFFCURVE",
"560.422 190 OFFCURVE",
"552.218 190 CURVE SMOOTH",
"405.223 190 LINE SMOOTH",
"397.856 190 OFFCURVE",
"393.04 188.645 OFFCURVE",
"387.984 185.15 CURVE SMOOTH",
"382.919 181.65 OFFCURVE",
"380.172 177.665 OFFCURVE",
"376.875 170.984 CURVE SMOOTH",
"360.983 139.319 OFFCURVE",
"328.148 115 OFFCURVE",
"300 115 CURVE SMOOTH",
"251.553 115 OFFCURVE",
"215 211.913 OFFCURVE",
"215 350 CURVE SMOOTH",
"215 488.087 OFFCURVE",
"251.553 585 OFFCURVE",
"300 585 CURVE SMOOTH",
"329 585 OFFCURVE",
"387 558 OFFCURVE",
"417 472 CURVE SMOOTH",
"420 464 OFFCURVE",
"423 461 OFFCURVE",
"428 457 CURVE SMOOTH",
"433 453 OFFCURVE",
"438 452 OFFCURVE",
"445 452 CURVE SMOOTH",
"543 452 LINE SMOOTH",
"551 452 OFFCURVE",
"556 454 OFFCURVE",
"562 460 CURVE SMOOTH",
"567 465 OFFCURVE",
"569 470 OFFCURVE",
"569 478 CURVE SMOOTH",
"569 689.137 LINE SMOOTH",
"569 696.854 OFFCURVE",
"566.807 702.172 OFFCURVE",
"561.425 707.5 CURVE SMOOTH",
"556.043 712.827 OFFCURVE",
"550.705 714.968 OFFCURVE",
"542.987 714.89 CURVE SMOOTH",
"464.676 714.107 LINE SMOOTH",
"456.978 714.03 OFFCURVE",
"451.704 711.832 OFFCURVE",
"446.425 706.5 CURVE SMOOTH",
"441.146 701.167 OFFCURVE",
"439 695.871 OFFCURVE",
"439 688.174 CURVE SMOOTH",
"439 675.188 LINE",
"396.736 701.4 OFFCURVE",
"349.465 715 OFFCURVE",
"300 715 CURVE SMOOTH",
"126.379 715 OFFCURVE",
"-15 550.862 OFFCURVE",
"-15 350 CURVE SMOOTH",
"-15 149.138 OFFCURVE",
"126.379 -15 OFFCURVE",
"300 -15 CURVE SMOOTH"
);
},
{
closed = 1;
nodes = (
"143.201 15 OFFCURVE",
"15 165.344 OFFCURVE",
"15 350 CURVE SMOOTH",
"15 534.656 OFFCURVE",
"143.201 685 OFFCURVE",
"300 685 CURVE SMOOTH",
"348.834 685 OFFCURVE",
"394.367 670.453 OFFCURVE",
"435.022 641.89 CURVE SMOOTH",
"441.905 636.973 OFFCURVE",
"448.193 636.315 OFFCURVE",
"455.727 640.011 CURVE SMOOTH",
"458.018 641.136 LINE SMOOTH",
"465.59 644.851 OFFCURVE",
"469 650.322 OFFCURVE",
"469 658.756 CURVE SMOOTH",
"469 684.149 LINE",
"539 684.85 LINE",
"539 482 LINE",
"445 482 LINE",
"411 580 OFFCURVE",
"342 615 OFFCURVE",
"300 615 CURVE SMOOTH",
"228.905 615 OFFCURVE",
"185 507.621 OFFCURVE",
"185 350 CURVE SMOOTH",
"185 192.379 OFFCURVE",
"228.905 85 OFFCURVE",
"300 85 CURVE SMOOTH",
"340.454 85 OFFCURVE",
"384.518 117.225 OFFCURVE",
"404.894 160 CURVE",
"538.715 160 LINE",
"485.293 70.318 OFFCURVE",
"395.143 15 OFFCURVE",
"300 15 CURVE SMOOTH"
);
}
);
width = 600;
},
{
associatedMasterId = "90EC08FA-78FA-4D06-9A9B-D8A14CBAAFF5";
layerId = "38E6D596-AE8D-4FA4-A18A-699F233AAC4F";
name = base;
paths = (
{
closed = 1;
nodes = (
"0 600 LINE",
"600 600 LINE",
"600 700 LINE",
"0 700 LINE"
);
},
{
closed = 1;
nodes = (
"0 0 LINE",
"600 0 LINE",
"600 100 LINE",
"0 100 LINE"
);
},
{
closed = 1;
nodes = (
"200 46 LINE",
"200 646 LINE",
"0 646 LINE",
"0 46 LINE"
);
},
{
closed = 1;
nodes = (
"600 178 LINE",
"600 514 LINE",
"329 514 LINE",
"329 178 LINE"
);
},
{
closed = 1;
nodes = (
"465 0 OFFCURVE",
"600 157 OFFCURVE",
"600 350 CURVE SMOOTH",
"600 543 OFFCURVE",
"465 700 OFFCURVE",
"300 700 CURVE SMOOTH",
"135 700 OFFCURVE",
"0 543 OFFCURVE",
"0 350 CURVE SMOOTH",
"0 157 OFFCURVE",
"135 0 OFFCURVE",
"300 0 CURVE SMOOTH"
);
},
{
closed = 1;
nodes = (
"370 100 OFFCURVE",
"400 230 OFFCURVE",
"400 350 CURVE SMOOTH",
"400 470 OFFCURVE",
"370 600 OFFCURVE",
"300 600 CURVE SMOOTH",
"230 600 OFFCURVE",
"200 470 OFFCURVE",
"200 350 CURVE SMOOTH",
"200 230 OFFCURVE",
"230 100 OFFCURVE",
"300 100 CURVE SMOOTH"
);
},
{
closed = 1;
nodes = (
"500 699 LINE",
"500 560 LINE",
"600 560 LINE",
"600 700 LINE"
);
},
{
closed = 1;
nodes = (
"500 123 LINE",
"500 0 LINE",
"600 0 LINE",
"600 124 LINE"
);
}
);
width = 600;
},
{
associatedMasterId = "90EC08FA-78FA-4D06-9A9B-D8A14CBAAFF5";
layerId = "90F9511F-2A31-4A4C-9B2F-36944E206A3A";
name = "Nov 22 18, 17:48";
paths = (
{
closed = 1;
nodes = (
"597 502 LINE",
"454 506 LINE",
"401.005 544.996 OFFCURVE",
"393 623 OFFCURVE",
"295 623 CURVE SMOOTH",
"197 623 OFFCURVE",
"107 510 OFFCURVE",
"109 371 CURVE SMOOTH",
"111 232 OFFCURVE",
"213 67 OFFCURVE",
"310 64 CURVE SMOOTH",
"407 61 OFFCURVE",
"459 186 OFFCURVE",
"459 194 CURVE",
"600 202 LINE",
"598 -4 LINE",
"467 5 LINE",
"467 73 LINE",
"415 50 OFFCURVE",
"435 10 OFFCURVE",
"312 5 CURVE SMOOTH",
"189 0 OFFCURVE",
"-3 126 OFFCURVE",
"-2 356 CURVE SMOOTH",
"-1 586 OFFCURVE",
"120 704 OFFCURVE",
"297 702 CURVE SMOOTH",
"474 700 OFFCURVE",
"461 637 OFFCURVE",
"479 620 CURVE",
"485 703 LINE",
"599 697 LINE"
);
}
);
visible = 1;
width = 600;
},
{
associatedMasterId = "90EC08FA-78FA-4D06-9A9B-D8A14CBAAFF5";
layerId = "1B0B607D-8C39-44C1-9BC6-F0B3E1F88A64";
name = "Nov 22 18, 17:50";
paths = (
{
closed = 1;
nodes = (
"534 0 LINE",
"434 0 LINE",
"434 174 LINE",
"534 175 LINE"
);
},
{
closed = 1;
nodes = (
"482 71 OFFCURVE",
"411 0 OFFCURVE",
"300 0 CURVE SMOOTH",
"135 0 OFFCURVE",
"0 157 OFFCURVE",
"0 350 CURVE SMOOTH",
"0 543 OFFCURVE",
"135 700 OFFCURVE",
"300 700 CURVE SMOOTH",
"413 700 OFFCURVE",
"483 626 OFFCURVE",
"534 517 CURVE",
"395 517 LINE",
"379 566 OFFCURVE",
"336 600 OFFCURVE",
"300 600 CURVE SMOOTH",
"230 600 OFFCURVE",
"200 470 OFFCURVE",
"200 350 CURVE SMOOTH",
"200 230 OFFCURVE",
"230 100 OFFCURVE",
"300 100 CURVE SMOOTH",
"334 100 OFFCURVE",
"378 130 OFFCURVE",
"395 175 CURVE",
"534 175 LINE"
);
},
{
closed = 1;
nodes = (
"534 517 LINE",
"434 517 LINE",
"434 699 LINE",
"534 700 LINE"
);
}
);
width = 600;
},
{
associatedMasterId = "90EC08FA-78FA-4D06-9A9B-D8A14CBAAFF5";
layerId = "7563B9AC-FCA4-4695-B11A-4D0BD22E872F";
name = "Nov 22 18, 17:54";
paths = (
{
closed = 1;
nodes = (
"512 71 OFFCURVE",
"411 0 OFFCURVE",
"300 0 CURVE SMOOTH",
"135 0 OFFCURVE",
"0 157 OFFCURVE",
"0 350 CURVE SMOOTH",
"0 543 OFFCURVE",
"135 700 OFFCURVE",
"300 700 CURVE SMOOTH",
"413 700 OFFCURVE",
"503 626 OFFCURVE",
"554 517 CURVE",
"395 517 LINE",
"379 566 OFFCURVE",
"336 600 OFFCURVE",
"300 600 CURVE SMOOTH",
"230 600 OFFCURVE",
"200 470 OFFCURVE",
"200 350 CURVE SMOOTH",
"200 230 OFFCURVE",
"230 100 OFFCURVE",
"300 100 CURVE SMOOTH",
"334 100 OFFCURVE",
"378 130 OFFCURVE",
"395 175 CURVE",
"564 175 LINE"
);
},
{
closed = 1;
nodes = (
"554 517 LINE",
"454 517 LINE",
"454 699 LINE",
"554 700 LINE"
);
}
);
width = 600;
}
);
unicode = 0043;
},
{
color = 3;
glyphname = D;
lastChange = "2018-12-09 15:04:30 +0000";
layers = (
{
layerId = "90EC08FA-78FA-4D06-9A9B-D8A14CBAAFF5";
paths = (
{
closed = 1;
nodes = (
"375 -15 LINE SMOOTH",
"587 -15 OFFCURVE",
"810 38 OFFCURVE",
"810 350 CURVE SMOOTH",
"810 662 OFFCURVE",
"587 715 OFFCURVE",
"375 715 CURVE SMOOTH",
"56 715 LINE SMOOTH",
"48 715 OFFCURVE",
"43 713 OFFCURVE",
"38 708 CURVE SMOOTH",
"32 702 OFFCURVE",
"30 697 OFFCURVE",
"30 689 CURVE SMOOTH",
"30 611 LINE SMOOTH",
"30 603 OFFCURVE",
"32 598 OFFCURVE",
"38 593 CURVE SMOOTH",
"43 587 OFFCURVE",
"48 585 OFFCURVE",
"56 585 CURVE SMOOTH",
"80 585 LINE",
"80 115 LINE",
"56 115 LINE SMOOTH",
"48 115 OFFCURVE",
"43 113 OFFCURVE",
"38 108 CURVE SMOOTH",
"32 102 OFFCURVE",
"30 97 OFFCURVE",
"30 89 CURVE SMOOTH",
"30 11 LINE SMOOTH",
"30 3 OFFCURVE",
"32 -2 OFFCURVE",
"38 -8 CURVE SMOOTH",
"43 -13 OFFCURVE",
"48 -15 OFFCURVE",
"56 -15 CURVE SMOOTH"
);
},
{
closed = 1;
nodes = (
"60 85 LINE",
"84 85 LINE SMOOTH",
"92 85 OFFCURVE",
"97 87 OFFCURVE",
"103 93 CURVE SMOOTH",
"108 98 OFFCURVE",
"110 103 OFFCURVE",
"110 111 CURVE SMOOTH",
"110 589 LINE SMOOTH",
"110 597 OFFCURVE",
"108 602 OFFCURVE",
"103 608 CURVE SMOOTH",
"97 613 OFFCURVE",
"92 615 OFFCURVE",
"84 615 CURVE SMOOTH",
"60 615 LINE",
"60 685 LINE",
"375 685 LINE SMOOTH",
"583 685 OFFCURVE",
"780 638 OFFCURVE",
"780 350 CURVE SMOOTH",
"780 62 OFFCURVE",
"583 15 OFFCURVE",
"375 15 CURVE SMOOTH",
"60 15 LINE"
);
},
{
closed = 1;
nodes = (
"375 85 LINE SMOOTH",
"521 85 OFFCURVE",
"610 167 OFFCURVE",
"610 350 CURVE SMOOTH",
"610 533 OFFCURVE",
"521 615 OFFCURVE",
"375 615 CURVE SMOOTH",
"306 615 LINE SMOOTH",
"298 615 OFFCURVE",
"293 613 OFFCURVE",
"288 608 CURVE SMOOTH",
"282 602 OFFCURVE",
"280 597 OFFCURVE",
"280 589 CURVE SMOOTH",
"280 111 LINE SMOOTH",
"280 103 OFFCURVE",
"282 98 OFFCURVE",
"288 93 CURVE SMOOTH",
"293 87 OFFCURVE",
"298 85 OFFCURVE",
"306 85 CURVE SMOOTH"
);
},
{
closed = 1;
nodes = (
"310 585 LINE",
"375 585 LINE SMOOTH",
"505 585 OFFCURVE",
"580 516 OFFCURVE",
"580 350 CURVE SMOOTH",
"580 184 OFFCURVE",
"505 115 OFFCURVE",
"375 115 CURVE SMOOTH",
"310 115 LINE"
);
}
);
width = 840;
},
{
associatedMasterId = "90EC08FA-78FA-4D06-9A9B-D8A14CBAAFF5";
layerId = "3D4E96A2-B0C8-4107-B87F-695A29530E71";
name = path;
paths = (
{
closed = 1;
nodes = (
"360 0 LINE SMOOTH",
"600 0 OFFCURVE",
"805 50 OFFCURVE",
"805 350 CURVE SMOOTH",
"805 650 OFFCURVE",
"610 700 OFFCURVE",
"360 700 CURVE SMOOTH",
"30 700 LINE",
"30 600 LINE",
"80 600 LINE",
"80 100 LINE",
"30 100 LINE",
"30 0 LINE"
);
},
{
closed = 1;
nodes = (
"280 600 LINE",
"360 600 LINE SMOOTH",
"520 600 OFFCURVE",
"605 540 OFFCURVE",
"605 350 CURVE SMOOTH",
"605 160 OFFCURVE",
"510 100 OFFCURVE",
"360 100 CURVE SMOOTH",
"280 100 LINE"
);
}
);
visible = 1;
width = 860;
},
{
associatedMasterId = "90EC08FA-78FA-4D06-9A9B-D8A14CBAAFF5";
layerId = "E10634A9-9CD1-4C05-A2EA-F8334EDAD900";
name = base;
paths = (
{
closed = 1;
nodes = (
"30 700 LINE",
"30 600 LINE",
"360 600 LINE SMOOTH",
"530 600 OFFCURVE",
"630 540 OFFCURVE",
"630 350 CURVE SMOOTH",
"630 160 OFFCURVE",
"530 100 OFFCURVE",
"360 100 CURVE SMOOTH",
"30 100 LINE",
"30 0 LINE",
"360 0 LINE SMOOTH",
"620 0 OFFCURVE",
"830 50 OFFCURVE",
"830 350 CURVE SMOOTH",
"830 650 OFFCURVE",
"620 700 OFFCURVE",
"360 700 CURVE SMOOTH"
);
},
{
closed = 1;
nodes = (
"280 46 LINE",
"280 646 LINE",
"80 646 LINE",
"80 46 LINE"
);
}
);
width = 880;
}
);
unicode = 0044;
},
{
color = 4;
glyphname = E;
lastChange = "2018-12-09 10:56:01 +0000";
layers = (
{
associatedMasterId = "90EC08FA-78FA-4D06-9A9B-D8A14CBAAFF5";
layerId = "0F729B33-C2ED-48D1-A47F-9EE32D22535A";
name = path;
paths = (
{
closed = 1;
nodes = (
"0 600 LINE",
"50 600 LINE",
"50 100 LINE",
"0 100 LINE",
"0 0 LINE",
"600 0 LINE",
"600 150 LINE",
"500 150 LINE",
"500 100 LINE",
"250 100 LINE",
"250 300 LINE",
"450 300 LINE",
"450 400 LINE",
"250 400 LINE",
"250 600 LINE",
"500 600 LINE",
"500 550 LINE",
"600 550 LINE",
"600 700 LINE",
"0 700 LINE"
);
}
);
width = 600;
},
{
associatedMasterId = "90EC08FA-78FA-4D06-9A9B-D8A14CBAAFF5";
layerId = "B2E82627-D1F7-4461-8EB5-06D93FFBC95F";
name = base;
paths = (
{
closed = 1;
nodes = (
"0 600 LINE",
"600 600 LINE",
"600 700 LINE",
"0 700 LINE"
);
},
{
closed = 1;
nodes = (
"0 0 LINE",
"600 0 LINE",
"600 100 LINE",
"0 100 LINE"
);
},
{
closed = 1;
nodes = (
"250 46 LINE",
"250 646 LINE",
"50 646 LINE",
"50 46 LINE"
);
},
{
closed = 1;
nodes = (
"100 300 LINE",
"450 300 LINE",
"450 400 LINE",
"100 400 LINE"
);
},
{
closed = 1;
nodes = (
"500 650 LINE",
"500 550 LINE",
"600 550 LINE",
"600 650 LINE"
);
},
{
closed = 1;
nodes = (
"500 150 LINE",
"500 50 LINE",
"600 50 LINE",
"600 150 LINE"
);
}
);
width = 600;
},
{
layerId = "90EC08FA-78FA-4D06-9A9B-D8A14CBAAFF5";
paths = (
{
closed = 1;
nodes = (
"639 -15 LINE SMOOTH",
"647 -15 OFFCURVE",
"652 -13 OFFCURVE",
"658 -8 CURVE SMOOTH",
"663 -2 OFFCURVE",
"665 3 OFFCURVE",
"665 11 CURVE SMOOTH",
"665 139 LINE SMOOTH",
"665 147 OFFCURVE",
"663 152 OFFCURVE",
"658 158 CURVE SMOOTH",
"652 163 OFFCURVE",
"647 165 OFFCURVE",
"639 165 CURVE SMOOTH",
"561 165 LINE SMOOTH",
"553 165 OFFCURVE",
"548 163 OFFCURVE",
"543 158 CURVE SMOOTH",
"537 152 OFFCURVE",
"535 147 OFFCURVE",
"535 139 CURVE SMOOTH",
"535 115 LINE",
"315 115 LINE",
"315 285 LINE",
"489 285 LINE SMOOTH",
"497 285 OFFCURVE",
"502 287 OFFCURVE",
"508 293 CURVE SMOOTH",
"513 298 OFFCURVE",
"515 303 OFFCURVE",
"515 311 CURVE SMOOTH",
"515 389 LINE SMOOTH",
"515 397 OFFCURVE",
"513 402 OFFCURVE",
"508 408 CURVE SMOOTH",
"502 413 OFFCURVE",
"497 415 OFFCURVE",
"489 415 CURVE SMOOTH",
"315 415 LINE",
"315 585 LINE",
"535 585 LINE",
"535 561 LINE SMOOTH",
"535 553 OFFCURVE",
"537 548 OFFCURVE",
"543 543 CURVE SMOOTH",
"548 537 OFFCURVE",
"553 535 OFFCURVE",
"561 535 CURVE SMOOTH",
"639 535 LINE SMOOTH",
"647 535 OFFCURVE",
"652 537 OFFCURVE",
"658 543 CURVE SMOOTH",
"663 548 OFFCURVE",
"665 553 OFFCURVE",
"665 561 CURVE SMOOTH",
"665 689 LINE SMOOTH",
"665 697 OFFCURVE",
"663 702 OFFCURVE",
"658 708 CURVE SMOOTH",
"652 713 OFFCURVE",
"647 715 OFFCURVE",
"639 715 CURVE SMOOTH",
"61 715 LINE SMOOTH",
"53 715 OFFCURVE",
"48 713 OFFCURVE",
"43 708 CURVE SMOOTH",
"37 702 OFFCURVE",
"35 697 OFFCURVE",
"35 689 CURVE SMOOTH",
"35 611 LINE SMOOTH",
"35 603 OFFCURVE",
"37 598 OFFCURVE",
"43 593 CURVE SMOOTH",
"48 587 OFFCURVE",
"53 585 OFFCURVE",
"61 585 CURVE SMOOTH",
"85 585 LINE",
"85 115 LINE",
"61 115 LINE SMOOTH",
"53 115 OFFCURVE",
"48 113 OFFCURVE",
"43 108 CURVE SMOOTH",
"37 102 OFFCURVE",
"35 97 OFFCURVE",
"35 89 CURVE SMOOTH",
"35 11 LINE SMOOTH",
"35 3 OFFCURVE",
"37 -2 OFFCURVE",
"43 -8 CURVE SMOOTH",
"48 -13 OFFCURVE",
"53 -15 OFFCURVE",
"61 -15 CURVE SMOOTH"
);
},
{
closed = 1;
nodes = (
"65 85 LINE",
"89 85 LINE SMOOTH",
"97 85 OFFCURVE",
"102 87 OFFCURVE",
"108 93 CURVE SMOOTH",
"113 98 OFFCURVE",
"115 103 OFFCURVE",
"115 111 CURVE SMOOTH",
"115 589 LINE SMOOTH",
"115 597 OFFCURVE",
"113 602 OFFCURVE",
"108 608 CURVE SMOOTH",
"102 613 OFFCURVE",
"97 615 OFFCURVE",
"89 615 CURVE SMOOTH",
"65 615 LINE",
"65 685 LINE",
"635 685 LINE",
"635 565 LINE",
"565 565 LINE",
"565 589 LINE SMOOTH",
"565 597 OFFCURVE",
"563 602 OFFCURVE",
"558 608 CURVE SMOOTH",
"552 613 OFFCURVE",
"547 615 OFFCURVE",
"539 615 CURVE SMOOTH",
"311 615 LINE SMOOTH",
"303 615 OFFCURVE",
"298 613 OFFCURVE",
"293 608 CURVE SMOOTH",
"287 602 OFFCURVE",
"285 597 OFFCURVE",
"285 589 CURVE SMOOTH",
"285 411 LINE SMOOTH",
"285 403 OFFCURVE",
"287 398 OFFCURVE",
"293 393 CURVE SMOOTH",
"298 387 OFFCURVE",
"303 385 OFFCURVE",
"311 385 CURVE SMOOTH",
"485 385 LINE",
"485 315 LINE",
"311 315 LINE SMOOTH",
"303 315 OFFCURVE",
"298 313 OFFCURVE",
"293 308 CURVE SMOOTH",
"287 302 OFFCURVE",
"285 297 OFFCURVE",
"285 289 CURVE SMOOTH",
"285 111 LINE SMOOTH",
"285 103 OFFCURVE",
"287 98 OFFCURVE",
"293 93 CURVE SMOOTH",
"298 87 OFFCURVE",
"303 85 OFFCURVE",
"311 85 CURVE SMOOTH",
"539 85 LINE SMOOTH",
"547 85 OFFCURVE",
"552 87 OFFCURVE",
"558 93 CURVE SMOOTH",
"563 98 OFFCURVE",
"565 103 OFFCURVE",
"565 111 CURVE SMOOTH",
"565 135 LINE",
"635 135 LINE",
"635 15 LINE",
"65 15 LINE"
);
}
);
width = 700;
}
);
unicode = 0045;
},
{
color = 4;
glyphname = F;
lastChange = "2018-12-09 10:56:04 +0000";
layers = (
{
layerId = "90EC08FA-78FA-4D06-9A9B-D8A14CBAAFF5";
paths = (
{
closed = 1;
nodes = (
"339 -15 LINE SMOOTH",
"347 -15 OFFCURVE",
"352 -13 OFFCURVE",
"358 -8 CURVE SMOOTH",
"363 -2 OFFCURVE",
"365 3 OFFCURVE",
"365 11 CURVE SMOOTH",
"365 89 LINE SMOOTH",
"365 97 OFFCURVE",
"363 102 OFFCURVE",
"358 108 CURVE SMOOTH",
"352 113 OFFCURVE",
"347 115 OFFCURVE",
"339 115 CURVE SMOOTH",
"315 115 LINE",
"315 285 LINE",
"489 285 LINE SMOOTH",
"497 285 OFFCURVE",
"502 287 OFFCURVE",
"508 293 CURVE SMOOTH",
"513 298 OFFCURVE",
"515 303 OFFCURVE",
"515 311 CURVE SMOOTH",
"515 389 LINE SMOOTH",
"515 397 OFFCURVE",
"513 402 OFFCURVE",
"508 408 CURVE SMOOTH",
"502 413 OFFCURVE",
"497 415 OFFCURVE",
"489 415 CURVE SMOOTH",
"315 415 LINE",
"315 585 LINE",
"535 585 LINE",
"535 561 LINE SMOOTH",
"535 553 OFFCURVE",
"537 548 OFFCURVE",
"543 543 CURVE SMOOTH",
"548 537 OFFCURVE",
"553 535 OFFCURVE",
"561 535 CURVE SMOOTH",
"639 535 LINE SMOOTH",
"647 535 OFFCURVE",
"652 537 OFFCURVE",
"658 543 CURVE SMOOTH",
"663 548 OFFCURVE",
"665 553 OFFCURVE",
"665 561 CURVE SMOOTH",
"665 689 LINE SMOOTH",
"665 697 OFFCURVE",
"663 702 OFFCURVE",
"658 708 CURVE SMOOTH",
"652 713 OFFCURVE",
"647 715 OFFCURVE",
"639 715 CURVE SMOOTH",
"61 715 LINE SMOOTH",
"53 715 OFFCURVE",
"48 713 OFFCURVE",
"43 708 CURVE SMOOTH",
"37 702 OFFCURVE",
"35 697 OFFCURVE",
"35 689 CURVE SMOOTH",
"35 611 LINE SMOOTH",
"35 603 OFFCURVE",
"37 598 OFFCURVE",
"43 593 CURVE SMOOTH",
"48 587 OFFCURVE",
"53 585 OFFCURVE",
"61 585 CURVE SMOOTH",
"85 585 LINE",
"85 115 LINE",
"61 115 LINE SMOOTH",
"53 115 OFFCURVE",
"48 113 OFFCURVE",
"43 108 CURVE SMOOTH",
"37 102 OFFCURVE",
"35 97 OFFCURVE",
"35 89 CURVE SMOOTH",
"35 11 LINE SMOOTH",
"35 3 OFFCURVE",
"37 -2 OFFCURVE",
"43 -8 CURVE SMOOTH",
"48 -13 OFFCURVE",
"53 -15 OFFCURVE",
"61 -15 CURVE SMOOTH"
);
},
{
closed = 1;
nodes = (
"65 85 LINE",
"89 85 LINE SMOOTH",
"97 85 OFFCURVE",
"102 87 OFFCURVE",
"108 93 CURVE SMOOTH",
"113 98 OFFCURVE",
"115 103 OFFCURVE",
"115 111 CURVE SMOOTH",
"115 589 LINE SMOOTH",
"115 597 OFFCURVE",
"113 602 OFFCURVE",
"108 608 CURVE SMOOTH",
"102 613 OFFCURVE",
"97 615 OFFCURVE",
"89 615 CURVE SMOOTH",
"65 615 LINE",
"65 685 LINE",
"635 685 LINE",
"635 565 LINE",
"565 565 LINE",
"565 589 LINE SMOOTH",
"565 597 OFFCURVE",
"563 602 OFFCURVE",
"558 608 CURVE SMOOTH",
"552 613 OFFCURVE",
"547 615 OFFCURVE",
"539 615 CURVE SMOOTH",
"311 615 LINE SMOOTH",
"303 615 OFFCURVE",
"298 613 OFFCURVE",
"293 608 CURVE SMOOTH",
"287 602 OFFCURVE",
"285 597 OFFCURVE",
"285 589 CURVE SMOOTH",
"285 411 LINE SMOOTH",
"285 403 OFFCURVE",
"287 398 OFFCURVE",
"293 393 CURVE SMOOTH",
"298 387 OFFCURVE",
"303 385 OFFCURVE",
"311 385 CURVE SMOOTH",
"485 385 LINE",
"485 315 LINE",
"311 315 LINE SMOOTH",
"303 315 OFFCURVE",
"298 313 OFFCURVE",
"293 308 CURVE SMOOTH",
"287 302 OFFCURVE",
"285 297 OFFCURVE",
"285 289 CURVE SMOOTH",
"285 111 LINE SMOOTH",
"285 103 OFFCURVE",
"287 98 OFFCURVE",
"293 93 CURVE SMOOTH",
"298 87 OFFCURVE",
"303 85 OFFCURVE",
"311 85 CURVE SMOOTH",
"335 85 LINE",
"335 15 LINE",
"65 15 LINE"
);
}
);
width = 675;
},
{
associatedMasterId = "90EC08FA-78FA-4D06-9A9B-D8A14CBAAFF5";
layerId = "F1672A0E-3456-439F-997C-8BE8314E59D0";
name = path;
paths = (
{
closed = 1;
nodes = (
"0 600 LINE",
"50 600 LINE",
"50 100 LINE",
"0 100 LINE",
"0 0 LINE",
"300 0 LINE",
"300 100 LINE",
"250 100 LINE",
"250 300 LINE",
"450 300 LINE",
"450 400 LINE",
"250 400 LINE",
"250 600 LINE",
"500 600 LINE",
"500 550 LINE",
"600 550 LINE",
"600 700 LINE",
"0 700 LINE"
);
}
);
width = 600;
}
);
unicode = 0046;
},
{
color = 1;
glyphname = G;
lastChange = "2018-12-09 15:31:23 +0000";
layers = (
{
layerId = "90EC08FA-78FA-4D06-9A9B-D8A14CBAAFF5";
paths = (
{
closed = 1;
nodes = (
"432.746 -15 OFFCURVE",
"508.667 0.485 OFFCURVE",
"573 30.182 CURVE",
"573 10.845 LINE SMOOTH",
"573 3.137 OFFCURVE",
"575.17 -2.17 OFFCURVE",
"580.5 -7.5 CURVE SMOOTH",
"585.83 -12.83 OFFCURVE",
"591.137 -15 OFFCURVE",
"598.845 -15 CURVE SMOOTH",
"695.155 -15 LINE SMOOTH",
"702.863 -15 OFFCURVE",
"708.17 -12.83 OFFCURVE",
"713.5 -7.5 CURVE SMOOTH",
"718.83 -2.17 OFFCURVE",
"721 3.137 OFFCURVE",
"721 10.845 CURVE SMOOTH",
"721 191 LINE",
"780.155 191 LINE SMOOTH",
"787.863 191 OFFCURVE",
"793.17 193.17 OFFCURVE",
"798.5 198.5 CURVE SMOOTH",
"803.83 203.83 OFFCURVE",
"806 209.137 OFFCURVE",
"806 216.845 CURVE SMOOTH",
"806 313.155 LINE SMOOTH",
"806 320.863 OFFCURVE",
"803.83 326.17 OFFCURVE",
"798.5 331.5 CURVE SMOOTH",
"793.17 336.83 OFFCURVE",
"787.863 339 OFFCURVE",
"780.155 339 CURVE SMOOTH",
"453.845 339 LINE SMOOTH",
"446.137 339 OFFCURVE",
"440.83 336.83 OFFCURVE",
"435.5 331.5 CURVE SMOOTH",
"430.17 326.17 OFFCURVE",
"428 320.863 OFFCURVE",
"428 313.155 CURVE SMOOTH",
"428 216.845 LINE SMOOTH",
"428 202 OFFCURVE",
"439 191 OFFCURVE",
"453.845 191 CURVE SMOOTH",
"509.093 191 LINE",
"477.215 140.244 OFFCURVE",
"424.824 115 OFFCURVE",
"351 115 CURVE SMOOTH",
"222.086 115 OFFCURVE",
"158 193 OFFCURVE",
"158 351 CURVE SMOOTH",
"158 508 OFFCURVE",
"221.542 585 OFFCURVE",
"351 585 CURVE SMOOTH",
"454.104 585 OFFCURVE",
"515.394 536.845 OFFCURVE",
"537.137 438.633 CURVE SMOOTH",
"538.779 431.183 OFFCURVE",
"541.346 426.508 OFFCURVE",
"546.628 422.122 CURVE SMOOTH",
"551.906 417.739 OFFCURVE",
"556.987 416 OFFCURVE",
"564.516 416 CURVE SMOOTH",
"691.155 416 LINE SMOOTH",
"698.863 416 OFFCURVE",
"704.17 418.17 OFFCURVE",
"709.5 423.5 CURVE SMOOTH",
"714.83 428.83 OFFCURVE",
"717 434.137 OFFCURVE",
"717 441.845 CURVE SMOOTH",
"717 689.155 LINE SMOOTH",
"717 696.863 OFFCURVE",
"714.83 702.17 OFFCURVE",
"709.5 707.5 CURVE SMOOTH",
"704.17 712.83 OFFCURVE",
"698.863 715 OFFCURVE",
"691.155 715 CURVE SMOOTH",
"615.845 715 LINE SMOOTH",
"608.137 715 OFFCURVE",
"602.83 712.83 OFFCURVE",
"597.5 707.5 CURVE SMOOTH",
"592.17 702.17 OFFCURVE",
"590 696.863 OFFCURVE",
"590 689.155 CURVE SMOOTH",
"590 662.349 LINE",
"522.873 696.927 OFFCURVE",
"441.01 715 OFFCURVE",
"351 715 CURVE SMOOTH",
"95.455 715 OFFCURVE",
"-102 572 OFFCURVE",
"-102 351 CURVE SMOOTH",
"-102 129 OFFCURVE",
"96.233 -15 OFFCURVE",
"351 -15 CURVE SMOOTH"
);
},
{
closed = 1;
nodes = (
"112.225 15 OFFCURVE",
"-72 146 OFFCURVE",
"-72 351 CURVE SMOOTH",
"-72 556 OFFCURVE",
"111.451 685 OFFCURVE",
"351 685 CURVE SMOOTH",
"441.295 685 OFFCURVE",
"522.382 666.006 OFFCURVE",
"587.016 629.911 CURVE SMOOTH",
"594.192 625.851 OFFCURVE",
"600.418 625.757 OFFCURVE",
"607.617 629.821 CURVE SMOOTH",
"609.585 630.933 LINE SMOOTH",
"616.809 635.011 OFFCURVE",
"620 640.478 OFFCURVE",
"620 648.773 CURVE SMOOTH",
"620 685 LINE",
"687 685 LINE",
"687 446 LINE",
"566.227 446 LINE",
"541.222 557.136 OFFCURVE",
"467.644 615 OFFCURVE",
"351 615 CURVE SMOOTH",
"203.847 615 OFFCURVE",
"128 524 OFFCURVE",
"128 351 CURVE SMOOTH",
"128 177 OFFCURVE",
"204.343 85 OFFCURVE",
"351 85 CURVE SMOOTH",
"441.146 85 OFFCURVE",
"506.429 120.442 OFFCURVE",
"542.594 189.126 CURVE SMOOTH",
"546.424 196.504 OFFCURVE",
"546 203 OFFCURVE",
"541 211 CURVE SMOOTH",
"536 218 OFFCURVE",
"530.652 221 OFFCURVE",
"522.484 221 CURVE SMOOTH",
"458 221 LINE",
"458 309 LINE",
"776 309 LINE",
"776 221 LINE",
"716.845 221 LINE SMOOTH",
"702 221 OFFCURVE",
"691 210 OFFCURVE",
"691 195.155 CURVE SMOOTH",
"691 15 LINE",
"603 15 LINE",
"603 42.557 LINE SMOOTH",
"603 52 OFFCURVE",
"600 56 OFFCURVE",
"591.032 61.564 CURVE SMOOTH",
"583.987 65.78 OFFCURVE",
"577.799 65.914 OFFCURVE",
"570.482 62.237 CURVE SMOOTH",
"508.2 31.296 OFFCURVE",
"432.736 15 OFFCURVE",
"351 15 CURVE SMOOTH"
);
}
);
width = 810;
},
{
associatedMasterId = "90EC08FA-78FA-4D06-9A9B-D8A14CBAAFF5";
layerId = "6E2BD9C4-C890-45A3-B61F-F6AC6BCB359E";
name = "Nov 5 18, 13:22";
paths = (
{
closed = 1;
nodes = (
"-30 122 OFFCURVE",
"143 0 OFFCURVE",
"350 0 CURVE SMOOTH",
"434.504 0 OFFCURVE",
"517.15 40.887 OFFCURVE",
"577.69 106.793 CURVE",
"590 0 LINE",
"690 0 LINE",
"690 347 LINE",
"347 347 LINE",
"347 247 LINE",
"532.503 247 LINE",
"504.191 165.771 OFFCURVE",
"442.114 100 OFFCURVE",
"350 100 CURVE SMOOTH",
"217 100 OFFCURVE",
"170 230 OFFCURVE",
"170 350 CURVE SMOOTH",
"170 460 OFFCURVE",
"204 600 OFFCURVE",
"340 600 CURVE SMOOTH",
"467 600 OFFCURVE",
"496 545 OFFCURVE",
"514 480 CURVE",
"677 480 LINE",
"643 620 OFFCURVE",
"517 700 OFFCURVE",
"340 700 CURVE SMOOTH",
"176 700 OFFCURVE",
"-30 614 OFFCURVE",
"-30 350 CURVE SMOOTH"
);
}
);
width = 600;
},
{
associatedMasterId = "90EC08FA-78FA-4D06-9A9B-D8A14CBAAFF5";
layerId = "EEE866FC-735A-4DDB-90CF-013C67D694FA";
name = path2;
paths = (
{
closed = 1;
nodes = (
"677 480 LINE",
"643 620 OFFCURVE",
"517 700 OFFCURVE",
"340 700 CURVE SMOOTH",
"176 700 OFFCURVE",
"-30 614 OFFCURVE",
"-30 350 CURVE SMOOTH",
"-30 122 OFFCURVE",
"143 0 OFFCURVE",
"350 0 CURVE SMOOTH",
"514 0 OFFCURVE",
"671 154 OFFCURVE",
"673 346 CURVE",
"550 346 LINE",
"548 227 OFFCURVE",
"478 100 OFFCURVE",
"350 100 CURVE SMOOTH",
"217 100 OFFCURVE",
"170 230 OFFCURVE",
"170 350 CURVE SMOOTH",
"170 460 OFFCURVE",
"204 600 OFFCURVE",
"340 600 CURVE SMOOTH",
"467 600 OFFCURVE",
"496 545 OFFCURVE",
"514 480 CURVE"
);
},
{
closed = 1;
nodes = (
"550 347 LINE",
"590 0 LINE",
"690 0 LINE",
"690 347 LINE"
);
},
{
closed = 1;
nodes = (
"347 247 LINE",
"690 247 LINE",
"690 347 LINE",
"347 347 LINE"
);
}
);
width = 600;
},
{
associatedMasterId = "90EC08FA-78FA-4D06-9A9B-D8A14CBAAFF5";
layerId = "C19E691C-23DD-44E6-A5A2-C93736C49244";
name = path;
paths = (
{
closed = 1;
nodes = (
"532 314 LINE",
"532 0 LINE",
"632 0 LINE",
"632 314 LINE"
);
},
{
closed = 0;
nodes = (
"474 205 LINE SMOOTH",
"428 145 OFFCURVE",
"370 100 OFFCURVE",
"300 100 CURVE SMOOTH",
"230 100 OFFCURVE",
"160 230 OFFCURVE",
"160 350 CURVE SMOOTH",
"160 470 OFFCURVE",
"230 600 OFFCURVE",
"300 600 CURVE SMOOTH",
"353 600 OFFCURVE",
"405 526 OFFCURVE",
"428 439 CURVE",
"590 494 LINE",
"537 615 OFFCURVE",
"421 700 OFFCURVE",
"300 700 CURVE SMOOTH",
"135 700 OFFCURVE",
"-20 543 OFFCURVE",
"-20 350 CURVE SMOOTH",
"-20 157 OFFCURVE",
"135 0 OFFCURVE",
"300 0 CURVE SMOOTH",
"465 0 OFFCURVE",
"494 77 OFFCURVE",
"547 139 CURVE"
);
},
{
closed = 1;
nodes = (
"632 314 LINE",
"415 314 LINE",
"415 114 LINE",
"632 114 LINE"
);
}
);
width = 600;
},
{
associatedMasterId = "90EC08FA-78FA-4D06-9A9B-D8A14CBAAFF5";
layerId = "D0FEAD89-9097-4D6A-9FF7-5CB24C24AB27";
name = base;
paths = (
{
closed = 1;
nodes = (
"0 600 LINE",
"600 600 LINE",
"600 700 LINE",
"0 700 LINE"
);
},
{
closed = 1;
nodes = (
"0 0 LINE",
"600 0 LINE",
"600 100 LINE",
"0 100 LINE"
);
},
{
closed = 1;
nodes = (
"200 46 LINE",
"200 646 LINE",
"0 646 LINE",
"0 46 LINE"
);
},
{
closed = 1;
nodes = (
"600 46 LINE",
"600 646 LINE",
"400 646 LINE",
"400 46 LINE"
);
},
{
closed = 1;
nodes = (
"465 0 OFFCURVE",
"600 157 OFFCURVE",
"600 350 CURVE SMOOTH",
"600 543 OFFCURVE",
"465 700 OFFCURVE",
"300 700 CURVE SMOOTH",
"135 700 OFFCURVE",
"0 543 OFFCURVE",
"0 350 CURVE SMOOTH",
"0 157 OFFCURVE",
"135 0 OFFCURVE",
"300 0 CURVE SMOOTH"
);
},
{
closed = 1;
nodes = (
"370 100 OFFCURVE",
"400 230 OFFCURVE",
"400 350 CURVE SMOOTH",
"400 470 OFFCURVE",
"370 600 OFFCURVE",
"300 600 CURVE SMOOTH",
"230 600 OFFCURVE",
"200 470 OFFCURVE",
"200 350 CURVE SMOOTH",
"200 230 OFFCURVE",
"230 100 OFFCURVE",
"300 100 CURVE SMOOTH"
);
}
);
width = 600;
},
{
associatedMasterId = "90EC08FA-78FA-4D06-9A9B-D8A14CBAAFF5";
layerId = "0391DD8C-B834-4012-8AEC-0F1CF793153E";
name = "Dec 9 18, 16:21";
paths = (
{
closed = 1;
nodes = (
"463.31 -15 OFFCURVE",
"564.089 14.343 OFFCURVE",
"638.541 68.507 CURVE",
"672.078 2.201 LINE SMOOTH",
"675.36 -4.288 OFFCURVE",
"678.467 -7.909 OFFCURVE",
"683.308 -10.885 CURVE SMOOTH",
"688.148 -13.861 OFFCURVE",
"692.781 -15 OFFCURVE",
"700.053 -15 CURVE SMOOTH",
"752.155 -15 LINE SMOOTH",
"759.863 -15 OFFCURVE",
"765.17 -12.83 OFFCURVE",
"770.5 -7.5 CURVE SMOOTH",
"775.83 -2.17 OFFCURVE",
"778 3.137 OFFCURVE",
"778 10.845 CURVE SMOOTH",
"778 340.155 LINE SMOOTH",
"778 347.863 OFFCURVE",
"775.83 353.17 OFFCURVE",
"770.5 358.5 CURVE SMOOTH",
"765.17 363.83 OFFCURVE",
"759.863 366 OFFCURVE",
"752.155 366 CURVE SMOOTH",
"401.845 366 LINE SMOOTH",
"394.137 366 OFFCURVE",
"388.83 363.83 OFFCURVE",
"383.5 358.5 CURVE SMOOTH",
"378.17 353.17 OFFCURVE",
"376 347.863 OFFCURVE",
"376 340.155 CURVE SMOOTH",
"376 241.894 LINE SMOOTH",
"376 234.16 OFFCURVE",
"378.234 228.825 OFFCURVE",
"383.702 223.502 CURVE SMOOTH",
"389.169 218.18 OFFCURVE",
"394.562 216.09 OFFCURVE",
"402.294 216.298 CURVE SMOOTH",
"524.028 219.571 LINE",
"495.025 149.527 OFFCURVE",
"437.913 115 OFFCURVE",
"351 115 CURVE SMOOTH",
"222.086 115 OFFCURVE",
"158 192.922 OFFCURVE",
"158 351 CURVE SMOOTH",
"158 508.381 OFFCURVE",
"221.542 585 OFFCURVE",
"351 585 CURVE SMOOTH",
"454.104 585 OFFCURVE",
"523 536 OFFCURVE",
"557 439 CURVE SMOOTH",
"560 431 OFFCURVE",
"561 427 OFFCURVE",
"567 422 CURVE SMOOTH",
"572 418 OFFCURVE",
"577 416 OFFCURVE",
"585 416 CURVE SMOOTH",
"702 416 LINE SMOOTH",
"710 416 OFFCURVE",
"715 418 OFFCURVE",
"721 424 CURVE SMOOTH",
"726 429 OFFCURVE",
"728 434 OFFCURVE",
"728 442 CURVE SMOOTH",
"728 689 LINE SMOOTH",
"728 697 OFFCURVE",
"726 702 OFFCURVE",
"721 708 CURVE SMOOTH",
"716 714 OFFCURVE",
"710 715 OFFCURVE",
"702 715 CURVE SMOOTH",
"627 715 LINE SMOOTH",
"619 715 OFFCURVE",
"614 713 OFFCURVE",
"609 708 CURVE SMOOTH",
"603 702 OFFCURVE",
"601 697 OFFCURVE",
"601 689 CURVE SMOOTH",
"601 631 LINE",
"527 685 OFFCURVE",
"465.087 715 OFFCURVE",
"351 715 CURVE SMOOTH",
"95.455 715 OFFCURVE",
"-72 572.458 OFFCURVE",
"-72 351 CURVE SMOOTH",
"-72 129.015 OFFCURVE",
"96.233 -15 OFFCURVE",
"351 -15 CURVE SMOOTH"
);
},
{
closed = 1;
nodes = (
"112.225 15 OFFCURVE",
"-42 145.825 OFFCURVE",
"-42 351 CURVE SMOOTH",
"-42 555.608 OFFCURVE",
"111.451 685 OFFCURVE",
"351 685 CURVE SMOOTH",
"466.52 685 OFFCURVE",
"527 654 OFFCURVE",
"597 596 CURVE SMOOTH",
"603 591 OFFCURVE",
"610 591 OFFCURVE",
"617 593 CURVE SMOOTH",
"620 594 LINE SMOOTH",
"628 597 OFFCURVE",
"631 603 OFFCURVE",
"631 612 CURVE SMOOTH",
"631 685 LINE",
"698 685 LINE",
"698 446 LINE",
"586 446 LINE",
"551 557 OFFCURVE",
"468 615 OFFCURVE",
"351 615 CURVE SMOOTH",
"203.847 615 OFFCURVE",
"128 524.117 OFFCURVE",
"128 351 CURVE SMOOTH",
"128 177.176 OFFCURVE",
"204.343 85 OFFCURVE",
"351 85 CURVE SMOOTH",
"454.304 85 OFFCURVE",
"524.332 130.952 OFFCURVE",
"556.212 219.677 CURVE SMOOTH",
"558.96 227.394 OFFCURVE",
"557.811 233.451 OFFCURVE",
"552.935 239.898 CURVE SMOOTH",
"552.114 240.985 LINE SMOOTH",
"547.256 247.407 OFFCURVE",
"541.743 250.058 OFFCURVE",
"533.693 249.841 CURVE SMOOTH",
"406 246.409 LINE",
"406 336 LINE",
"748 336 LINE",
"748 15 LINE",
"699.222 15 LINE",
"662.224 88.153 LINE SMOOTH",
"658.646 95.227 OFFCURVE",
"653.89 98.891 OFFCURVE",
"646.138 100.546 CURVE SMOOTH",
"645.27 100.732 LINE SMOOTH",
"637.541 102.382 OFFCURVE",
"631.802 101.023 OFFCURVE",
"625.535 96.204 CURVE SMOOTH",
"555.771 43.477 OFFCURVE",
"459.872 15 OFFCURVE",
"351 15 CURVE SMOOTH"
);
}
);
width = 810;
},
{
associatedMasterId = "90EC08FA-78FA-4D06-9A9B-D8A14CBAAFF5";
layerId = "1B0835C8-72EA-4CF8-9DFE-DE2832AD344E";
name = "Dec 9 18, 16:29";
paths = (
{
closed = 1;
nodes = (
"560 321 LINE",
"552 183 OFFCURVE",
"487 100 OFFCURVE",
"351 100 CURVE SMOOTH",
"205 100 OFFCURVE",
"143 195 OFFCURVE",
"143 351 CURVE SMOOTH",
"143 507 OFFCURVE",
"205 600 OFFCURVE",
"351 600 CURVE SMOOTH",
"470 600 OFFCURVE",
"534 538 OFFCURVE",
"554 431 CURVE",
"662 431 LINE",
"649 493 OFFCURVE",
"711 544 OFFCURVE",
"672 584 CURVE SMOOTH",
"596 662 OFFCURVE",
"480 700 OFFCURVE",
"351 700 CURVE SMOOTH",
"128 700 OFFCURVE",
"-57 584 OFFCURVE",
"-57 351 CURVE SMOOTH",
"-57 118 OFFCURVE",
"128 0 OFFCURVE",
"351 0 CURVE SMOOTH",
"474 0 OFFCURVE",
"586 36 OFFCURVE",
"662 107 CURVE SMOOTH",
"717 159 OFFCURVE",
"654 231 OFFCURVE",
"660 321 CURVE"
);
},
{
closed = 1;
nodes = (
"605 431 LINE",
"702 431 LINE",
"702 700 LINE",
"605 700 LINE"
);
},
{
closed = 1;
nodes = (
"443 324 LINE",
"443 206 LINE",
"791 206 LINE",
"791 324 LINE"
);
},
{
closed = 1;
nodes = (
"760 321 LINE",
"560 321 LINE"
);
},
{
closed = 1;
nodes = (
"706 296 LINE",
"588 296 LINE",
"588 0 LINE",
"706 0 LINE"
);
}
);
width = 810;
}
);
unicode = 0047;
},
{
color = 4;
glyphname = H;
lastChange = "2018-12-09 15:05:36 +0000";
layers = (
{
layerId = "90EC08FA-78FA-4D06-9A9B-D8A14CBAAFF5";
paths = (
{
closed = 1;
nodes = (
"334 -15 LINE SMOOTH",
"342 -15 OFFCURVE",
"347 -13 OFFCURVE",
"353 -8 CURVE SMOOTH",
"359 -3 OFFCURVE",
"360 3 OFFCURVE",
"360 11 CURVE SMOOTH",
"360 89 LINE SMOOTH",
"360 97 OFFCURVE",
"358 102 OFFCURVE",
"353 108 CURVE SMOOTH",
"348 114 OFFCURVE",
"342 115 OFFCURVE",
"334 115 CURVE SMOOTH",
"310 115 LINE",
"310 285 LINE",
"510 285 LINE",
"510 115 LINE",
"486 115 LINE SMOOTH",
"478 115 OFFCURVE",
"473 113 OFFCURVE",
"468 108 CURVE SMOOTH",
"462 102 OFFCURVE",
"460 97 OFFCURVE",
"460 89 CURVE SMOOTH",
"460 11 LINE SMOOTH",
"460 3 OFFCURVE",
"462 -2 OFFCURVE",
"468 -8 CURVE SMOOTH",
"473 -13 OFFCURVE",
"478 -15 OFFCURVE",
"486 -15 CURVE SMOOTH",
"764 -15 LINE SMOOTH",
"772 -15 OFFCURVE",
"777 -13 OFFCURVE",
"783 -8 CURVE SMOOTH",
"788 -2 OFFCURVE",
"790 3 OFFCURVE",
"790 11 CURVE SMOOTH",
"790 89 LINE SMOOTH",
"790 97 OFFCURVE",
"788 102 OFFCURVE",
"783 108 CURVE SMOOTH",
"777 113 OFFCURVE",
"772 115 OFFCURVE",
"764 115 CURVE SMOOTH",
"740 115 LINE",
"740 585 LINE",
"764 585 LINE SMOOTH",
"772 585 OFFCURVE",
"777 587 OFFCURVE",
"783 593 CURVE SMOOTH",
"788 598 OFFCURVE",
"790 603 OFFCURVE",
"790 611 CURVE SMOOTH",
"790 689 LINE SMOOTH",
"790 697 OFFCURVE",
"788 702 OFFCURVE",
"783 708 CURVE SMOOTH",
"777 713 OFFCURVE",
"772 715 OFFCURVE",
"764 715 CURVE SMOOTH",
"486 715 LINE SMOOTH",
"478 715 OFFCURVE",
"473 713 OFFCURVE",
"468 708 CURVE SMOOTH",
"462 702 OFFCURVE",
"460 697 OFFCURVE",
"460 689 CURVE SMOOTH",
"460 611 LINE SMOOTH",
"460 603 OFFCURVE",
"462 598 OFFCURVE",
"468 593 CURVE SMOOTH",
"473 587 OFFCURVE",
"478 585 OFFCURVE",
"486 585 CURVE SMOOTH",
"510 585 LINE",
"510 415 LINE",
"310 415 LINE",
"310 585 LINE",
"334 585 LINE SMOOTH",
"342 585 OFFCURVE",
"347 587 OFFCURVE",
"353 593 CURVE SMOOTH",
"358 598 OFFCURVE",
"360 603 OFFCURVE",
"360 611 CURVE SMOOTH",
"360 689 LINE SMOOTH",
"360 697 OFFCURVE",
"358 702 OFFCURVE",
"353 708 CURVE SMOOTH",
"348 714 OFFCURVE",
"342 715 OFFCURVE",
"334 715 CURVE SMOOTH",
"56 715 LINE SMOOTH",
"48 715 OFFCURVE",
"43 713 OFFCURVE",
"38 708 CURVE SMOOTH",
"32 702 OFFCURVE",
"30 697 OFFCURVE",
"30 689 CURVE SMOOTH",
"30 611 LINE SMOOTH",
"30 603 OFFCURVE",
"32 598 OFFCURVE",
"38 593 CURVE SMOOTH",
"44 588 OFFCURVE",
"48 585 OFFCURVE",
"56 585 CURVE SMOOTH",
"80 585 LINE",
"80 115 LINE",
"56 115 LINE SMOOTH",
"48 115 OFFCURVE",
"43 113 OFFCURVE",
"38 108 CURVE SMOOTH",
"32 102 OFFCURVE",
"30 97 OFFCURVE",
"30 89 CURVE SMOOTH",
"30 11 LINE SMOOTH",
"30 3 OFFCURVE",
"32 -2 OFFCURVE",
"38 -8 CURVE SMOOTH",
"43 -13 OFFCURVE",
"48 -15 OFFCURVE",
"56 -15 CURVE SMOOTH"
);
},
{
closed = 1;
nodes = (
"60 85 LINE",
"84 85 LINE SMOOTH",
"92 85 OFFCURVE",
"97 87 OFFCURVE",
"103 93 CURVE SMOOTH",
"108 98 OFFCURVE",
"110 103 OFFCURVE",
"110 111 CURVE SMOOTH",
"110 589 LINE SMOOTH",
"110 597 OFFCURVE",
"108 602 OFFCURVE",
"103 608 CURVE SMOOTH",
"98 614 OFFCURVE",
"92 615 OFFCURVE",
"84 615 CURVE SMOOTH",
"60 615 LINE",
"60 685 LINE",
"330 685 LINE",
"330 615 LINE",
"306 615 LINE SMOOTH",
"298 615 OFFCURVE",
"293 613 OFFCURVE",
"288 608 CURVE SMOOTH",
"282 602 OFFCURVE",
"280 597 OFFCURVE",
"280 589 CURVE SMOOTH",
"280 411 LINE SMOOTH",
"280 403 OFFCURVE",
"282 398 OFFCURVE",
"288 393 CURVE SMOOTH",
"294 388 OFFCURVE",
"298 385 OFFCURVE",
"306 385 CURVE SMOOTH",
"514 385 LINE SMOOTH",
"522 385 OFFCURVE",
"527 387 OFFCURVE",
"533 393 CURVE SMOOTH",
"538 398 OFFCURVE",
"540 403 OFFCURVE",
"540 411 CURVE SMOOTH",
"540 589 LINE SMOOTH",
"540 597 OFFCURVE",
"538 602 OFFCURVE",
"533 608 CURVE SMOOTH",
"527 613 OFFCURVE",
"522 615 OFFCURVE",
"514 615 CURVE SMOOTH",
"490 615 LINE",
"490 685 LINE",
"760 685 LINE",
"760 615 LINE",
"736 615 LINE SMOOTH",
"728 615 OFFCURVE",
"723 613 OFFCURVE",
"718 608 CURVE SMOOTH",
"712 602 OFFCURVE",
"710 597 OFFCURVE",
"710 589 CURVE SMOOTH",
"710 111 LINE SMOOTH",
"710 103 OFFCURVE",
"712 98 OFFCURVE",
"718 93 CURVE SMOOTH",
"723 87 OFFCURVE",
"728 85 OFFCURVE",
"736 85 CURVE SMOOTH",
"760 85 LINE",
"760 15 LINE",
"490 15 LINE",
"490 85 LINE",
"514 85 LINE SMOOTH",
"522 85 OFFCURVE",
"527 87 OFFCURVE",
"533 93 CURVE SMOOTH",
"538 98 OFFCURVE",
"540 103 OFFCURVE",
"540 111 CURVE SMOOTH",
"540 289 LINE SMOOTH",
"540 297 OFFCURVE",
"538 302 OFFCURVE",
"533 308 CURVE SMOOTH",
"527 313 OFFCURVE",
"522 315 OFFCURVE",
"514 315 CURVE SMOOTH",
"306 315 LINE SMOOTH",
"298 315 OFFCURVE",
"293 313 OFFCURVE",
"288 308 CURVE SMOOTH",
"282 302 OFFCURVE",
"280 297 OFFCURVE",
"280 289 CURVE SMOOTH",
"280 111 LINE SMOOTH",
"280 103 OFFCURVE",
"282 98 OFFCURVE",
"288 93 CURVE SMOOTH",
"294 88 OFFCURVE",
"298 85 OFFCURVE",
"306 85 CURVE SMOOTH",
"330 85 LINE",
"330 15 LINE",
"60 15 LINE"
);
}
);
width = 820;
},
{
associatedMasterId = "90EC08FA-78FA-4D06-9A9B-D8A14CBAAFF5";
layerId = "291F07F7-509D-4B56-9916-7574BF719C64";
name = path;
paths = (
{
closed = 1;
nodes = (
"300 0 LINE",
"300 100 LINE",
"250 100 LINE",
"250 300 LINE",
"450 300 LINE",
"450 100 LINE",
"400 100 LINE",
"400 0 LINE",
"700 0 LINE",
"700 100 LINE",
"650 100 LINE",
"650 600 LINE",
"700 600 LINE",
"700 700 LINE",
"400 700 LINE",
"400 600 LINE",
"450 600 LINE",
"450 400 LINE",
"250 400 LINE",
"250 600 LINE",
"300 600 LINE",
"300 700 LINE",
"0 700 LINE",
"0 600 LINE",
"50 600 LINE",
"50 100 LINE",
"0 100 LINE",
"0 0 LINE"
);
}
);
width = 700;
},
{
associatedMasterId = "90EC08FA-78FA-4D06-9A9B-D8A14CBAAFF5";
layerId = "425E66CE-653D-4F7A-8769-1B72A95A5955";
name = base;
paths = (
{
closed = 1;
nodes = (
"0 600 LINE",
"300 600 LINE",
"300 700 LINE",
"0 700 LINE"
);
},
{
closed = 1;
nodes = (
"0 0 LINE",
"300 0 LINE",
"300 100 LINE",
"0 100 LINE"
);
},
{
closed = 1;
nodes = (
"250 46 LINE",
"250 646 LINE",
"50 646 LINE",
"50 46 LINE"
);
},
{
closed = 1;
nodes = (
"100 300 LINE",
"610 300 LINE",
"610 400 LINE",
"100 400 LINE"
);
},
{
closed = 1;
nodes = (
"650 46 LINE",
"650 646 LINE",
"450 646 LINE",
"450 46 LINE"
);
},
{
closed = 1;
nodes = (
"400 0 LINE",
"700 0 LINE",
"700 100 LINE",
"400 100 LINE"
);
},
{
closed = 1;
nodes = (
"400 600 LINE",
"700 600 LINE",
"700 700 LINE",
"400 700 LINE"
);
}
);
width = 700;
}
);
unicode = 0048;
},
{
color = 4;
glyphname = I;
lastChange = "2018-12-09 10:56:13 +0000";
layers = (
{
layerId = "90EC08FA-78FA-4D06-9A9B-D8A14CBAAFF5";
paths = (
{
closed = 1;
nodes = (
"339 -15 LINE SMOOTH",
"347 -15 OFFCURVE",
"352 -13 OFFCURVE",
"358 -8 CURVE SMOOTH",
"363 -2 OFFCURVE",
"365 3 OFFCURVE",
"365 11 CURVE SMOOTH",
"365 89 LINE SMOOTH",
"365 97 OFFCURVE",
"363 102 OFFCURVE",
"358 108 CURVE SMOOTH",
"352 113 OFFCURVE",
"347 115 OFFCURVE",
"339 115 CURVE SMOOTH",
"315 115 LINE",
"315 585 LINE",
"339 585 LINE SMOOTH",
"347 585 OFFCURVE",
"352 587 OFFCURVE",
"358 593 CURVE SMOOTH",
"363 598 OFFCURVE",
"365 603 OFFCURVE",
"365 611 CURVE SMOOTH",
"365 689 LINE SMOOTH",
"365 697 OFFCURVE",
"363 702 OFFCURVE",
"358 708 CURVE SMOOTH",
"352 713 OFFCURVE",
"347 715 OFFCURVE",
"339 715 CURVE SMOOTH",
"61 715 LINE SMOOTH",
"53 715 OFFCURVE",
"48 713 OFFCURVE",
"43 708 CURVE SMOOTH",
"37 702 OFFCURVE",
"35 697 OFFCURVE",
"35 689 CURVE SMOOTH",
"35 611 LINE SMOOTH",
"35 603 OFFCURVE",
"37 598 OFFCURVE",
"43 593 CURVE SMOOTH",
"48 587 OFFCURVE",
"53 585 OFFCURVE",
"61 585 CURVE SMOOTH",
"85 585 LINE",
"85 115 LINE",
"61 115 LINE SMOOTH",
"53 115 OFFCURVE",
"48 113 OFFCURVE",
"43 108 CURVE SMOOTH",
"37 102 OFFCURVE",
"35 97 OFFCURVE",
"35 89 CURVE SMOOTH",
"35 11 LINE SMOOTH",
"35 3 OFFCURVE",
"37 -2 OFFCURVE",
"43 -8 CURVE SMOOTH",
"48 -13 OFFCURVE",
"53 -15 OFFCURVE",
"61 -15 CURVE SMOOTH"
);
},
{
closed = 1;
nodes = (
"65 85 LINE",
"89 85 LINE SMOOTH",
"97 85 OFFCURVE",
"102 87 OFFCURVE",
"108 93 CURVE SMOOTH",
"113 98 OFFCURVE",
"115 103 OFFCURVE",
"115 111 CURVE SMOOTH",
"115 589 LINE SMOOTH",
"115 597 OFFCURVE",
"113 602 OFFCURVE",
"108 608 CURVE SMOOTH",
"102 613 OFFCURVE",
"97 615 OFFCURVE",
"89 615 CURVE SMOOTH",
"65 615 LINE",
"65 685 LINE",
"335 685 LINE",
"335 615 LINE",
"311 615 LINE SMOOTH",
"303 615 OFFCURVE",
"298 613 OFFCURVE",
"293 608 CURVE SMOOTH",
"287 602 OFFCURVE",
"285 597 OFFCURVE",
"285 589 CURVE SMOOTH",
"285 111 LINE SMOOTH",
"285 103 OFFCURVE",
"287 98 OFFCURVE",
"293 93 CURVE SMOOTH",
"298 87 OFFCURVE",
"303 85 OFFCURVE",
"311 85 CURVE SMOOTH",
"335 85 LINE",
"335 15 LINE",
"65 15 LINE"
);
}
);
width = 400;
},
{
associatedMasterId = "90EC08FA-78FA-4D06-9A9B-D8A14CBAAFF5";
layerId = "1DB7075C-925C-42A1-B4EA-D75AB00D7271";
name = path;
paths = (
{
closed = 1;
nodes = (
"335 100 LINE",
"285 100 LINE",
"285 600 LINE",
"335 600 LINE",
"335 700 LINE",
"35 700 LINE",
"35 600 LINE",
"85 600 LINE",
"85 100 LINE",
"35 100 LINE",
"35 0 LINE",
"335 0 LINE"
);
}
);
width = 370;
}
);
unicode = 0049;
},
{
color = 4;
glyphname = J;
lastChange = "2018-12-09 10:56:36 +0000";
layers = (
{
layerId = "90EC08FA-78FA-4D06-9A9B-D8A14CBAAFF5";
paths = (
{
closed = 1;
nodes = (
"140 -15 LINE SMOOTH",
"368 -15 OFFCURVE",
"443 60 OFFCURVE",
"443 290 CURVE SMOOTH",
"443 585 LINE",
"467 585 LINE SMOOTH",
"475 585 OFFCURVE",
"480 587 OFFCURVE",
"486 593 CURVE SMOOTH",
"491 598 OFFCURVE",
"493 603 OFFCURVE",
"493 611 CURVE SMOOTH",
"493 689 LINE SMOOTH",
"493 697 OFFCURVE",
"491 702 OFFCURVE",
"486 708 CURVE SMOOTH",
"480 713 OFFCURVE",
"475 715 OFFCURVE",
"467 715 CURVE SMOOTH",
"189 715 LINE SMOOTH",
"181 715 OFFCURVE",
"176 713 OFFCURVE",
"171 708 CURVE SMOOTH",
"165 702 OFFCURVE",
"163 697 OFFCURVE",
"163 689 CURVE SMOOTH",
"163 611 LINE SMOOTH",
"163 603 OFFCURVE",
"165 598 OFFCURVE",
"171 593 CURVE SMOOTH",
"176 587 OFFCURVE",
"181 585 OFFCURVE",
"189 585 CURVE SMOOTH",
"213 585 LINE",
"213 290 LINE SMOOTH",
"213 161 OFFCURVE",
"183 115 OFFCURVE",
"104 115 CURVE SMOOTH",
"56 115 LINE SMOOTH",
"48 115 OFFCURVE",
"43 113 OFFCURVE",
"38 108 CURVE SMOOTH",
"32 102 OFFCURVE",
"30 97 OFFCURVE",
"30 89 CURVE SMOOTH",
"30 11 LINE SMOOTH",
"30 3 OFFCURVE",
"32 -2 OFFCURVE",
"38 -8 CURVE SMOOTH",
"43 -13 OFFCURVE",
"48 -15 OFFCURVE",
"56 -15 CURVE SMOOTH"
);
},
{
closed = 1;
nodes = (
"60 85 LINE",
"104 85 LINE SMOOTH",
"203 85 OFFCURVE",
"243 146 OFFCURVE",
"243 290 CURVE SMOOTH",
"243 589 LINE SMOOTH",
"243 597 OFFCURVE",
"241 602 OFFCURVE",
"236 608 CURVE SMOOTH",
"230 613 OFFCURVE",
"225 615 OFFCURVE",
"217 615 CURVE SMOOTH",
"193 615 LINE",
"193 685 LINE",
"463 685 LINE",
"463 615 LINE",
"439 615 LINE SMOOTH",
"431 615 OFFCURVE",
"426 613 OFFCURVE",
"421 608 CURVE SMOOTH",
"415 602 OFFCURVE",
"413 597 OFFCURVE",
"413 589 CURVE SMOOTH",
"413 290 LINE SMOOTH",
"413 77 OFFCURVE",
"352 15 OFFCURVE",
"140 15 CURVE SMOOTH",
"60 15 LINE"
);
}
);
width = 523;
},
{
associatedMasterId = "90EC08FA-78FA-4D06-9A9B-D8A14CBAAFF5";
layerId = "57C6991C-F4FE-49DF-8DBD-411BFA51BFBC";
name = base;
width = 600;
},
{
associatedMasterId = "90EC08FA-78FA-4D06-9A9B-D8A14CBAAFF5";
layerId = "DFC76325-42DB-468D-A839-2ED6A240472B";
name = path;
paths = (
{
closed = 1;
nodes = (
"-30 300 LINE",
"-30 119 OFFCURVE",
"11 0 OFFCURVE",
"219 0 CURVE SMOOTH",
"429 0 OFFCURVE",
"507 85 OFFCURVE",
"507 290 CURVE SMOOTH",
"507 600 LINE",
"557 600 LINE",
"557 700 LINE",
"257 700 LINE",
"257 600 LINE",
"307 600 LINE",
"307 290 LINE SMOOTH",
"307 157 OFFCURVE",
"274 100 OFFCURVE",
"183 100 CURVE SMOOTH",
"121 100 OFFCURVE",
"78 178 OFFCURVE",
"78 300 CURVE"
);
}
);
width = 587;
},
{
associatedMasterId = "90EC08FA-78FA-4D06-9A9B-D8A14CBAAFF5";
layerId = "5278FD63-987C-4720-B65F-7B4EEABB5CEF";
name = "path-2";
paths = (
{
closed = 1;
nodes = (
"0 0 LINE",
"95 0 LINE",
"322 0 OFFCURVE",
"383 76 OFFCURVE",
"383 290 CURVE SMOOTH",
"383 600 LINE",
"433 600 LINE",
"433 700 LINE",
"133 700 LINE",
"133 600 LINE",
"183 600 LINE",
"183 290 LINE SMOOTH",
"183 157 OFFCURVE",
"150 100 OFFCURVE",
"59 100 CURVE",
"0 100 LINE"
);
}
);
width = 463;
}
);
unicode = 004A;
},
{
color = 4;
glyphname = K;
lastChange = "2018-12-09 15:03:20 +0000";
layers = (
{
layerId = "90EC08FA-78FA-4D06-9A9B-D8A14CBAAFF5";
paths = (
{
closed = 1;
nodes = (
"334 -15 LINE SMOOTH",
"342 -15 OFFCURVE",
"347 -13 OFFCURVE",
"353 -8 CURVE SMOOTH",
"358 -2 OFFCURVE",
"360 3 OFFCURVE",
"360 11 CURVE SMOOTH",
"360 89 LINE SMOOTH",
"360 97 OFFCURVE",
"358 102 OFFCURVE",
"353 108 CURVE SMOOTH",
"347 113 OFFCURVE",
"342 115 OFFCURVE",
"334 115 CURVE SMOOTH",
"310 115 LINE",
"310 266 LINE",
"349 299 LINE",
"536 1 LINE SMOOTH",
"540 -5 OFFCURVE",
"543 -8 OFFCURVE",
"547 -11 CURVE SMOOTH",
"552 -14 OFFCURVE",
"557 -15 OFFCURVE",
"564 -15 CURVE SMOOTH",
"743 -15 LINE SMOOTH",
"751 -15 OFFCURVE",
"756 -13 OFFCURVE",
"762 -8 CURVE SMOOTH",
"768 -3 OFFCURVE",
"769 3 OFFCURVE",
"769 11 CURVE SMOOTH",
"769 88 LINE SMOOTH",
"769 96 OFFCURVE",
"767 101 OFFCURVE",
"762 107 CURVE SMOOTH",
"757 113 OFFCURVE",
"751 114 OFFCURVE",
"743 114 CURVE SMOOTH",
"707 114 LINE",
"509 433 LINE",
"689 585 LINE",
"734 585 LINE SMOOTH",
"742 585 OFFCURVE",
"747 587 OFFCURVE",
"753 593 CURVE SMOOTH",
"758 598 OFFCURVE",
"760 603 OFFCURVE",
"760 611 CURVE SMOOTH",
"760 689 LINE SMOOTH",
"760 697 OFFCURVE",
"758 702 OFFCURVE",
"753 708 CURVE SMOOTH",
"747 713 OFFCURVE",
"742 715 OFFCURVE",
"734 715 CURVE SMOOTH",
"466 715 LINE SMOOTH",
"458 715 OFFCURVE",
"453 713 OFFCURVE",
"448 708 CURVE SMOOTH",
"442 702 OFFCURVE",
"440 697 OFFCURVE",
"440 689 CURVE SMOOTH",
"440 611 LINE SMOOTH",
"440 603 OFFCURVE",
"442 598 OFFCURVE",
"448 593 CURVE SMOOTH",
"453 587 OFFCURVE",
"458 585 OFFCURVE",
"466 585 CURVE SMOOTH",
"488 585 LINE",
"310 435 LINE",
"310 585 LINE",
"334 585 LINE SMOOTH",
"342 585 OFFCURVE",
"347 587 OFFCURVE",
"353 593 CURVE SMOOTH",
"358 598 OFFCURVE",
"360 603 OFFCURVE",
"360 611 CURVE SMOOTH",
"360 689 LINE SMOOTH",
"360 697 OFFCURVE",
"358 702 OFFCURVE",
"353 708 CURVE SMOOTH",
"347 713 OFFCURVE",
"342 715 OFFCURVE",
"334 715 CURVE SMOOTH",
"56 715 LINE SMOOTH",
"48 715 OFFCURVE",
"43 713 OFFCURVE",
"38 708 CURVE SMOOTH",
"32 702 OFFCURVE",
"30 697 OFFCURVE",
"30 689 CURVE SMOOTH",
"30 611 LINE SMOOTH",
"30 603 OFFCURVE",
"32 598 OFFCURVE",
"38 593 CURVE SMOOTH",
"43 587 OFFCURVE",
"48 585 OFFCURVE",
"56 585 CURVE SMOOTH",
"80 585 LINE",
"80 115 LINE",
"56 115 LINE SMOOTH",
"48 115 OFFCURVE",
"43 113 OFFCURVE",
"38 108 CURVE SMOOTH",
"32 102 OFFCURVE",
"30 97 OFFCURVE",
"30 89 CURVE SMOOTH",
"30 11 LINE SMOOTH",
"30 3 OFFCURVE",
"32 -2 OFFCURVE",
"38 -8 CURVE SMOOTH",
"43 -13 OFFCURVE",
"48 -15 OFFCURVE",
"56 -15 CURVE SMOOTH"
);
},
{
closed = 1;
nodes = (
"60 85 LINE",
"84 85 LINE SMOOTH",
"92 85 OFFCURVE",
"97 87 OFFCURVE",
"103 93 CURVE SMOOTH",
"108 98 OFFCURVE",
"110 103 OFFCURVE",
"110 111 CURVE SMOOTH",
"110 589 LINE SMOOTH",
"110 597 OFFCURVE",
"108 602 OFFCURVE",
"103 608 CURVE SMOOTH",
"97 613 OFFCURVE",
"92 615 OFFCURVE",
"84 615 CURVE SMOOTH",
"60 615 LINE",
"60 685 LINE",
"330 685 LINE",
"330 615 LINE",
"306 615 LINE SMOOTH",
"298 615 OFFCURVE",
"293 613 OFFCURVE",
"288 608 CURVE SMOOTH",
"282 602 OFFCURVE",
"280 597 OFFCURVE",
"280 589 CURVE SMOOTH",
"280 415 LINE SMOOTH",
"280 407 OFFCURVE",
"283 401 OFFCURVE",
"291 398 CURVE SMOOTH",
"293 397 LINE SMOOTH",
"301 393 OFFCURVE",
"308 394 OFFCURVE",
"314 399 CURVE SMOOTH",
"529 580 LINE SMOOTH",
"536 586 OFFCURVE",
"538 592 OFFCURVE",
"535 601 CURVE SMOOTH",
"534 603 LINE SMOOTH",
"531 611 OFFCURVE",
"525 615 OFFCURVE",
"517 615 CURVE SMOOTH",
"470 615 LINE",
"470 685 LINE",
"730 685 LINE",
"730 615 LINE",
"693 615 LINE SMOOTH",
"686 615 OFFCURVE",
"683 615 OFFCURVE",
"679 613 CURVE SMOOTH",
"675 612 OFFCURVE",
"672 610 OFFCURVE",
"667 605 CURVE SMOOTH",
"488 455 LINE SMOOTH",
"482 450 OFFCURVE",
"479 445 OFFCURVE",
"478 439 CURVE SMOOTH",
"477 432 OFFCURVE",
"478 427 OFFCURVE",
"482 420 CURVE SMOOTH",
"681 100 LINE SMOOTH",
"685 94 OFFCURVE",
"687 91 OFFCURVE",
"692 88 CURVE SMOOTH",
"697 85 OFFCURVE",
"701 84 OFFCURVE",
"709 84 CURVE SMOOTH",
"739 84 LINE",
"739 15 LINE",
"563 15 LINE",
"372 320 LINE SMOOTH",
"368 327 OFFCURVE",
"363 330 OFFCURVE",
"355 331 CURVE SMOOTH",
"355 332 LINE SMOOTH",
"347 333 OFFCURVE",
"341 331 OFFCURVE",
"335 326 CURVE SMOOTH",
"293 291 LINE SMOOTH",
"287 286 OFFCURVE",
"285 283 OFFCURVE",
"283 279 CURVE SMOOTH",
"281 275 OFFCURVE",
"280 270 OFFCURVE",
"280 263 CURVE SMOOTH",
"280 111 LINE SMOOTH",
"280 103 OFFCURVE",
"282 98 OFFCURVE",
"288 93 CURVE SMOOTH",
"293 87 OFFCURVE",
"298 85 OFFCURVE",
"306 85 CURVE SMOOTH",
"330 85 LINE",
"330 15 LINE",
"60 15 LINE"
);
}
);
width = 799;
},
{
associatedMasterId = "90EC08FA-78FA-4D06-9A9B-D8A14CBAAFF5";
layerId = "E0324327-0045-49B0-AF57-CDF624A998E9";
name = path;
paths = (
{
closed = 1;
nodes = (
"300 0 LINE",
"300 100 LINE",
"250 100 LINE",
"250 273 LINE",
"308.388 322.106 LINE",
"509 0 LINE",
"709 0 LINE",
"709 99 LINE",
"654 99 LINE",
"444.585 436.651 LINE",
"638.811 600 LINE",
"700 600 LINE",
"700 700 LINE",
"410 700 LINE",
"410 600 LINE",
"484.445 600 LINE",
"250 402.826 LINE",
"250 600 LINE",
"300 600 LINE",
"300 700 LINE",
"0 700 LINE",
"0 600 LINE",
"50 600 LINE",
"50 100 LINE",
"0 100 LINE",
"0 0 LINE"
);
}
);
visible = 1;
width = 709;
},
{
associatedMasterId = "90EC08FA-78FA-4D06-9A9B-D8A14CBAAFF5";
layerId = "F6489D1B-D5B8-4DB4-A181-4464769F3619";
name = base;
paths = (
{
closed = 1;
nodes = (
"0 600 LINE",
"300 600 LINE",
"300 700 LINE",
"0 700 LINE"
);
},
{
closed = 1;
nodes = (
"0 0 LINE",
"300 0 LINE",
"300 100 LINE",
"0 100 LINE"
);
},
{
closed = 1;
nodes = (
"250 46 LINE",
"250 646 LINE",
"50 646 LINE",
"50 46 LINE"
);
},
{
closed = 1;
nodes = (
"250 273 LINE",
"640 601 LINE",
"576 677 LINE",
"186 349 LINE"
);
},
{
closed = 1;
nodes = (
"410 600 LINE",
"700 600 LINE",
"700 700 LINE",
"410 700 LINE"
);
},
{
closed = 1;
nodes = (
"489 99 LINE",
"489 0 LINE",
"689 0 LINE",
"689 99 LINE"
);
},
{
closed = 1;
nodes = (
"272 387 LINE",
"489 0 LINE",
"689 0 LINE",
"422 477 LINE"
);
}
);
width = 700;
}
);
unicode = 004B;
},
{
color = 4;
glyphname = L;
lastChange = "2018-12-09 11:00:14 +0000";
layers = (
{
layerId = "90EC08FA-78FA-4D06-9A9B-D8A14CBAAFF5";
paths = (
{
closed = 1;
nodes = (
"639 -15 LINE SMOOTH",
"647 -15 OFFCURVE",
"652 -13 OFFCURVE",
"658 -8 CURVE SMOOTH",
"663 -2 OFFCURVE",
"665 3 OFFCURVE",
"665 11 CURVE SMOOTH",
"665 139 LINE SMOOTH",
"665 147 OFFCURVE",
"663 152 OFFCURVE",
"658 158 CURVE SMOOTH",
"652 163 OFFCURVE",
"647 165 OFFCURVE",
"639 165 CURVE SMOOTH",
"561 165 LINE SMOOTH",
"553 165 OFFCURVE",
"548 163 OFFCURVE",
"543 158 CURVE SMOOTH",
"537 152 OFFCURVE",
"535 147 OFFCURVE",
"535 139 CURVE SMOOTH",
"535 115 LINE",
"315 115 LINE",
"315 585 LINE",
"339 585 LINE SMOOTH",
"347 585 OFFCURVE",
"352 587 OFFCURVE",
"358 593 CURVE SMOOTH",
"363 598 OFFCURVE",
"365 603 OFFCURVE",
"365 611 CURVE SMOOTH",
"365 689 LINE SMOOTH",
"365 697 OFFCURVE",
"363 702 OFFCURVE",
"358 708 CURVE SMOOTH",
"352 713 OFFCURVE",
"347 715 OFFCURVE",
"339 715 CURVE SMOOTH",
"61 715 LINE SMOOTH",
"53 715 OFFCURVE",
"48 713 OFFCURVE",
"43 708 CURVE SMOOTH",
"37 702 OFFCURVE",
"35 697 OFFCURVE",
"35 689 CURVE SMOOTH",
"35 611 LINE SMOOTH",
"35 603 OFFCURVE",
"37 598 OFFCURVE",
"43 593 CURVE SMOOTH",
"48 587 OFFCURVE",
"53 585 OFFCURVE",
"61 585 CURVE SMOOTH",
"85 585 LINE",
"85 115 LINE",
"61 115 LINE SMOOTH",
"53 115 OFFCURVE",
"48 113 OFFCURVE",
"43 108 CURVE SMOOTH",
"37 102 OFFCURVE",
"35 97 OFFCURVE",
"35 89 CURVE SMOOTH",
"35 11 LINE SMOOTH",
"35 3 OFFCURVE",
"37 -2 OFFCURVE",
"43 -8 CURVE SMOOTH",
"48 -13 OFFCURVE",
"53 -15 OFFCURVE",
"61 -15 CURVE SMOOTH"
);
},
{
closed = 1;
nodes = (
"65 85 LINE",
"89 85 LINE SMOOTH",
"97 85 OFFCURVE",
"102 87 OFFCURVE",
"108 93 CURVE SMOOTH",
"113 98 OFFCURVE",
"115 103 OFFCURVE",
"115 111 CURVE SMOOTH",
"115 589 LINE SMOOTH",
"115 597 OFFCURVE",
"113 602 OFFCURVE",
"108 608 CURVE SMOOTH",
"102 613 OFFCURVE",
"97 615 OFFCURVE",
"89 615 CURVE SMOOTH",
"65 615 LINE",
"65 685 LINE",
"335 685 LINE",
"335 615 LINE",
"311 615 LINE SMOOTH",
"303 615 OFFCURVE",
"298 613 OFFCURVE",
"293 608 CURVE SMOOTH",
"287 602 OFFCURVE",
"285 597 OFFCURVE",
"285 589 CURVE SMOOTH",
"285 111 LINE SMOOTH",
"285 103 OFFCURVE",
"287 98 OFFCURVE",
"293 93 CURVE SMOOTH",
"298 87 OFFCURVE",
"303 85 OFFCURVE",
"311 85 CURVE SMOOTH",
"539 85 LINE SMOOTH",
"547 85 OFFCURVE",
"552 87 OFFCURVE",
"558 93 CURVE SMOOTH",
"563 98 OFFCURVE",
"565 103 OFFCURVE",
"565 111 CURVE SMOOTH",
"565 135 LINE",
"635 135 LINE",
"635 15 LINE",
"65 15 LINE"
);
}
);
width = 700;
},
{
associatedMasterId = "90EC08FA-78FA-4D06-9A9B-D8A14CBAAFF5";
layerId = "DF57C0B5-054C-4ADF-9020-A7196C3D4650";
name = path;
paths = (
{
closed = 1;
nodes = (
"600 0 LINE",
"600 150 LINE",
"500 150 LINE",
"500 100 LINE",
"250 100 LINE",
"250 600 LINE",
"300 600 LINE",
"300 700 LINE",
"0 700 LINE",
"0 600 LINE",
"50 600 LINE",
"50 100 LINE",
"0 100 LINE",
"0 0 LINE"
);
}
);
width = 600;
}
);
unicode = 004C;
},
{
color = 1;
glyphname = M;
lastChange = "2018-12-09 15:09:49 +0000";
layers = (
{
layerId = "90EC08FA-78FA-4D06-9A9B-D8A14CBAAFF5";
paths = (
{
closed = 1;
nodes = (
"334 -15 LINE SMOOTH",
"342 -15 OFFCURVE",
"347 -13 OFFCURVE",
"353 -8 CURVE SMOOTH",
"358 -2 OFFCURVE",
"360 3 OFFCURVE",
"360 11 CURVE SMOOTH",
"360 89 LINE SMOOTH",
"360 97 OFFCURVE",
"358 102 OFFCURVE",
"353 108 CURVE SMOOTH",
"347 113 OFFCURVE",
"342 115 OFFCURVE",
"334 115 CURVE SMOOTH",
"310 115 LINE",
"310 437 LINE",
"443 0 LINE SMOOTH",
"445 -8 OFFCURVE",
"450 -10 OFFCURVE",
"455 -12 CURVE SMOOTH",
"460 -14 OFFCURVE",
"464 -16 OFFCURVE",
"471 -16 CURVE SMOOTH",
"606 -16 LINE SMOOTH",
"613 -16 OFFCURVE",
"618 -15 OFFCURVE",
"622 -13 CURVE SMOOTH",
"627 -10 OFFCURVE",
"632 -8 OFFCURVE",
"634 -1 CURVE SMOOTH",
"770 429 LINE",
"770 115 LINE",
"746 115 LINE SMOOTH",
"738 115 OFFCURVE",
"733 113 OFFCURVE",
"728 108 CURVE SMOOTH",
"722 102 OFFCURVE",
"720 97 OFFCURVE",
"720 89 CURVE SMOOTH",
"720 11 LINE SMOOTH",
"720 3 OFFCURVE",
"722 -2 OFFCURVE",
"728 -8 CURVE SMOOTH",
"733 -13 OFFCURVE",
"738 -15 OFFCURVE",
"746 -15 CURVE SMOOTH",
"1024 -15 LINE SMOOTH",
"1032 -15 OFFCURVE",
"1037 -13 OFFCURVE",
"1043 -8 CURVE SMOOTH",
"1048 -2 OFFCURVE",
"1050 3 OFFCURVE",
"1050 11 CURVE SMOOTH",
"1050 89 LINE SMOOTH",
"1050 97 OFFCURVE",
"1048 102 OFFCURVE",
"1043 108 CURVE SMOOTH",
"1037 113 OFFCURVE",
"1032 115 OFFCURVE",
"1024 115 CURVE SMOOTH",
"1000 115 LINE",
"1000 585 LINE",
"1024 585 LINE SMOOTH",
"1032 585 OFFCURVE",
"1037 587 OFFCURVE",
"1043 593 CURVE SMOOTH",
"1048 598 OFFCURVE",
"1050 603 OFFCURVE",
"1050 611 CURVE SMOOTH",
"1050 689 LINE SMOOTH",
"1050 697 OFFCURVE",
"1048 702 OFFCURVE",
"1043 708 CURVE SMOOTH",
"1037 713 OFFCURVE",
"1032 715 OFFCURVE",
"1024 715 CURVE SMOOTH",
"705 715 LINE SMOOTH",
"698 715 OFFCURVE",
"693 714 OFFCURVE",
"689 712 CURVE SMOOTH",
"684 709 OFFCURVE",
"679 706 OFFCURVE",
"677 700 CURVE SMOOTH",
"540 241 LINE",
"408 700 LINE SMOOTH",
"406 706 OFFCURVE",
"401 709 OFFCURVE",
"396 712 CURVE SMOOTH",
"392 714 OFFCURVE",
"387 715 OFFCURVE",
"380 715 CURVE SMOOTH",
"56 715 LINE SMOOTH",
"48 715 OFFCURVE",
"43 713 OFFCURVE",
"38 708 CURVE SMOOTH",
"32 702 OFFCURVE",
"30 697 OFFCURVE",
"30 689 CURVE SMOOTH",
"30 611 LINE SMOOTH",
"30 603 OFFCURVE",
"32 598 OFFCURVE",
"38 593 CURVE SMOOTH",
"43 587 OFFCURVE",
"48 585 OFFCURVE",
"56 585 CURVE SMOOTH",
"80 585 LINE",
"80 115 LINE",
"56 115 LINE SMOOTH",
"48 115 OFFCURVE",
"43 113 OFFCURVE",
"38 108 CURVE SMOOTH",
"32 102 OFFCURVE",
"30 97 OFFCURVE",
"30 89 CURVE SMOOTH",
"30 11 LINE SMOOTH",
"30 3 OFFCURVE",
"32 -2 OFFCURVE",
"38 -8 CURVE SMOOTH",
"43 -13 OFFCURVE",
"48 -15 OFFCURVE",
"56 -15 CURVE SMOOTH"
);
},
{
closed = 1;
nodes = (
"60 85 LINE",
"84 85 LINE SMOOTH",
"92 85 OFFCURVE",
"97 87 OFFCURVE",
"103 93 CURVE SMOOTH",
"108 98 OFFCURVE",
"110 103 OFFCURVE",
"110 111 CURVE SMOOTH",
"110 589 LINE SMOOTH",
"110 597 OFFCURVE",
"108 602 OFFCURVE",
"103 608 CURVE SMOOTH",
"97 613 OFFCURVE",
"92 615 OFFCURVE",
"84 615 CURVE SMOOTH",
"60 615 LINE",
"60 685 LINE",
"382 685 LINE",
"521 215 LINE SMOOTH",
"523 208 OFFCURVE",
"531 206 OFFCURVE",
"539 206 CURVE SMOOTH",
"541 206 LINE SMOOTH",
"549 206 OFFCURVE",
"556 207 OFFCURVE",
"559 215 CURVE SMOOTH",
"703 685 LINE",
"1020 685 LINE",
"1020 615 LINE",
"996 615 LINE SMOOTH",
"988 615 OFFCURVE",
"983 613 OFFCURVE",
"978 608 CURVE SMOOTH",
"972 602 OFFCURVE",
"970 597 OFFCURVE",
"970 589 CURVE SMOOTH",
"970 111 LINE SMOOTH",
"970 103 OFFCURVE",
"972 98 OFFCURVE",
"978 93 CURVE SMOOTH",
"983 87 OFFCURVE",
"988 85 OFFCURVE",
"996 85 CURVE SMOOTH",
"1020 85 LINE",
"1020 15 LINE",
"750 15 LINE",
"750 85 LINE",
"774 85 LINE SMOOTH",
"782 85 OFFCURVE",
"787 87 OFFCURVE",
"793 93 CURVE SMOOTH",
"798 98 OFFCURVE",
"800 103 OFFCURVE",
"800 111 CURVE SMOOTH",
"800 466 LINE SMOOTH",
"800 475 OFFCURVE",
"796 483 OFFCURVE",
"787 483 CURVE SMOOTH",
"785 483 LINE SMOOTH",
"776 483 OFFCURVE",
"768 484 OFFCURVE",
"765 476 CURVE SMOOTH",
"608 14 LINE",
"469 14 LINE",
"315 487 LINE SMOOTH",
"313 494 OFFCURVE",
"304 494 OFFCURVE",
"295 494 CURVE SMOOTH",
"293 494 LINE SMOOTH",
"284 494 OFFCURVE",
"280 486 OFFCURVE",
"280 477 CURVE SMOOTH",
"280 111 LINE SMOOTH",
"280 103 OFFCURVE",
"282 98 OFFCURVE",
"288 93 CURVE SMOOTH",
"293 87 OFFCURVE",
"298 85 OFFCURVE",
"306 85 CURVE SMOOTH",
"330 85 LINE",
"330 15 LINE",
"60 15 LINE"
);
}
);
width = 1080;
},
{
associatedMasterId = "90EC08FA-78FA-4D06-9A9B-D8A14CBAAFF5";
guideLines = (
{
position = "{800, 100}";
}
);
layerId = "F61BC705-C206-432C-96B2-75A2746D6FDE";
name = path;
paths = (
{
closed = 1;
nodes = (
"300 0 LINE",
"300 100 LINE",
"250 100 LINE",
"250 510.037 LINE",
"446 100 LINE",
"601 100 LINE",
"800 499.283 LINE",
"800 100 LINE",
"750 100 LINE",
"750 0 LINE",
"1050 0 LINE",
"1050 100 LINE",
"1000 100 LINE",
"1000 600 LINE",
"1050 600 LINE",
"1050 700 LINE",
"770 700 LINE",
"770 696 LINE",
"525 275 LINE",
"285 700 LINE",
"0 700 LINE",
"0 600 LINE",
"50 600 LINE",
"50 100 LINE",
"0 100 LINE",
"0 0 LINE"
);
}
);
visible = 1;
width = 1080;
},
{
associatedMasterId = "90EC08FA-78FA-4D06-9A9B-D8A14CBAAFF5";
layerId = "B6C9BEE7-41D9-49FD-BBE0-9B6691449EEF";
name = base;
paths = (
{
closed = 1;
nodes = (
"0 600 LINE",
"300 600 LINE",
"300 700 LINE",
"0 700 LINE"
);
},
{
closed = 1;
nodes = (
"0 0 LINE",
"300 0 LINE",
"300 100 LINE",
"0 100 LINE"
);
},
{
closed = 1;
nodes = (
"250 46 LINE",
"250 646 LINE",
"50 646 LINE",
"50 46 LINE"
);
},
{
closed = 1;
nodes = (
"1000 46 LINE",
"1000 646 LINE",
"800 646 LINE",
"800 46 LINE"
);
},
{
closed = 1;
nodes = (
"750 0 LINE",
"1050 0 LINE",
"1050 100 LINE",
"750 100 LINE"
);
},
{
closed = 1;
nodes = (
"750 600 LINE",
"1050 600 LINE",
"1050 700 LINE",
"750 700 LINE"
);
},
{
closed = 1;
nodes = (
"601 20 LINE",
"305 700 LINE",
"177 700 LINE",
"446 0 LINE",
"601 0 LINE",
"880 700 LINE",
"752 700 LINE",
"446 20 LINE"
);
}
);
width = 1080;
},
{
associatedMasterId = "90EC08FA-78FA-4D06-9A9B-D8A14CBAAFF5";
layerId = "A0B26CEF-71A6-4FCD-B4C4-C74D89CFB8BB";
name = "Nov 21 18, 14:56";
paths = (
{
closed = 1;
nodes = (
"300 0 LINE",
"300 100 LINE",
"250 100 LINE",
"250 510.037 LINE",
"446 0 LINE",
"601 0 LINE",
"800 499.283 LINE",
"800 100 LINE",
"750 100 LINE",
"750 0 LINE",
"1050 0 LINE",
"1050 100 LINE",
"1000 100 LINE",
"1000 600 LINE",
"1050 600 LINE",
"1050 700 LINE",
"750 700 LINE",
"750 695.556 LINE",
"524.787 195.083 LINE",
"305 700 LINE",
"0 700 LINE",
"0 600 LINE",
"50 600 LINE",
"50 100 LINE",
"0 100 LINE",
"0 0 LINE"
);
}
);
width = 1080;
},
{
associatedMasterId = "90EC08FA-78FA-4D06-9A9B-D8A14CBAAFF5";
guideLines = (
{
position = "{800, 100}";
}
);
layerId = "9840143A-B0A7-4280-9294-D7514AD7C986";
name = "Dec 3 18, 13:56";
paths = (
{
closed = 1;
nodes = (
"310 0 LINE",
"310 100 LINE",
"260 100 LINE",
"260 510 LINE",
"426 240 LINE",
"581 240 LINE",
"750 499 LINE",
"750 100 LINE",
"700 100 LINE",
"700 0 LINE",
"1000 0 LINE",
"1000 100 LINE",
"950 100 LINE",
"950 600 LINE",
"1000 600 LINE",
"1000 700 LINE",
"700 700 LINE",
"505 415 LINE",
"315 700 LINE",
"10 700 LINE",
"10 600 LINE",
"60 600 LINE",
"60 100 LINE",
"10 100 LINE",
"10 0 LINE"
);
}
);
width = 1080;
}
);
unicode = 004D;
},
{
color = 3;
glyphname = N;
lastChange = "2018-12-09 15:12:37 +0000";
layers = (
{
layerId = "90EC08FA-78FA-4D06-9A9B-D8A14CBAAFF5";
paths = (
{
closed = 1;
nodes = (
"334 -15 LINE SMOOTH",
"342 -15 OFFCURVE",
"347 -13 OFFCURVE",
"353 -8 CURVE SMOOTH",
"358 -2 OFFCURVE",
"360 3 OFFCURVE",
"360 11 CURVE SMOOTH",
"360 89 LINE SMOOTH",
"360 97 OFFCURVE",
"358 102 OFFCURVE",
"353 108 CURVE SMOOTH",
"347 113 OFFCURVE",
"342 115 OFFCURVE",
"334 115 CURVE SMOOTH",
"310 115 LINE",
"310 427 LINE",
"543 2 LINE SMOOTH",
"546 -4 OFFCURVE",
"549 -8 OFFCURVE",
"554 -11 CURVE SMOOTH",
"559 -14 OFFCURVE",
"564 -15 OFFCURVE",
"571 -15 CURVE SMOOTH",
"850 -15 LINE SMOOTH",
"858 -15 OFFCURVE",
"863 -13 OFFCURVE",
"869 -8 CURVE SMOOTH",
"875 -3 OFFCURVE",
"876 3 OFFCURVE",
"876 11 CURVE SMOOTH",
"876 89 LINE SMOOTH",
"876 97 OFFCURVE",
"874 102 OFFCURVE",
"869 108 CURVE SMOOTH",
"864 114 OFFCURVE",
"858 115 OFFCURVE",
"850 115 CURVE SMOOTH",
"826 115 LINE",
"826 585 LINE",
"850 585 LINE SMOOTH",
"858 585 OFFCURVE",
"863 587 OFFCURVE",
"869 593 CURVE SMOOTH",
"874 598 OFFCURVE",
"876 603 OFFCURVE",
"876 611 CURVE SMOOTH",
"876 689 LINE SMOOTH",
"876 697 OFFCURVE",
"874 702 OFFCURVE",
"869 708 CURVE SMOOTH",
"864 714 OFFCURVE",
"858 715 OFFCURVE",
"850 715 CURVE SMOOTH",
"572 715 LINE SMOOTH",
"564 715 OFFCURVE",
"559 713 OFFCURVE",
"554 708 CURVE SMOOTH",
"548 702 OFFCURVE",
"546 697 OFFCURVE",
"546 689 CURVE SMOOTH",
"546 611 LINE SMOOTH",
"546 603 OFFCURVE",
"548 598 OFFCURVE",
"554 593 CURVE SMOOTH",
"560 588 OFFCURVE",
"564 585 OFFCURVE",
"572 585 CURVE SMOOTH",
"596 585 LINE",
"596 273 LINE",
"363 698 LINE SMOOTH",
"360 704 OFFCURVE",
"357 708 OFFCURVE",
"352 711 CURVE SMOOTH",
"347 714 OFFCURVE",
"342 715 OFFCURVE",
"335 715 CURVE SMOOTH",
"56 715 LINE SMOOTH",
"48 715 OFFCURVE",
"43 713 OFFCURVE",
"38 708 CURVE SMOOTH",
"32 702 OFFCURVE",
"30 697 OFFCURVE",
"30 689 CURVE SMOOTH",
"30 611 LINE SMOOTH",
"30 603 OFFCURVE",
"32 598 OFFCURVE",
"38 593 CURVE SMOOTH",
"43 587 OFFCURVE",
"48 585 OFFCURVE",
"56 585 CURVE SMOOTH",
"80 585 LINE",
"80 115 LINE",
"56 115 LINE SMOOTH",
"48 115 OFFCURVE",
"43 113 OFFCURVE",
"38 108 CURVE SMOOTH",
"32 102 OFFCURVE",
"30 97 OFFCURVE",
"30 89 CURVE SMOOTH",
"30 11 LINE SMOOTH",
"30 3 OFFCURVE",
"32 -2 OFFCURVE",
"38 -8 CURVE SMOOTH",
"43 -13 OFFCURVE",
"48 -15 OFFCURVE",
"56 -15 CURVE SMOOTH"
);
},
{
closed = 1;
nodes = (
"60 85 LINE",
"84 85 LINE SMOOTH",
"92 85 OFFCURVE",
"97 87 OFFCURVE",
"103 93 CURVE SMOOTH",
"108 98 OFFCURVE",
"110 103 OFFCURVE",
"110 111 CURVE SMOOTH",
"110 589 LINE SMOOTH",
"110 597 OFFCURVE",
"108 602 OFFCURVE",
"103 608 CURVE SMOOTH",
"97 613 OFFCURVE",
"92 615 OFFCURVE",
"84 615 CURVE SMOOTH",
"60 615 LINE",
"60 685 LINE",
"336 685 LINE",
"592 215 LINE SMOOTH",
"597 207 OFFCURVE",
"602 206 OFFCURVE",
"611 206 CURVE SMOOTH",
"613 206 LINE SMOOTH",
"622 206 OFFCURVE",
"626 214 OFFCURVE",
"626 223 CURVE SMOOTH",
"626 589 LINE SMOOTH",
"626 597 OFFCURVE",
"624 602 OFFCURVE",
"619 608 CURVE SMOOTH",
"614 614 OFFCURVE",
"608 615 OFFCURVE",
"600 615 CURVE SMOOTH",
"576 615 LINE",
"576 685 LINE",
"846 685 LINE",
"846 615 LINE",
"822 615 LINE SMOOTH",
"814 615 OFFCURVE",
"809 613 OFFCURVE",
"804 608 CURVE SMOOTH",
"798 602 OFFCURVE",
"796 597 OFFCURVE",
"796 589 CURVE SMOOTH",
"796 111 LINE SMOOTH",
"796 103 OFFCURVE",
"798 98 OFFCURVE",
"804 93 CURVE SMOOTH",
"810 88 OFFCURVE",
"814 85 OFFCURVE",
"822 85 CURVE SMOOTH",
"846 85 LINE",
"846 15 LINE",
"570 15 LINE",
"314 485 LINE SMOOTH",
"309 493 OFFCURVE",
"304 496 OFFCURVE",
"295 494 CURVE SMOOTH",
"293 494 LINE SMOOTH",
"284 492 OFFCURVE",
"280 486 OFFCURVE",
"280 477 CURVE SMOOTH",
"280 111 LINE SMOOTH",
"280 103 OFFCURVE",
"282 98 OFFCURVE",
"288 93 CURVE SMOOTH",
"293 87 OFFCURVE",
"298 85 OFFCURVE",
"306 85 CURVE SMOOTH",
"330 85 LINE",
"330 15 LINE",
"60 15 LINE"
);
}
);
width = 906;
},
{
associatedMasterId = "90EC08FA-78FA-4D06-9A9B-D8A14CBAAFF5";
layerId = "24379888-47B4-4E61-9D4E-54347969A23C";
name = path;
paths = (
{
closed = 1;
nodes = (
"0 600 LINE",
"300 600 LINE",
"300 700 LINE",
"0 700 LINE"
);
},
{
closed = 1;
nodes = (
"0 0 LINE",
"300 0 LINE",
"300 100 LINE",
"0 100 LINE"
);
},
{
closed = 1;
nodes = (
"250 46 LINE",
"250 646 LINE",
"50 646 LINE",
"50 46 LINE"
);
},
{
closed = 1;
nodes = (
"746 46 LINE",
"746 646 LINE",
"546 646 LINE",
"546 46 LINE"
);
},
{
closed = 1;
nodes = (
"496 0 LINE",
"796 0 LINE",
"796 100 LINE",
"496 100 LINE"
);
},
{
closed = 1;
nodes = (
"496 600 LINE",
"796 600 LINE",
"796 700 LINE",
"496 700 LINE"
);
},
{
closed = 1;
nodes = (
"300 700 LINE",
"145 700 LINE",
"496 0 LINE",
"651 0 LINE"
);
}
);
width = 600;
},
{
associatedMasterId = "90EC08FA-78FA-4D06-9A9B-D8A14CBAAFF5";
layerId = "C50C391A-4ADF-48CE-83C3-44DB51863C96";
name = base;
paths = (
{
closed = 1;
nodes = (
"0 600 LINE",
"300 600 LINE",
"300 700 LINE",
"0 700 LINE"
);
},
{
closed = 1;
nodes = (
"0 0 LINE",
"300 0 LINE",
"300 100 LINE",
"0 100 LINE"
);
},
{
closed = 1;
nodes = (
"250 46 LINE",
"250 646 LINE",
"50 646 LINE",
"50 46 LINE"
);
},
{
closed = 1;
nodes = (
"746 46 LINE",
"746 646 LINE",
"546 646 LINE",
"546 46 LINE"
);
},
{
closed = 1;
nodes = (
"496 0 LINE",
"796 0 LINE",
"796 100 LINE",
"496 100 LINE"
);
},
{
closed = 1;
nodes = (
"496 600 LINE",
"796 600 LINE",
"796 700 LINE",
"496 700 LINE"
);
},
{
closed = 1;
nodes = (
"300 700 LINE",
"145 700 LINE",
"496 0 LINE",
"651 0 LINE"
);
}
);
width = 600;
}
);
unicode = 004E;
},
{
color = 1;
glyphname = O;
lastChange = "2018-12-09 15:14:49 +0000";
layers = (
{
layerId = "90EC08FA-78FA-4D06-9A9B-D8A14CBAAFF5";
paths = (
{
closed = 1;
nodes = (
"694 -15 OFFCURVE",
"863 129 OFFCURVE",
"863 351 CURVE SMOOTH",
"863 572 OFFCURVE",
"695 715 OFFCURVE",
"438 715 CURVE SMOOTH",
"182 715 OFFCURVE",
"15 572 OFFCURVE",
"15 351 CURVE SMOOTH",
"15 129 OFFCURVE",
"183 -15 OFFCURVE",
"438 -15 CURVE SMOOTH"
);
},
{
closed = 1;
nodes = (
"199 15 OFFCURVE",
"45 146 OFFCURVE",
"45 351 CURVE SMOOTH",
"45 556 OFFCURVE",
"198 685 OFFCURVE",
"438 685 CURVE SMOOTH",
"678 685 OFFCURVE",
"833 555 OFFCURVE",
"833 351 CURVE SMOOTH",
"833 146 OFFCURVE",
"677 15 OFFCURVE",
"438 15 CURVE SMOOTH"
);
},
{
closed = 1;
nodes = (
"585 85 OFFCURVE",
"663 178 OFFCURVE",
"663 351 CURVE SMOOTH",
"663 524 OFFCURVE",
"585 615 OFFCURVE",
"438 615 CURVE SMOOTH",
"291 615 OFFCURVE",
"215 524 OFFCURVE",
"215 351 CURVE SMOOTH",
"215 177 OFFCURVE",
"291 85 OFFCURVE",
"438 85 CURVE SMOOTH"
);
},
{
closed = 1;
nodes = (
"309 115 OFFCURVE",
"245 193 OFFCURVE",
"245 351 CURVE SMOOTH",
"245 508 OFFCURVE",
"309 585 OFFCURVE",
"438 585 CURVE SMOOTH",
"568 585 OFFCURVE",
"633 508 OFFCURVE",
"633 351 CURVE SMOOTH",
"633 194 OFFCURVE",
"568 115 OFFCURVE",
"438 115 CURVE SMOOTH"
);
}
);
width = 878;
},
{
associatedMasterId = "90EC08FA-78FA-4D06-9A9B-D8A14CBAAFF5";
layerId = "C12CB00C-3FCE-4130-9269-EA7EB8C962FF";
name = path;
paths = (
{
closed = 1;
nodes = (
"574 0 OFFCURVE",
"761 118 OFFCURVE",
"761 351 CURVE SMOOTH",
"761 584 OFFCURVE",
"574 700 OFFCURVE",
"351 700 CURVE SMOOTH",
"128 700 OFFCURVE",
"-57 584 OFFCURVE",
"-57 351 CURVE SMOOTH",
"-57 118 OFFCURVE",
"128 0 OFFCURVE",
"351 0 CURVE SMOOTH"
);
},
{
closed = 1;
nodes = (
"205 100 OFFCURVE",
"143 195 OFFCURVE",
"143 351 CURVE SMOOTH",
"143 507 OFFCURVE",
"205 600 OFFCURVE",
"351 600 CURVE SMOOTH",
"497 600 OFFCURVE",
"561 507 OFFCURVE",
"561 351 CURVE SMOOTH",
"561 195 OFFCURVE",
"497 100 OFFCURVE",
"351 100 CURVE SMOOTH"
);
}
);
width = 600;
}
);
unicode = 004F;
},
{
color = 4;
glyphname = P;
lastChange = "2018-12-09 15:05:42 +0000";
layers = (
{
layerId = "90EC08FA-78FA-4D06-9A9B-D8A14CBAAFF5";
paths = (
{
closed = 1;
nodes = (
"334 -15 LINE SMOOTH",
"342 -15 OFFCURVE",
"347 -13 OFFCURVE",
"353 -8 CURVE SMOOTH",
"358 -2 OFFCURVE",
"360 3 OFFCURVE",
"360 11 CURVE SMOOTH",
"360 89 LINE SMOOTH",
"360 97 OFFCURVE",
"358 102 OFFCURVE",
"353 108 CURVE SMOOTH",
"347 113 OFFCURVE",
"342 115 OFFCURVE",
"334 115 CURVE SMOOTH",
"310 115 LINE",
"310 285 LINE",
"445 285 LINE SMOOTH",
"638 285 OFFCURVE",
"722 349 OFFCURVE",
"722 500 CURVE SMOOTH",
"722 650 OFFCURVE",
"639 714 OFFCURVE",
"445 715 CURVE SMOOTH",
"56 715 LINE SMOOTH",
"48 715 OFFCURVE",
"43 713 OFFCURVE",
"38 708 CURVE SMOOTH",
"32 702 OFFCURVE",
"30 697 OFFCURVE",
"30 689 CURVE SMOOTH",
"30 611 LINE SMOOTH",
"30 603 OFFCURVE",
"32 598 OFFCURVE",
"38 593 CURVE SMOOTH",
"43 587 OFFCURVE",
"48 585 OFFCURVE",
"56 585 CURVE SMOOTH",
"80 585 LINE",
"80 115 LINE",
"56 115 LINE SMOOTH",
"48 115 OFFCURVE",
"43 113 OFFCURVE",
"38 108 CURVE SMOOTH",
"32 102 OFFCURVE",
"30 97 OFFCURVE",
"30 89 CURVE SMOOTH",
"30 11 LINE SMOOTH",
"30 3 OFFCURVE",
"32 -2 OFFCURVE",
"38 -8 CURVE SMOOTH",
"43 -13 OFFCURVE",
"48 -15 OFFCURVE",
"56 -15 CURVE SMOOTH"
);
},
{
closed = 1;
nodes = (
"60 85 LINE",
"84 85 LINE SMOOTH",
"92 85 OFFCURVE",
"97 87 OFFCURVE",
"103 93 CURVE SMOOTH",
"108 98 OFFCURVE",
"110 103 OFFCURVE",
"110 111 CURVE SMOOTH",
"110 589 LINE SMOOTH",
"110 597 OFFCURVE",
"108 602 OFFCURVE",
"103 608 CURVE SMOOTH",
"97 613 OFFCURVE",
"92 615 OFFCURVE",
"84 615 CURVE SMOOTH",
"60 615 LINE",
"60 685 LINE",
"445 685 LINE SMOOTH",
"623 684 OFFCURVE",
"692 632 OFFCURVE",
"692 500 CURVE SMOOTH",
"692 368 OFFCURVE",
"623 315 OFFCURVE",
"445 315 CURVE SMOOTH",
"306 315 LINE SMOOTH",
"298 315 OFFCURVE",
"293 313 OFFCURVE",
"288 308 CURVE SMOOTH",
"282 302 OFFCURVE",
"280 297 OFFCURVE",
"280 289 CURVE SMOOTH",
"280 111 LINE SMOOTH",
"280 103 OFFCURVE",
"282 98 OFFCURVE",
"288 93 CURVE SMOOTH",
"293 87 OFFCURVE",
"298 85 OFFCURVE",
"306 85 CURVE SMOOTH",
"330 85 LINE",
"330 15 LINE",
"60 15 LINE"
);
},
{
closed = 1;
nodes = (
"415 385 LINE SMOOTH",
"498 385 OFFCURVE",
"542 426 OFFCURVE",
"542 502 CURVE SMOOTH",
"542 575 OFFCURVE",
"497 615 OFFCURVE",
"415 615 CURVE SMOOTH",
"306 615 LINE SMOOTH",
"298 615 OFFCURVE",
"293 613 OFFCURVE",
"288 608 CURVE SMOOTH",
"282 602 OFFCURVE",
"280 597 OFFCURVE",
"280 589 CURVE SMOOTH",
"280 411 LINE SMOOTH",
"280 403 OFFCURVE",
"282 398 OFFCURVE",
"288 393 CURVE SMOOTH",
"293 387 OFFCURVE",
"298 385 OFFCURVE",
"306 385 CURVE SMOOTH"
);
},
{
closed = 1;
nodes = (
"310 585 LINE",
"415 585 LINE SMOOTH",
"481 585 OFFCURVE",
"512 558 OFFCURVE",
"512 502 CURVE SMOOTH",
"512 443 OFFCURVE",
"482 415 OFFCURVE",
"415 415 CURVE SMOOTH",
"310 415 LINE"
);
}
);
width = 752;
},
{
associatedMasterId = "90EC08FA-78FA-4D06-9A9B-D8A14CBAAFF5";
layerId = "A178019D-37EB-4847-A533-D18C0A3D6188";
name = path;
paths = (
{
closed = 1;
nodes = (
"600 300 OFFCURVE",
"662 370 OFFCURVE",
"662 500 CURVE SMOOTH",
"662 630 OFFCURVE",
"600 699 OFFCURVE",
"400 700 CURVE",
"0 700 LINE",
"0 600 LINE",
"50 600 LINE",
"50 100 LINE",
"0 100 LINE",
"0 0 LINE",
"300 0 LINE",
"300 100 LINE",
"250 100 LINE",
"250 300 LINE",
"400 300 LINE SMOOTH"
);
},
{
closed = 1;
nodes = (
"250 400 LINE",
"250 600 LINE",
"370 600 LINE SMOOTH",
"440 600 OFFCURVE",
"483 570 OFFCURVE",
"482 500 CURVE SMOOTH",
"481 430 OFFCURVE",
"440 400 OFFCURVE",
"370 400 CURVE SMOOTH"
);
}
);
width = 600;
}
);
unicode = 0050;
},
{
color = 1;
glyphname = Q;
lastChange = "2018-10-16 11:25:51 +0000";
layers = (
{
layerId = "90EC08FA-78FA-4D06-9A9B-D8A14CBAAFF5";
paths = (
{
closed = 1;
nodes = (
"407 -15 OFFCURVE",
"467 6 OFFCURVE",
"519 46 CURVE",
"611 -8 LINE SMOOTH",
"618 -11 OFFCURVE",
"623 -12 OFFCURVE",
"631 -10 CURVE SMOOTH",
"638 -8 OFFCURVE",
"643 -5 OFFCURVE",
"646 2 CURVE SMOOTH",
"686 70 LINE SMOOTH",
"689 77 OFFCURVE",
"690 82 OFFCURVE",
"688 90 CURVE SMOOTH",
"686 97 OFFCURVE",
"683 102 OFFCURVE",
"676 105 CURVE SMOOTH",
"606 146 LINE",
"641 206 OFFCURVE",
"660 277 OFFCURVE",
"660 350 CURVE SMOOTH",
"660 551 OFFCURVE",
"519 715 OFFCURVE",
"345 715 CURVE SMOOTH",
"171 715 OFFCURVE",
"30 551 OFFCURVE",
"30 350 CURVE SMOOTH",
"30 149 OFFCURVE",
"171 -15 OFFCURVE",
"345 -15 CURVE SMOOTH"
);
},
{
closed = 1;
nodes = (
"416 85 OFFCURVE",
"460 192 OFFCURVE",
"460 350 CURVE SMOOTH",
"460 508 OFFCURVE",
"416 615 OFFCURVE",
"345 615 CURVE SMOOTH",
"274 615 OFFCURVE",
"230 508 OFFCURVE",
"230 350 CURVE SMOOTH",
"230 192 OFFCURVE",
"274 85 OFFCURVE",
"345 85 CURVE SMOOTH"
);
},
{
closed = 1;
nodes = (
"297 115 OFFCURVE",
"260 212 OFFCURVE",
"260 350 CURVE SMOOTH",
"260 488 OFFCURVE",
"297 585 OFFCURVE",
"345 585 CURVE SMOOTH",
"393 585 OFFCURVE",
"430 488 OFFCURVE",
"430 350 CURVE SMOOTH",
"430 212 OFFCURVE",
"393 115 OFFCURVE",
"345 115 CURVE SMOOTH"
);
},
{
closed = 1;
nodes = (
"188 15 OFFCURVE",
"60 165 OFFCURVE",
"60 350 CURVE SMOOTH",
"60 535 OFFCURVE",
"188 685 OFFCURVE",
"345 685 CURVE SMOOTH",
"502 685 OFFCURVE",
"630 535 OFFCURVE",
"630 350 CURVE SMOOTH",
"630 281 OFFCURVE",
"612 214 OFFCURVE",
"578 158 CURVE SMOOTH",
"574 151 OFFCURVE",
"573 146 OFFCURVE",
"575 138 CURVE SMOOTH",
"577 131 OFFCURVE",
"580 126 OFFCURVE",
"587 122 CURVE SMOOTH",
"658 81 LINE",
"622 21 LINE",
"534 72 LINE SMOOTH",
"527 75 OFFCURVE",
"523 77 OFFCURVE",
"516 76 CURVE SMOOTH",
"510 76 OFFCURVE",
"506 74 OFFCURVE",
"500 69 CURVE SMOOTH",
"454 34 OFFCURVE",
"400 15 OFFCURVE",
"345 15 CURVE SMOOTH"
);
}
);
width = 719;
},
{
associatedMasterId = "90EC08FA-78FA-4D06-9A9B-D8A14CBAAFF5";
layerId = "3B4CE11E-1EF6-4451-95B6-33EED8C18514";
name = path;
paths = (
{
closed = 1;
nodes = (
"465 0 OFFCURVE",
"600 157 OFFCURVE",
"600 350 CURVE SMOOTH",
"600 543 OFFCURVE",
"465 700 OFFCURVE",
"300 700 CURVE SMOOTH",
"135 700 OFFCURVE",
"0 543 OFFCURVE",
"0 350 CURVE SMOOTH",
"0 157 OFFCURVE",
"135 0 OFFCURVE",
"300 0 CURVE SMOOTH"
);
},
{
closed = 1;
nodes = (
"370 100 OFFCURVE",
"400 230 OFFCURVE",
"400 350 CURVE SMOOTH",
"400 470 OFFCURVE",
"370 600 OFFCURVE",
"300 600 CURVE SMOOTH",
"230 600 OFFCURVE",
"200 470 OFFCURVE",
"200 350 CURVE SMOOTH",
"200 230 OFFCURVE",
"230 100 OFFCURVE",
"300 100 CURVE SMOOTH"
);
},
{
closed = 1;
nodes = (
"422 93 LINE",
"583 0 LINE",
"633 87 LINE",
"472 180 LINE"
);
}
);
width = 600;
},
{
associatedMasterId = "90EC08FA-78FA-4D06-9A9B-D8A14CBAAFF5";
layerId = "E683DCBC-2321-4BBE-8382-3F78E5F7D4E4";
name = base;
paths = (
{
closed = 1;
nodes = (
"0 600 LINE",
"600 600 LINE",
"600 700 LINE",
"0 700 LINE"
);
},
{
closed = 1;
nodes = (
"0 0 LINE",
"600 0 LINE",
"600 100 LINE",
"0 100 LINE"
);
},
{
closed = 1;
nodes = (
"200 46 LINE",
"200 646 LINE",
"0 646 LINE",
"0 46 LINE"
);
},
{
closed = 1;
nodes = (
"600 46 LINE",
"600 646 LINE",
"400 646 LINE",
"400 46 LINE"
);
},
{
closed = 1;
nodes = (
"465 0 OFFCURVE",
"600 157 OFFCURVE",
"600 350 CURVE SMOOTH",
"600 543 OFFCURVE",
"465 700 OFFCURVE",
"300 700 CURVE SMOOTH",
"135 700 OFFCURVE",
"0 543 OFFCURVE",
"0 350 CURVE SMOOTH",
"0 157 OFFCURVE",
"135 0 OFFCURVE",
"300 0 CURVE SMOOTH"
);
},
{
closed = 1;
nodes = (
"370 100 OFFCURVE",
"400 230 OFFCURVE",
"400 350 CURVE SMOOTH",
"400 470 OFFCURVE",
"370 600 OFFCURVE",
"300 600 CURVE SMOOTH",
"230 600 OFFCURVE",
"200 470 OFFCURVE",
"200 350 CURVE SMOOTH",
"200 230 OFFCURVE",
"230 100 OFFCURVE",
"300 100 CURVE SMOOTH"
);
}
);
width = 600;
}
);
unicode = 0051;
},
{
glyphname = R;
lastChange = "2018-10-11 12:45:41 +0000";
layers = (
{
layerId = "90EC08FA-78FA-4D06-9A9B-D8A14CBAAFF5";
paths = (
{
closed = 1;
nodes = (
"334 -15 LINE SMOOTH",
"342 -15 OFFCURVE",
"347 -13 OFFCURVE",
"353 -8 CURVE SMOOTH",
"358 -2 OFFCURVE",
"360 3 OFFCURVE",
"360 11 CURVE SMOOTH",
"360 89 LINE SMOOTH",
"360 97 OFFCURVE",
"358 102 OFFCURVE",
"353 108 CURVE SMOOTH",
"347 113 OFFCURVE",
"342 115 OFFCURVE",
"334 115 CURVE SMOOTH",
"310 115 LINE",
"310 285 LINE",
"376 285 LINE",
"516 2 LINE SMOOTH",
"519 -4 OFFCURVE",
"522 -8 OFFCURVE",
"527 -11 CURVE SMOOTH",
"532 -14 OFFCURVE",
"537 -15 OFFCURVE",
"544 -15 CURVE SMOOTH",
"723 -15 LINE SMOOTH",
"731 -15 OFFCURVE",
"736 -13 OFFCURVE",
"742 -8 CURVE SMOOTH",
"747 -2 OFFCURVE",
"749 3 OFFCURVE",
"749 11 CURVE SMOOTH",
"749 88 LINE SMOOTH",
"749 96 OFFCURVE",
"747 101 OFFCURVE",
"742 107 CURVE SMOOTH",
"736 112 OFFCURVE",
"731 114 OFFCURVE",
"723 114 CURVE SMOOTH",
"694 114 LINE",
"599 306 LINE",
"683 335 OFFCURVE",
"722 397 OFFCURVE",
"722 500 CURVE SMOOTH",
"722 650 OFFCURVE",
"639 714 OFFCURVE",
"445 715 CURVE SMOOTH",
"56 715 LINE SMOOTH",
"48 715 OFFCURVE",
"43 713 OFFCURVE",
"38 708 CURVE SMOOTH",
"32 702 OFFCURVE",
"30 697 OFFCURVE",
"30 689 CURVE SMOOTH",
"30 611 LINE SMOOTH",
"30 603 OFFCURVE",
"32 598 OFFCURVE",
"38 593 CURVE SMOOTH",
"43 587 OFFCURVE",
"48 585 OFFCURVE",
"56 585 CURVE SMOOTH",
"80 585 LINE",
"80 115 LINE",
"56 115 LINE SMOOTH",
"48 115 OFFCURVE",
"43 113 OFFCURVE",
"38 108 CURVE SMOOTH",
"32 102 OFFCURVE",
"30 97 OFFCURVE",
"30 89 CURVE SMOOTH",
"30 11 LINE SMOOTH",
"30 3 OFFCURVE",
"32 -2 OFFCURVE",
"38 -8 CURVE SMOOTH",
"43 -13 OFFCURVE",
"48 -15 OFFCURVE",
"56 -15 CURVE SMOOTH"
);
},
{
closed = 1;
nodes = (
"60 85 LINE",
"84 85 LINE SMOOTH",
"92 85 OFFCURVE",
"97 87 OFFCURVE",
"103 93 CURVE SMOOTH",
"108 98 OFFCURVE",
"110 103 OFFCURVE",
"110 111 CURVE SMOOTH",
"110 589 LINE SMOOTH",
"110 597 OFFCURVE",
"108 602 OFFCURVE",
"103 608 CURVE SMOOTH",
"97 613 OFFCURVE",
"92 615 OFFCURVE",
"84 615 CURVE SMOOTH",
"60 615 LINE",
"60 685 LINE",
"445 685 LINE SMOOTH",
"623 684 OFFCURVE",
"692 632 OFFCURVE",
"692 500 CURVE SMOOTH",
"692 408 OFFCURVE",
"660 357 OFFCURVE",
"585 333 CURVE SMOOTH",
"577 330 OFFCURVE",
"573 326 OFFCURVE",
"569 319 CURVE SMOOTH",
"569 319 LINE SMOOTH",
"566 311 OFFCURVE",
"566 305 OFFCURVE",
"569 298 CURVE SMOOTH",
"667 101 LINE SMOOTH",
"670 95 OFFCURVE",
"673 91 OFFCURVE",
"678 88 CURVE SMOOTH",
"683 85 OFFCURVE",
"688 84 OFFCURVE",
"695 84 CURVE SMOOTH",
"719 84 LINE",
"719 15 LINE",
"543 15 LINE",
"403 298 LINE SMOOTH",
"400 304 OFFCURVE",
"397 308 OFFCURVE",
"392 311 CURVE SMOOTH",
"387 314 OFFCURVE",
"383 315 OFFCURVE",
"375 315 CURVE SMOOTH",
"306 315 LINE SMOOTH",
"298 315 OFFCURVE",
"293 313 OFFCURVE",
"288 308 CURVE SMOOTH",
"282 302 OFFCURVE",
"280 297 OFFCURVE",
"280 289 CURVE SMOOTH",
"280 111 LINE SMOOTH",
"280 103 OFFCURVE",
"282 98 OFFCURVE",
"288 93 CURVE SMOOTH",
"293 87 OFFCURVE",
"298 85 OFFCURVE",
"306 85 CURVE SMOOTH",
"330 85 LINE",
"330 15 LINE",
"60 15 LINE"
);
},
{
closed = 1;
nodes = (
"415 385 LINE SMOOTH",
"498 385 OFFCURVE",
"542 426 OFFCURVE",
"542 502 CURVE SMOOTH",
"542 575 OFFCURVE",
"497 615 OFFCURVE",
"415 615 CURVE SMOOTH",
"306 615 LINE SMOOTH",
"298 615 OFFCURVE",
"293 613 OFFCURVE",
"288 608 CURVE SMOOTH",
"282 602 OFFCURVE",
"280 597 OFFCURVE",
"280 589 CURVE SMOOTH",
"280 411 LINE SMOOTH",
"280 403 OFFCURVE",
"282 398 OFFCURVE",
"288 393 CURVE SMOOTH",
"293 387 OFFCURVE",
"298 385 OFFCURVE",
"306 385 CURVE SMOOTH"
);
},
{
closed = 1;
nodes = (
"310 585 LINE",
"415 585 LINE SMOOTH",
"481 585 OFFCURVE",
"512 558 OFFCURVE",
"512 502 CURVE SMOOTH",
"512 443 OFFCURVE",
"482 415 OFFCURVE",
"415 415 CURVE SMOOTH",
"310 415 LINE"
);
}
);
width = 759;
},
{
associatedMasterId = "90EC08FA-78FA-4D06-9A9B-D8A14CBAAFF5";
layerId = "A10F2E06-2503-49CB-A31C-8835DB2C96A7";
name = path;
paths = (
{
closed = 1;
nodes = (
"300 0 LINE",
"300 100 LINE",
"250 100 LINE",
"250 300 LINE",
"340.335 300 LINE",
"489 0 LINE",
"689 0 LINE",
"689 99 LINE",
"639.941 99 LINE",
"532.904 314.996 LINE",
"628.865 341.994 OFFCURVE",
"662 404.964 OFFCURVE",
"662 500 CURVE SMOOTH",
"662 630 OFFCURVE",
"600 699 OFFCURVE",
"400 700 CURVE SMOOTH",
"0 700 LINE",
"0 600 LINE",
"50 600 LINE",
"50 100 LINE",
"0 100 LINE",
"0 0 LINE"
);
},
{
closed = 1;
nodes = (
"250 600 LINE",
"370 600 LINE SMOOTH",
"440 600 OFFCURVE",
"483 570 OFFCURVE",
"482 500 CURVE SMOOTH",
"481 430 OFFCURVE",
"440 400 OFFCURVE",
"370 400 CURVE SMOOTH",
"250 400 LINE"
);
}
);
width = 719;
},
{
associatedMasterId = "90EC08FA-78FA-4D06-9A9B-D8A14CBAAFF5";
layerId = "95076016-ED72-4B9C-9F8A-C4A0E567B54C";
name = base;
paths = (
{
closed = 1;
nodes = (
"600 300 OFFCURVE",
"662 370 OFFCURVE",
"662 500 CURVE SMOOTH",
"662 630 OFFCURVE",
"600 699 OFFCURVE",
"400 700 CURVE",
"0 700 LINE",
"0 600 LINE",
"50 600 LINE",
"50 100 LINE",
"0 100 LINE",
"0 0 LINE",
"300 0 LINE",
"300 100 LINE",
"250 100 LINE",
"250 300 LINE",
"400 300 LINE SMOOTH"
);
},
{
closed = 1;
nodes = (
"250 400 LINE",
"250 600 LINE",
"370 600 LINE SMOOTH",
"440 600 OFFCURVE",
"483 570 OFFCURVE",
"482 500 CURVE SMOOTH",
"481 430 OFFCURVE",
"440 400 OFFCURVE",
"370 400 CURVE SMOOTH"
);
},
{
closed = 1;
nodes = (
"489 99 LINE",
"489 0 LINE",
"689 0 LINE",
"689 99 LINE"
);
},
{
closed = 1;
nodes = (
"322 337 LINE",
"489 0 LINE",
"689 0 LINE",
"522 337 LINE"
);
}
);
width = 719;
}
);
unicode = 0052;
},
{
color = 4;
glyphname = T;
lastChange = "2018-12-09 15:11:15 +0000";
layers = (
{
layerId = "90EC08FA-78FA-4D06-9A9B-D8A14CBAAFF5";
paths = (
{
closed = 1;
nodes = (
"514 -15 LINE SMOOTH",
"522 -15 OFFCURVE",
"527 -13 OFFCURVE",
"533 -8 CURVE SMOOTH",
"538 -2 OFFCURVE",
"540 3 OFFCURVE",
"540 11 CURVE SMOOTH",
"540 89 LINE SMOOTH",
"540 97 OFFCURVE",
"538 102 OFFCURVE",
"533 108 CURVE SMOOTH",
"527 113 OFFCURVE",
"522 115 OFFCURVE",
"514 115 CURVE SMOOTH",
"490 115 LINE",
"490 585 LINE",
"610 585 LINE",
"610 561 LINE SMOOTH",
"610 553 OFFCURVE",
"612 548 OFFCURVE",
"618 543 CURVE SMOOTH",
"624 538 OFFCURVE",
"628 535 OFFCURVE",
"636 535 CURVE SMOOTH",
"714 535 LINE SMOOTH",
"722 535 OFFCURVE",
"727 537 OFFCURVE",
"733 543 CURVE SMOOTH",
"738 548 OFFCURVE",
"740 553 OFFCURVE",
"740 561 CURVE SMOOTH",
"740 689 LINE SMOOTH",
"740 697 OFFCURVE",
"738 702 OFFCURVE",
"733 708 CURVE SMOOTH",
"728 714 OFFCURVE",
"722 715 OFFCURVE",
"714 715 CURVE SMOOTH",
"36 715 LINE SMOOTH",
"28 715 OFFCURVE",
"23 713 OFFCURVE",
"18 708 CURVE SMOOTH",
"12 702 OFFCURVE",
"10 697 OFFCURVE",
"10 689 CURVE SMOOTH",
"10 561 LINE SMOOTH",
"10 553 OFFCURVE",
"12 548 OFFCURVE",
"18 543 CURVE SMOOTH",
"24 538 OFFCURVE",
"28 535 OFFCURVE",
"36 535 CURVE SMOOTH",
"114 535 LINE SMOOTH",
"122 535 OFFCURVE",
"127 537 OFFCURVE",
"133 543 CURVE SMOOTH",
"138 548 OFFCURVE",
"140 553 OFFCURVE",
"140 561 CURVE SMOOTH",
"140 585 LINE",
"260 585 LINE",
"260 115 LINE",
"236 115 LINE SMOOTH",
"228 115 OFFCURVE",
"223 113 OFFCURVE",
"218 108 CURVE SMOOTH",
"212 102 OFFCURVE",
"210 97 OFFCURVE",
"210 89 CURVE SMOOTH",
"210 11 LINE SMOOTH",
"210 3 OFFCURVE",
"212 -2 OFFCURVE",
"218 -8 CURVE SMOOTH",
"223 -13 OFFCURVE",
"228 -15 OFFCURVE",
"236 -15 CURVE SMOOTH"
);
},
{
closed = 1;
nodes = (
"240 85 LINE",
"264 85 LINE SMOOTH",
"272 85 OFFCURVE",
"277 87 OFFCURVE",
"283 93 CURVE SMOOTH",
"288 98 OFFCURVE",
"290 103 OFFCURVE",
"290 111 CURVE SMOOTH",
"290 589 LINE SMOOTH",
"290 597 OFFCURVE",
"288 602 OFFCURVE",
"283 608 CURVE SMOOTH",
"277 613 OFFCURVE",
"272 615 OFFCURVE",
"264 615 CURVE SMOOTH",
"136 615 LINE SMOOTH",
"128 615 OFFCURVE",
"123 613 OFFCURVE",
"118 608 CURVE SMOOTH",
"112 602 OFFCURVE",
"110 597 OFFCURVE",
"110 589 CURVE SMOOTH",
"110 565 LINE",
"40 565 LINE",
"40 685 LINE",
"710 685 LINE",
"710 565 LINE",
"640 565 LINE",
"640 589 LINE SMOOTH",
"640 597 OFFCURVE",
"638 602 OFFCURVE",
"633 608 CURVE SMOOTH",
"628 614 OFFCURVE",
"622 615 OFFCURVE",
"614 615 CURVE SMOOTH",
"486 615 LINE SMOOTH",
"478 615 OFFCURVE",
"473 613 OFFCURVE",
"468 608 CURVE SMOOTH",
"462 602 OFFCURVE",
"460 597 OFFCURVE",
"460 589 CURVE SMOOTH",
"460 111 LINE SMOOTH",
"460 103 OFFCURVE",
"462 98 OFFCURVE",
"468 93 CURVE SMOOTH",
"473 87 OFFCURVE",
"478 85 OFFCURVE",
"486 85 CURVE SMOOTH",
"510 85 LINE",
"510 15 LINE",
"240 15 LINE"
);
}
);
width = 770;
},
{
associatedMasterId = "90EC08FA-78FA-4D06-9A9B-D8A14CBAAFF5";
layerId = "531BB020-AB0B-48FC-8711-1DB67A0A0F66";
name = path;
paths = (
{
closed = 1;
nodes = (
"60 550 LINE",
"60 600 LINE",
"190 600 LINE",
"190 100 LINE",
"140 100 LINE",
"140 0 LINE",
"440 0 LINE",
"440 100 LINE",
"390 100 LINE",
"390 600 LINE",
"540 600 LINE",
"540 550 LINE",
"640 550 LINE",
"640 700 LINE",
"-40 700 LINE",
"-40 550 LINE"
);
}
);
width = 600;
},
{
associatedMasterId = "90EC08FA-78FA-4D06-9A9B-D8A14CBAAFF5";
layerId = "F452E7BA-DB50-4C09-A102-B1AF2D1600CD";
name = base;
paths = (
{
closed = 1;
nodes = (
"-40 600 LINE",
"640 600 LINE",
"640 700 LINE",
"-40 700 LINE"
);
},
{
closed = 1;
nodes = (
"140 0 LINE",
"440 0 LINE",
"440 100 LINE",
"140 100 LINE"
);
},
{
closed = 1;
nodes = (
"390 46 LINE",
"390 650 LINE",
"190 650 LINE",
"190 46 LINE"
);
},
{
closed = 1;
nodes = (
"540 650 LINE",
"540 550 LINE",
"640 550 LINE",
"640 650 LINE"
);
},
{
closed = 1;
nodes = (
"-40 650 LINE",
"-40 550 LINE",
"60 550 LINE",
"60 650 LINE"
);
}
);
width = 600;
}
);
unicode = 0054;
},
{
color = 4;
glyphname = U;
lastChange = "2018-12-09 15:11:20 +0000";
layers = (
{
layerId = "90EC08FA-78FA-4D06-9A9B-D8A14CBAAFF5";
paths = (
{
closed = 1;
nodes = (
"610.785 -15 OFFCURVE",
"735 81.26 OFFCURVE",
"735 246 CURVE SMOOTH",
"735 585 LINE",
"759.155 585 LINE SMOOTH",
"766.863 585 OFFCURVE",
"772.17 587.17 OFFCURVE",
"777.5 592.5 CURVE SMOOTH",
"782.83 597.83 OFFCURVE",
"785 603.137 OFFCURVE",
"785 610.845 CURVE SMOOTH",
"785 689.155 LINE SMOOTH",
"785 696.863 OFFCURVE",
"782.83 702.17 OFFCURVE",
"777.5 707.5 CURVE SMOOTH",
"772.17 712.83 OFFCURVE",
"766.863 715 OFFCURVE",
"759.155 715 CURVE SMOOTH",
"480.845 715 LINE SMOOTH",
"473.137 715 OFFCURVE",
"467.83 712.83 OFFCURVE",
"462.5 707.5 CURVE SMOOTH",
"457.17 702.17 OFFCURVE",
"455 696.863 OFFCURVE",
"455 689.155 CURVE SMOOTH",
"455 610.845 LINE SMOOTH",
"455 603.137 OFFCURVE",
"457.17 597.83 OFFCURVE",
"462.5 592.5 CURVE SMOOTH",
"467.83 587.17 OFFCURVE",
"473.137 585 OFFCURVE",
"480.845 585 CURVE SMOOTH",
"505 585 LINE",
"505 246 LINE SMOOTH",
"505 183.262 OFFCURVE",
"483.931 115 OFFCURVE",
"400 115 CURVE SMOOTH",
"316.069 115 OFFCURVE",
"295 183.262 OFFCURVE",
"295 246 CURVE SMOOTH",
"295 585 LINE",
"319.155 585 LINE SMOOTH",
"326.863 585 OFFCURVE",
"332.17 587.17 OFFCURVE",
"337.5 592.5 CURVE SMOOTH",
"342.83 597.83 OFFCURVE",
"345 603.137 OFFCURVE",
"345 610.845 CURVE SMOOTH",
"345 689.155 LINE SMOOTH",
"345 696.863 OFFCURVE",
"342.83 702.17 OFFCURVE",
"337.5 707.5 CURVE SMOOTH",
"332.17 712.83 OFFCURVE",
"326.863 715 OFFCURVE",
"319.155 715 CURVE SMOOTH",
"40.845 715 LINE SMOOTH",
"33.137 715 OFFCURVE",
"27.83 712.83 OFFCURVE",
"22.5 707.5 CURVE SMOOTH",
"17.17 702.17 OFFCURVE",
"15 696.863 OFFCURVE",
"15 689.155 CURVE SMOOTH",
"15 610.845 LINE SMOOTH",
"15 603.137 OFFCURVE",
"17.17 597.83 OFFCURVE",
"22.5 592.5 CURVE SMOOTH",
"27.83 587.17 OFFCURVE",
"33.137 585 OFFCURVE",
"40.845 585 CURVE SMOOTH",
"65 585 LINE",
"65 246 LINE SMOOTH",
"65 81.26 OFFCURVE",
"189.215 -15 OFFCURVE",
"400 -15 CURVE SMOOTH"
);
},
{
closed = 1;
nodes = (
"205.278 15 OFFCURVE",
"95 99.003 OFFCURVE",
"95 246 CURVE SMOOTH",
"95 589.155 LINE SMOOTH",
"95 596.863 OFFCURVE",
"92.83 602.17 OFFCURVE",
"87.5 607.5 CURVE SMOOTH",
"82.17 612.83 OFFCURVE",
"76.863 615 OFFCURVE",
"69.155 615 CURVE SMOOTH",
"45 615 LINE",
"45 685 LINE",
"315 685 LINE",
"315 615 LINE",
"290.845 615 LINE SMOOTH",
"283.137 615 OFFCURVE",
"277.83 612.83 OFFCURVE",
"272.5 607.5 CURVE SMOOTH",
"267.17 602.17 OFFCURVE",
"265 596.863 OFFCURVE",
"265 589.155 CURVE SMOOTH",
"265 246 LINE SMOOTH",
"265 146.103 OFFCURVE",
"315.743 85 OFFCURVE",
"400 85 CURVE SMOOTH",
"484.257 85 OFFCURVE",
"535 146.103 OFFCURVE",
"535 246 CURVE SMOOTH",
"535 589.155 LINE SMOOTH",
"535 596.863 OFFCURVE",
"532.83 602.17 OFFCURVE",
"527.5 607.5 CURVE SMOOTH",
"522.17 612.83 OFFCURVE",
"516.863 615 OFFCURVE",
"509.155 615 CURVE SMOOTH",
"485 615 LINE",
"485 685 LINE",
"755 685 LINE",
"755 615 LINE",
"730.845 615 LINE SMOOTH",
"723.137 615 OFFCURVE",
"717.83 612.83 OFFCURVE",
"712.5 607.5 CURVE SMOOTH",
"707.17 602.17 OFFCURVE",
"705 596.863 OFFCURVE",
"705 589.155 CURVE SMOOTH",
"705 246 LINE SMOOTH",
"705 99.003 OFFCURVE",
"594.722 15 OFFCURVE",
"400 15 CURVE SMOOTH"
);
}
);
width = 800;
},
{
associatedMasterId = "90EC08FA-78FA-4D06-9A9B-D8A14CBAAFF5";
layerId = "01A13AA2-6A09-4884-9FAB-E348B9D4B409";
name = path;
paths = (
{
closed = 1;
nodes = (
"30 600 LINE",
"330 600 LINE",
"330 700 LINE",
"30 700 LINE"
);
},
{
closed = 1;
nodes = (
"305 100 OFFCURVE",
"280 181 OFFCURVE",
"280 246 CURVE",
"280 646 LINE",
"80 646 LINE",
"80 246 LINE",
"80 96 OFFCURVE",
"190 0 OFFCURVE",
"400 0 CURVE",
"610 0 OFFCURVE",
"720 96 OFFCURVE",
"720 246 CURVE",
"720 646 LINE",
"520 646 LINE",
"520 246 LINE",
"520 181 OFFCURVE",
"495 100 OFFCURVE",
"400 100 CURVE SMOOTH"
);
},
{
closed = 1;
nodes = (
"470 600 LINE",
"770 600 LINE",
"770 700 LINE",
"470 700 LINE"
);
}
);
width = 800;
},
{
associatedMasterId = "90EC08FA-78FA-4D06-9A9B-D8A14CBAAFF5";
layerId = "11A38977-5BB0-41BA-86AF-EC8C7F54D621";
name = base;
paths = (
{
closed = 1;
nodes = (
"30 600 LINE",
"330 600 LINE",
"330 700 LINE",
"30 700 LINE"
);
},
{
closed = 1;
nodes = (
"305 100 OFFCURVE",
"280 181 OFFCURVE",
"280 246 CURVE",
"280 646 LINE",
"80 646 LINE",
"80 246 LINE",
"80 96 OFFCURVE",
"190 0 OFFCURVE",
"400 0 CURVE",
"610 0 OFFCURVE",
"720 96 OFFCURVE",
"720 246 CURVE",
"720 646 LINE",
"520 646 LINE",
"520 246 LINE",
"520 181 OFFCURVE",
"495 100 OFFCURVE",
"400 100 CURVE SMOOTH"
);
},
{
closed = 1;
nodes = (
"470 600 LINE",
"770 600 LINE",
"770 700 LINE",
"470 700 LINE"
);
}
);
width = 800;
}
);
unicode = 0055;
},
{
color = 1;
glyphname = V;
lastChange = "2018-12-03 12:56:07 +0000";
layers = (
{
layerId = "90EC08FA-78FA-4D06-9A9B-D8A14CBAAFF5";
paths = (
{
closed = 1;
nodes = (
"575 -15 LINE SMOOTH",
"582 -15 OFFCURVE",
"587 -14 OFFCURVE",
"592 -11 CURVE SMOOTH",
"597 -8 OFFCURVE",
"600 -4 OFFCURVE",
"603 3 CURVE SMOOTH",
"879 585 LINE",
"914 585 LINE SMOOTH",
"922 585 OFFCURVE",
"927 587 OFFCURVE",
"933 593 CURVE SMOOTH",
"938 598 OFFCURVE",
"940 603 OFFCURVE",
"940 611 CURVE SMOOTH",
"940 689 LINE SMOOTH",
"940 697 OFFCURVE",
"938 702 OFFCURVE",
"933 708 CURVE SMOOTH",
"927 713 OFFCURVE",
"922 715 OFFCURVE",
"914 715 CURVE SMOOTH",
"626 715 LINE SMOOTH",
"618 715 OFFCURVE",
"613 713 OFFCURVE",
"608 708 CURVE SMOOTH",
"602 702 OFFCURVE",
"600 697 OFFCURVE",
"600 689 CURVE SMOOTH",
"600 611 LINE SMOOTH",
"600 603 OFFCURVE",
"602 598 OFFCURVE",
"608 593 CURVE SMOOTH",
"613 587 OFFCURVE",
"618 585 OFFCURVE",
"626 585 CURVE SMOOTH",
"646 585 LINE",
"485 246 LINE",
"324 585 LINE",
"344 585 LINE SMOOTH",
"352 585 OFFCURVE",
"357 587 OFFCURVE",
"363 593 CURVE SMOOTH",
"368 598 OFFCURVE",
"370 603 OFFCURVE",
"370 611 CURVE SMOOTH",
"370 689 LINE SMOOTH",
"370 697 OFFCURVE",
"368 702 OFFCURVE",
"363 708 CURVE SMOOTH",
"357 713 OFFCURVE",
"352 715 OFFCURVE",
"344 715 CURVE SMOOTH",
"56 715 LINE SMOOTH",
"48 715 OFFCURVE",
"43 713 OFFCURVE",
"38 708 CURVE SMOOTH",
"32 702 OFFCURVE",
"30 697 OFFCURVE",
"30 689 CURVE SMOOTH",
"30 611 LINE SMOOTH",
"30 603 OFFCURVE",
"32 598 OFFCURVE",
"38 593 CURVE SMOOTH",
"43 587 OFFCURVE",
"48 585 OFFCURVE",
"56 585 CURVE SMOOTH",
"91 585 LINE",
"367 3 LINE SMOOTH",
"370 -4 OFFCURVE",
"373 -8 OFFCURVE",
"378 -11 CURVE SMOOTH",
"383 -14 OFFCURVE",
"388 -15 OFFCURVE",
"395 -15 CURVE SMOOTH"
);
},
{
closed = 1;
nodes = (
"118 597 LINE SMOOTH",
"115 604 OFFCURVE",
"112 608 OFFCURVE",
"107 611 CURVE SMOOTH",
"102 614 OFFCURVE",
"98 615 OFFCURVE",
"91 615 CURVE SMOOTH",
"60 615 LINE",
"60 685 LINE",
"340 685 LINE",
"340 615 LINE",
"312 615 LINE SMOOTH",
"304 615 OFFCURVE",
"299 612 OFFCURVE",
"294 605 CURVE SMOOTH",
"293 603 LINE SMOOTH",
"289 597 OFFCURVE",
"289 590 OFFCURVE",
"292 583 CURVE SMOOTH",
"466 216 LINE SMOOTH",
"470 208 OFFCURVE",
"475 205 OFFCURVE",
"484 205 CURVE SMOOTH",
"486 205 LINE SMOOTH",
"495 205 OFFCURVE",
"500 208 OFFCURVE",
"504 216 CURVE SMOOTH",
"678 583 LINE SMOOTH",
"681 590 OFFCURVE",
"681 597 OFFCURVE",
"677 603 CURVE SMOOTH",
"676 605 LINE SMOOTH",
"671 612 OFFCURVE",
"666 615 OFFCURVE",
"658 615 CURVE SMOOTH",
"630 615 LINE",
"630 685 LINE",
"910 685 LINE",
"910 615 LINE",
"879 615 LINE SMOOTH",
"872 615 OFFCURVE",
"868 614 OFFCURVE",
"863 611 CURVE SMOOTH",
"858 608 OFFCURVE",
"855 604 OFFCURVE",
"852 597 CURVE SMOOTH",
"576 15 LINE",
"394 15 LINE"
);
}
);
width = 970;
},
{
associatedMasterId = "90EC08FA-78FA-4D06-9A9B-D8A14CBAAFF5";
layerId = "D71F8C61-BF45-4CE1-BA01-DC824788420D";
name = path;
paths = (
{
closed = 1;
nodes = (
"27.596 600 LINE",
"312 0 LINE",
"512 0 LINE",
"796.404 600 LINE",
"852 600 LINE",
"852 700 LINE",
"542 700 LINE",
"542 600 LINE",
"596.404 600 LINE",
"412 210.968 LINE",
"227.596 600 LINE",
"282 600 LINE",
"282 700 LINE",
"-28 700 LINE",
"-28 600 LINE"
);
}
);
width = 600;
},
{
associatedMasterId = "90EC08FA-78FA-4D06-9A9B-D8A14CBAAFF5";
layerId = "1A7DD73D-0985-4AAD-AA4A-8AE06145B909";
name = base;
paths = (
{
closed = 1;
nodes = (
"852 700 LINE",
"542 700 LINE",
"542 600 LINE",
"852 600 LINE"
);
},
{
closed = 1;
nodes = (
"622 654 LINE",
"312 0 LINE",
"512 0 LINE",
"822 654 LINE"
);
},
{
closed = 1;
nodes = (
"282 600 LINE",
"282 700 LINE",
"-28 700 LINE",
"-28 600 LINE"
);
},
{
closed = 1;
nodes = (
"312 0 LINE",
"512 0 LINE",
"202 654 LINE",
"2 654 LINE"
);
}
);
width = 600;
}
);
unicode = 0056;
},
{
color = 1;
glyphname = X;
lastChange = "2018-10-16 11:31:45 +0000";
layers = (
{
layerId = "90EC08FA-78FA-4D06-9A9B-D8A14CBAAFF5";
paths = (
{
closed = 1;
nodes = (
"332 -15 LINE SMOOTH",
"340 -15 OFFCURVE",
"345 -13 OFFCURVE",
"351 -8 CURVE SMOOTH",
"356 -2 OFFCURVE",
"358 3 OFFCURVE",
"358 11 CURVE SMOOTH",
"358 89 LINE SMOOTH",
"358 97 OFFCURVE",
"356 102 OFFCURVE",
"351 108 CURVE SMOOTH",
"345 113 OFFCURVE",
"340 115 OFFCURVE",
"332 115 CURVE SMOOTH",
"330 115 LINE",
"395 199 LINE",
"460 115 LINE",
"453 115 LINE SMOOTH",
"449 115 OFFCURVE",
"445 113 OFFCURVE",
"440 108 CURVE SMOOTH",
"434 102 OFFCURVE",
"432 97 OFFCURVE",
"432 89 CURVE SMOOTH",
"432 11 LINE SMOOTH",
"432 3 OFFCURVE",
"434 -2 OFFCURVE",
"440 -8 CURVE SMOOTH",
"445 -13 OFFCURVE",
"450 -15 OFFCURVE",
"458 -15 CURVE SMOOTH",
"733 -15 LINE SMOOTH",
"741 -15 OFFCURVE",
"747 -12 OFFCURVE",
"750 -4 CURVE SMOOTH",
"756 7 LINE",
"757 6 LINE SMOOTH",
"757 5 OFFCURVE",
"757 43 OFFCURVE",
"757 57 CURVE SMOOTH",
"757 89 LINE SMOOTH",
"757 97 OFFCURVE",
"755 102 OFFCURVE",
"750 108 CURVE SMOOTH",
"744 113 OFFCURVE",
"739 115 OFFCURVE",
"731 115 CURVE SMOOTH",
"698 115 LINE",
"514 352 LINE",
"695 585 LINE",
"731 585 LINE SMOOTH",
"739 585 OFFCURVE",
"744 587 OFFCURVE",
"750 593 CURVE SMOOTH",
"755 598 OFFCURVE",
"757 603 OFFCURVE",
"757 611 CURVE SMOOTH",
"757 689 LINE SMOOTH",
"757 697 OFFCURVE",
"755 702 OFFCURVE",
"750 708 CURVE SMOOTH",
"744 713 OFFCURVE",
"739 715 OFFCURVE",
"731 715 CURVE SMOOTH",
"458 715 LINE SMOOTH",
"450 715 OFFCURVE",
"445 713 OFFCURVE",
"440 708 CURVE SMOOTH",
"434 702 OFFCURVE",
"432 697 OFFCURVE",
"432 689 CURVE SMOOTH",
"432 611 LINE SMOOTH",
"432 603 OFFCURVE",
"434 598 OFFCURVE",
"440 593 CURVE SMOOTH",
"445 587 OFFCURVE",
"450 585 OFFCURVE",
"457 585 CURVE",
"395 505 LINE",
"333 585 LINE",
"338 585 LINE SMOOTH",
"342 585 OFFCURVE",
"345 587 OFFCURVE",
"351 593 CURVE SMOOTH",
"356 598 OFFCURVE",
"358 603 OFFCURVE",
"358 611 CURVE SMOOTH",
"358 689 LINE SMOOTH",
"358 697 OFFCURVE",
"356 702 OFFCURVE",
"351 708 CURVE SMOOTH",
"345 713 OFFCURVE",
"340 715 OFFCURVE",
"332 715 CURVE SMOOTH",
"56 715 LINE SMOOTH",
"48 715 OFFCURVE",
"43 713 OFFCURVE",
"38 708 CURVE SMOOTH",
"32 702 OFFCURVE",
"30 697 OFFCURVE",
"30 689 CURVE SMOOTH",
"30 611 LINE SMOOTH",
"30 603 OFFCURVE",
"32 598 OFFCURVE",
"38 593 CURVE SMOOTH",
"43 587 OFFCURVE",
"48 585 OFFCURVE",
"56 585 CURVE SMOOTH",
"95 585 LINE",
"276 352 LINE",
"92 115 LINE",
"56 115 LINE SMOOTH",
"48 115 OFFCURVE",
"43 113 OFFCURVE",
"38 108 CURVE SMOOTH",
"32 102 OFFCURVE",
"30 97 OFFCURVE",
"30 89 CURVE SMOOTH",
"30 11 LINE SMOOTH",
"30 3 OFFCURVE",
"32 -2 OFFCURVE",
"38 -8 CURVE SMOOTH",
"43 -13 OFFCURVE",
"48 -15 OFFCURVE",
"56 -15 CURVE SMOOTH"
);
},
{
closed = 1;
nodes = (
"60 85 LINE",
"90 85 LINE SMOOTH",
"97 85 OFFCURVE",
"101 86 OFFCURVE",
"105 88 CURVE SMOOTH",
"110 90 OFFCURVE",
"113 93 OFFCURVE",
"117 99 CURVE SMOOTH",
"300 335 LINE SMOOTH",
"305 340 OFFCURVE",
"307 345 OFFCURVE",
"307 352 CURVE SMOOTH",
"307 359 OFFCURVE",
"305 363 OFFCURVE",
"300 369 CURVE SMOOTH",
"120 601 LINE SMOOTH",
"116 607 OFFCURVE",
"113 610 OFFCURVE",
"108 612 CURVE SMOOTH",
"104 614 OFFCURVE",
"100 615 OFFCURVE",
"93 615 CURVE SMOOTH",
"60 615 LINE",
"60 685 LINE",
"328 685 LINE",
"328 615 LINE",
"315 615 LINE SMOOTH",
"306 615 OFFCURVE",
"301 612 OFFCURVE",
"297 604 CURVE SMOOTH",
"296 602 LINE SMOOTH",
"292 594 OFFCURVE",
"293 588 OFFCURVE",
"298 581 CURVE SMOOTH",
"376 481 LINE SMOOTH",
"381 474 OFFCURVE",
"387 472 OFFCURVE",
"394 472 CURVE SMOOTH",
"396 472 LINE SMOOTH",
"403 472 OFFCURVE",
"409 474 OFFCURVE",
"414 481 CURVE SMOOTH",
"492 581 LINE SMOOTH",
"497 588 OFFCURVE",
"498 594 OFFCURVE",
"494 602 CURVE SMOOTH",
"493 604 LINE SMOOTH",
"489 612 OFFCURVE",
"484 615 OFFCURVE",
"475 615 CURVE SMOOTH",
"462 615 LINE",
"462 685 LINE",
"727 685 LINE",
"727 615 LINE",
"697 615 LINE SMOOTH",
"690 615 OFFCURVE",
"686 614 OFFCURVE",
"682 612 CURVE SMOOTH",
"677 610 OFFCURVE",
"674 607 OFFCURVE",
"670 601 CURVE SMOOTH",
"490 369 LINE SMOOTH",
"485 363 OFFCURVE",
"483 359 OFFCURVE",
"483 352 CURVE SMOOTH",
"483 345 OFFCURVE",
"485 340 OFFCURVE",
"490 335 CURVE SMOOTH",
"673 99 LINE SMOOTH",
"677 93 OFFCURVE",
"680 90 OFFCURVE",
"685 88 CURVE SMOOTH",
"689 86 OFFCURVE",
"693 85 OFFCURVE",
"700 85 CURVE SMOOTH",
"727 85 LINE",
"727 15 LINE",
"462 15 LINE",
"462 85 LINE",
"478 85 LINE SMOOTH",
"487 85 OFFCURVE",
"492 88 OFFCURVE",
"496 96 CURVE SMOOTH",
"497 98 LINE SMOOTH",
"501 106 OFFCURVE",
"500 112 OFFCURVE",
"495 119 CURVE SMOOTH",
"414 223 LINE SMOOTH",
"409 230 OFFCURVE",
"403 232 OFFCURVE",
"396 232 CURVE SMOOTH",
"394 232 LINE SMOOTH",
"387 232 OFFCURVE",
"381 230 OFFCURVE",
"376 223 CURVE SMOOTH",
"295 119 LINE SMOOTH",
"290 112 OFFCURVE",
"289 106 OFFCURVE",
"293 98 CURVE SMOOTH",
"294 96 LINE SMOOTH",
"298 88 OFFCURVE",
"303 85 OFFCURVE",
"312 85 CURVE SMOOTH",
"328 85 LINE",
"328 15 LINE",
"60 15 LINE"
);
}
);
width = 787;
},
{
associatedMasterId = "90EC08FA-78FA-4D06-9A9B-D8A14CBAAFF5";
layerId = "781B778F-2A05-45A0-BEE9-3AEA2BEBB3EF";
name = path;
paths = (
{
closed = 1;
nodes = (
"318 0 LINE",
"318 100 LINE",
"274.571 100 LINE",
"370 223.02 LINE",
"465.429 100 LINE",
"422 100 LINE",
"422 0 LINE",
"720 0 LINE",
"717 4 LINE",
"717 100 LINE",
"665.429 100 LINE",
"470 351.934 LINE",
"662.429 600 LINE",
"717 600 LINE",
"717 700 LINE",
"422 700 LINE",
"422 600 LINE",
"462.429 600 LINE",
"370 480.847 LINE",
"277.571 600 LINE",
"318 600 LINE",
"318 700 LINE",
"20 700 LINE",
"20 600 LINE",
"77.571 600 LINE",
"270 351.934 LINE",
"74.571 100 LINE",
"20 100 LINE",
"20 0 LINE"
);
}
);
width = 600;
},
{
associatedMasterId = "90EC08FA-78FA-4D06-9A9B-D8A14CBAAFF5";
layerId = "AC6CD03B-391F-4336-814F-659843994F21";
name = base;
paths = (
{
closed = 1;
nodes = (
"401 600 LINE",
"601 600 LINE",
"601 700 LINE",
"401 700 LINE"
);
},
{
closed = 1;
nodes = (
"299 0 LINE",
"653 0 LINE",
"653 100 LINE",
"299 100 LINE"
);
},
{
closed = 1;
nodes = (
"600 0 LINE",
"200 700 LINE",
"0 700 LINE",
"400 0 LINE"
);
},
{
closed = 1;
nodes = (
"500 700 LINE",
"0 0 LINE",
"100 0 LINE",
"600 700 LINE"
);
},
{
closed = 1;
nodes = (
"-2 0 LINE",
"198 0 LINE",
"198 100 LINE",
"-2 100 LINE"
);
},
{
closed = 1;
nodes = (
"-66 600 LINE",
"288 600 LINE",
"288 700 LINE",
"-66 700 LINE"
);
}
);
width = 600;
},
{
associatedMasterId = "90EC08FA-78FA-4D06-9A9B-D8A14CBAAFF5";
layerId = "E90FDFC2-E7DA-4089-814D-EF373CE383A2";
name = base2;
paths = (
{
closed = 1;
nodes = (
"-3 600 LINE",
"318 600 LINE",
"318 700 LINE",
"-3 700 LINE"
);
},
{
closed = 1;
nodes = (
"422 0 LINE",
"740 0 LINE",
"740 100 LINE",
"422 100 LINE"
);
},
{
closed = 1;
nodes = (
"743 0 LINE",
"200 700 LINE",
"0 700 LINE",
"543 0 LINE"
);
},
{
closed = 1;
nodes = (
"422 700 LINE",
"422 600 LINE",
"740 600 LINE",
"740 700 LINE"
);
},
{
closed = 1;
nodes = (
"-3 100 LINE",
"-3 0 LINE",
"318 0 LINE",
"318 100 LINE"
);
},
{
closed = 1;
nodes = (
"740 700 LINE",
"540 700 LINE",
"-3 0 LINE",
"197 0 LINE"
);
}
);
width = 600;
}
);
unicode = 0058;
},
{
glyphname = Y;
lastChange = "2018-12-09 15:12:55 +0000";
layers = (
{
layerId = "90EC08FA-78FA-4D06-9A9B-D8A14CBAAFF5";
paths = (
{
closed = 1;
nodes = (
"569 -15 LINE SMOOTH",
"577 -15 OFFCURVE",
"582 -13 OFFCURVE",
"588 -8 CURVE SMOOTH",
"593 -2 OFFCURVE",
"595 3 OFFCURVE",
"595 11 CURVE SMOOTH",
"595 89 LINE SMOOTH",
"595 97 OFFCURVE",
"593 102 OFFCURVE",
"588 108 CURVE SMOOTH",
"582 113 OFFCURVE",
"577 115 OFFCURVE",
"569 115 CURVE SMOOTH",
"545 115 LINE",
"545 286 LINE",
"741 585 LINE",
"804 585 LINE SMOOTH",
"812 585 OFFCURVE",
"817 587 OFFCURVE",
"823 593 CURVE SMOOTH",
"828 598 OFFCURVE",
"830 603 OFFCURVE",
"830 611 CURVE SMOOTH",
"830 689 LINE SMOOTH",
"830 697 OFFCURVE",
"828 702 OFFCURVE",
"823 708 CURVE SMOOTH",
"818 714 OFFCURVE",
"812 715 OFFCURVE",
"804 715 CURVE SMOOTH",
"536 715 LINE SMOOTH",
"528 715 OFFCURVE",
"523 713 OFFCURVE",
"518 708 CURVE SMOOTH",
"512 702 OFFCURVE",
"510 697 OFFCURVE",
"510 689 CURVE SMOOTH",
"510 611 LINE SMOOTH",
"510 603 OFFCURVE",
"512 598 OFFCURVE",
"518 593 CURVE SMOOTH",
"524 588 OFFCURVE",
"528 585 OFFCURVE",
"536 585 CURVE SMOOTH",
"547 585 LINE",
"430 428 LINE",
"313 585 LINE",
"324 585 LINE SMOOTH",
"332 585 OFFCURVE",
"337 587 OFFCURVE",
"343 593 CURVE SMOOTH",
"348 598 OFFCURVE",
"350 603 OFFCURVE",
"350 611 CURVE SMOOTH",
"350 689 LINE SMOOTH",
"350 697 OFFCURVE",
"348 702 OFFCURVE",
"343 708 CURVE SMOOTH",
"338 714 OFFCURVE",
"332 715 OFFCURVE",
"324 715 CURVE SMOOTH",
"56 715 LINE SMOOTH",
"48 715 OFFCURVE",
"43 713 OFFCURVE",
"38 708 CURVE SMOOTH",
"32 702 OFFCURVE",
"30 697 OFFCURVE",
"30 689 CURVE SMOOTH",
"30 611 LINE SMOOTH",
"30 603 OFFCURVE",
"32 598 OFFCURVE",
"38 593 CURVE SMOOTH",
"44 588 OFFCURVE",
"48 585 OFFCURVE",
"56 585 CURVE SMOOTH",
"119 585 LINE",
"315 286 LINE",
"315 115 LINE",
"291 115 LINE SMOOTH",
"283 115 OFFCURVE",
"278 113 OFFCURVE",
"273 108 CURVE SMOOTH",
"267 102 OFFCURVE",
"265 97 OFFCURVE",
"265 89 CURVE SMOOTH",
"265 11 LINE SMOOTH",
"265 3 OFFCURVE",
"267 -2 OFFCURVE",
"273 -8 CURVE SMOOTH",
"278 -13 OFFCURVE",
"283 -15 OFFCURVE",
"291 -15 CURVE SMOOTH"
);
},
{
closed = 1;
nodes = (
"295 85 LINE",
"319 85 LINE SMOOTH",
"327 85 OFFCURVE",
"332 87 OFFCURVE",
"338 93 CURVE SMOOTH",
"343 98 OFFCURVE",
"345 103 OFFCURVE",
"345 111 CURVE SMOOTH",
"345 281 LINE SMOOTH",
"345 288 OFFCURVE",
"345 291 OFFCURVE",
"344 294 CURVE SMOOTH",
"343 296 OFFCURVE",
"343 299 OFFCURVE",
"339 305 CURVE SMOOTH",
"146 599 LINE SMOOTH",
"142 605 OFFCURVE",
"139 608 OFFCURVE",
"134 611 CURVE SMOOTH",
"130 614 OFFCURVE",
"125 615 OFFCURVE",
"118 615 CURVE SMOOTH",
"60 615 LINE",
"60 685 LINE",
"320 685 LINE",
"320 615 LINE",
"300 615 LINE SMOOTH",
"292 615 OFFCURVE",
"286 612 OFFCURVE",
"282 605 CURVE SMOOTH",
"281 603 LINE SMOOTH",
"277 596 OFFCURVE",
"275 590 OFFCURVE",
"281 582 CURVE SMOOTH",
"411 400 LINE SMOOTH",
"416 393 OFFCURVE",
"421 390 OFFCURVE",
"429 390 CURVE SMOOTH",
"431 390 LINE SMOOTH",
"439 390 OFFCURVE",
"444 393 OFFCURVE",
"449 400 CURVE SMOOTH",
"579 582 LINE SMOOTH",
"585 590 OFFCURVE",
"583 596 OFFCURVE",
"579 603 CURVE SMOOTH",
"578 605 LINE SMOOTH",
"574 612 OFFCURVE",
"568 615 OFFCURVE",
"560 615 CURVE SMOOTH",
"540 615 LINE",
"540 685 LINE",
"800 685 LINE",
"800 615 LINE",
"742 615 LINE SMOOTH",
"735 615 OFFCURVE",
"730 614 OFFCURVE",
"726 611 CURVE SMOOTH",
"721 608 OFFCURVE",
"718 605 OFFCURVE",
"714 599 CURVE SMOOTH",
"521 305 LINE SMOOTH",
"517 299 OFFCURVE",
"517 296 OFFCURVE",
"516 294 CURVE",
"515 291 OFFCURVE",
"515 288 OFFCURVE",
"515 281 CURVE SMOOTH",
"515 111 LINE SMOOTH",
"515 103 OFFCURVE",
"517 98 OFFCURVE",
"523 93 CURVE SMOOTH",
"528 87 OFFCURVE",
"533 85 OFFCURVE",
"541 85 CURVE SMOOTH",
"565 85 LINE",
"565 15 LINE",
"295 15 LINE"
);
}
);
width = 860;
},
{
associatedMasterId = "90EC08FA-78FA-4D06-9A9B-D8A14CBAAFF5";
layerId = "39355A4A-B4E3-4D29-B7C7-9F16A4677600";
name = path;
paths = (
{
closed = 1;
nodes = (
"-13 600 LINE",
"204 270 LINE",
"204 100 LINE",
"154 100 LINE",
"154 0 LINE",
"454 0 LINE",
"454 100 LINE",
"404 100 LINE",
"404 270 LINE",
"621 600 LINE",
"689 600 LINE",
"689 700 LINE",
"383 700 LINE",
"381 600 LINE",
"421 600 LINE",
"304 434 LINE",
"187 600 LINE",
"228 600 LINE",
"230 700 LINE",
"-81 700 LINE",
"-81 600 LINE"
);
}
);
width = 600;
},
{
associatedMasterId = "90EC08FA-78FA-4D06-9A9B-D8A14CBAAFF5";
guideLines = (
{
position = "{611, 310}";
},
{
angle = 90;
position = "{445, 434}";
}
);
layerId = "5699C099-CBA0-414A-A17E-D5498D39E860";
name = base2;
paths = (
{
closed = 1;
nodes = (
"0 600 LINE",
"290 600 LINE",
"290 700 LINE",
"0 700 LINE"
);
},
{
closed = 1;
nodes = (
"400 700 LINE",
"400 600 LINE",
"690 600 LINE",
"690 700 LINE"
);
},
{
closed = 1;
nodes = (
"445 310 LINE",
"663 700 LINE",
"503 700 LINE",
"285 310 LINE"
);
},
{
closed = 1;
nodes = (
"445 310 LINE",
"245 310 LINE",
"245 100 LINE",
"195 100 LINE",
"195 0 LINE",
"495 0 LINE",
"495 100 LINE",
"445 100 LINE"
);
},
{
closed = 1;
nodes = (
"187 700 LINE",
"27 700 LINE",
"245 310 LINE",
"405 310 LINE"
);
}
);
width = 690;
}
);
unicode = 0059;
},
{
glyphname = Z;
lastChange = "2018-10-11 12:57:12 +0000";
layers = (
{
layerId = "90EC08FA-78FA-4D06-9A9B-D8A14CBAAFF5";
paths = (
{
closed = 1;
nodes = (
"654 -15 LINE SMOOTH",
"662 -15 OFFCURVE",
"667 -13 OFFCURVE",
"673 -8 CURVE SMOOTH",
"678 -2 OFFCURVE",
"680 3 OFFCURVE",
"680 11 CURVE SMOOTH",
"680 139 LINE SMOOTH",
"680 147 OFFCURVE",
"678 152 OFFCURVE",
"673 158 CURVE SMOOTH",
"667 163 OFFCURVE",
"662 165 OFFCURVE",
"654 165 CURVE SMOOTH",
"576 165 LINE SMOOTH",
"568 165 OFFCURVE",
"563 163 OFFCURVE",
"558 158 CURVE SMOOTH",
"552 152 OFFCURVE",
"550 147 OFFCURVE",
"550 139 CURVE SMOOTH",
"550 115 LINE",
"306 115 LINE",
"671 583 LINE SMOOTH",
"675 589 OFFCURVE",
"677 592 OFFCURVE",
"678 595 CURVE",
"680 599 OFFCURVE",
"680 603 OFFCURVE",
"680 609 CURVE SMOOTH",
"680 689 LINE SMOOTH",
"680 697 OFFCURVE",
"678 702 OFFCURVE",
"673 708 CURVE SMOOTH",
"667 713 OFFCURVE",
"662 715 OFFCURVE",
"654 715 CURVE SMOOTH",
"56 715 LINE SMOOTH",
"48 715 OFFCURVE",
"43 713 OFFCURVE",
"38 708 CURVE SMOOTH",
"32 702 OFFCURVE",
"30 697 OFFCURVE",
"30 689 CURVE SMOOTH",
"30 561 LINE SMOOTH",
"30 553 OFFCURVE",
"32 548 OFFCURVE",
"38 543 CURVE SMOOTH",
"43 537 OFFCURVE",
"48 535 OFFCURVE",
"56 535 CURVE SMOOTH",
"134 535 LINE SMOOTH",
"142 535 OFFCURVE",
"147 537 OFFCURVE",
"153 543 CURVE SMOOTH",
"158 548 OFFCURVE",
"160 553 OFFCURVE",
"160 561 CURVE SMOOTH",
"160 585 LINE",
"404 585 LINE",
"39 117 LINE SMOOTH",
"35 111 OFFCURVE",
"33 108 OFFCURVE",
"32 105 CURVE SMOOTH",
"30 101 OFFCURVE",
"30 97 OFFCURVE",
"30 91 CURVE SMOOTH",
"30 11 LINE SMOOTH",
"30 3 OFFCURVE",
"32 -2 OFFCURVE",
"38 -8 CURVE SMOOTH",
"43 -13 OFFCURVE",
"48 -15 OFFCURVE",
"56 -15 CURVE SMOOTH"
);
},
{
closed = 1;
nodes = (
"60 95 LINE",
"439 581 LINE SMOOTH",
"444 588 OFFCURVE",
"445 594 OFFCURVE",
"441 602 CURVE SMOOTH",
"440 604 LINE SMOOTH",
"437 612 OFFCURVE",
"431 615 OFFCURVE",
"423 615 CURVE SMOOTH",
"156 615 LINE SMOOTH",
"148 615 OFFCURVE",
"143 613 OFFCURVE",
"138 608 CURVE SMOOTH",
"132 602 OFFCURVE",
"130 597 OFFCURVE",
"130 589 CURVE SMOOTH",
"130 565 LINE",
"60 565 LINE",
"60 685 LINE",
"650 685 LINE",
"650 605 LINE",
"271 119 LINE SMOOTH",
"266 112 OFFCURVE",
"265 106 OFFCURVE",
"269 98 CURVE SMOOTH",
"270 96 LINE SMOOTH",
"273 88 OFFCURVE",
"279 85 OFFCURVE",
"287 85 CURVE SMOOTH",
"554 85 LINE SMOOTH",
"562 85 OFFCURVE",
"567 87 OFFCURVE",
"573 93 CURVE SMOOTH",
"578 98 OFFCURVE",
"580 103 OFFCURVE",
"580 111 CURVE SMOOTH",
"580 135 LINE",
"650 135 LINE",
"650 15 LINE",
"60 15 LINE"
);
}
);
width = 710;
},
{
associatedMasterId = "90EC08FA-78FA-4D06-9A9B-D8A14CBAAFF5";
layerId = "65CE5686-77F9-446B-851B-0CB68D3A0FAD";
name = path;
paths = (
{
closed = 1;
nodes = (
"620 0 LINE",
"620 150 LINE",
"520 150 LINE",
"520 100 LINE",
"230 100 LINE",
"620 600 LINE",
"620 700 LINE",
"0 700 LINE",
"0 550 LINE",
"100 550 LINE",
"100 600 LINE",
"390 600 LINE",
"0 100 LINE",
"0 0 LINE"
);
}
);
width = 620;
},
{
associatedMasterId = "90EC08FA-78FA-4D06-9A9B-D8A14CBAAFF5";
layerId = "0644A1EC-8BA7-47AE-8847-5DAB8CC08CFE";
name = base;
paths = (
{
closed = 1;
nodes = (
"0 700 LINE",
"0 600 LINE",
"620 600 LINE",
"620 700 LINE"
);
},
{
closed = 1;
nodes = (
"0 0 LINE",
"620 0 LINE",
"620 100 LINE",
"0 100 LINE"
);
},
{
closed = 1;
nodes = (
"620 600 LINE",
"390 600 LINE",
"0 100 LINE",
"230 100 LINE"
);
},
{
closed = 1;
nodes = (
"0 550 LINE",
"100 550 LINE",
"100 650 LINE",
"0 650 LINE"
);
},
{
closed = 1;
nodes = (
"520 150 LINE",
"520 50 LINE",
"620 50 LINE",
"620 150 LINE"
);
}
);
width = 620;
}
);
unicode = 005A;
},
{
glyphname = A.alt1;
lastChange = "2018-12-17 08:55:28 +0000";
layers = (
{
layerId = "90EC08FA-78FA-4D06-9A9B-D8A14CBAAFF5";
paths = (
{
closed = 1;
nodes = (
"244 -15 LINE SMOOTH",
"252 -15 OFFCURVE",
"257 -13 OFFCURVE",
"263 -8 CURVE SMOOTH",
"268 -2 OFFCURVE",
"270 3 OFFCURVE",
"270 11 CURVE SMOOTH",
"270 89 LINE SMOOTH",
"270 97 OFFCURVE",
"268 102 OFFCURVE",
"263 108 CURVE SMOOTH",
"257 113 OFFCURVE",
"252 115 OFFCURVE",
"244 115 CURVE SMOOTH",
"224 115 LINE",
"305 285 LINE",
"512 285 LINE",
"512 11 LINE SMOOTH",
"512 3 OFFCURVE",
"514 -2 OFFCURVE",
"520 -8 CURVE SMOOTH",
"525 -13 OFFCURVE",
"530 -15 OFFCURVE",
"538 -15 CURVE SMOOTH",
"766 -15 LINE SMOOTH",
"774 -15 OFFCURVE",
"779 -13 OFFCURVE",
"785 -8 CURVE SMOOTH",
"790 -2 OFFCURVE",
"792 3 OFFCURVE",
"792 11 CURVE SMOOTH",
"792 89 LINE SMOOTH",
"792 97 OFFCURVE",
"790 102 OFFCURVE",
"785 108 CURVE SMOOTH",
"779 113 OFFCURVE",
"774 115 OFFCURVE",
"766 115 CURVE SMOOTH",
"742 115 LINE",
"742 585 LINE",
"766 585 LINE SMOOTH",
"774 585 OFFCURVE",
"779 587 OFFCURVE",
"785 593 CURVE SMOOTH",
"790 598 OFFCURVE",
"792 603 OFFCURVE",
"792 611 CURVE SMOOTH",
"792 689 LINE SMOOTH",
"792 697 OFFCURVE",
"790 702 OFFCURVE",
"785 708 CURVE SMOOTH",
"779 713 OFFCURVE",
"774 715 OFFCURVE",
"766 715 CURVE SMOOTH",
"295 715 LINE SMOOTH",
"288 715 OFFCURVE",
"283 714 OFFCURVE",
"278 711 CURVE SMOOTH",
"273 708 OFFCURVE",
"270 704 OFFCURVE",
"267 697 CURVE SMOOTH",
"-9 115 LINE",
"-34 115 LINE SMOOTH",
"-42 115 OFFCURVE",
"-47 113 OFFCURVE",
"-52 108 CURVE SMOOTH",
"-58 102 OFFCURVE",
"-60 97 OFFCURVE",
"-60 89 CURVE SMOOTH",
"-60 11 LINE SMOOTH",
"-60 3 OFFCURVE",
"-58 -2 OFFCURVE",
"-52 -8 CURVE SMOOTH",
"-47 -13 OFFCURVE",
"-42 -15 OFFCURVE",
"-34 -15 CURVE SMOOTH"
);
},
{
closed = 1;
nodes = (
"-30 85 LINE",
"-9 85 LINE SMOOTH",
"-2 85 OFFCURVE",
"2 86 OFFCURVE",
"7 89 CURVE SMOOTH",
"12 92 OFFCURVE",
"15 96 OFFCURVE",
"18 103 CURVE SMOOTH",
"294 685 LINE",
"762 685 LINE",
"762 615 LINE",
"738 615 LINE SMOOTH",
"730 615 OFFCURVE",
"725 613 OFFCURVE",
"720 608 CURVE SMOOTH",
"714 602 OFFCURVE",
"712 597 OFFCURVE",
"712 589 CURVE SMOOTH",
"712 111 LINE SMOOTH",
"712 103 OFFCURVE",
"714 98 OFFCURVE",
"720 93 CURVE SMOOTH",
"725 87 OFFCURVE",
"730 85 OFFCURVE",
"738 85 CURVE SMOOTH",
"762 85 LINE",
"762 15 LINE",
"542 15 LINE",
"542 289 LINE SMOOTH",
"542 297 OFFCURVE",
"540 302 OFFCURVE",
"535 308 CURVE SMOOTH",
"529 313 OFFCURVE",
"524 315 OFFCURVE",
"516 315 CURVE SMOOTH",
"305 315 LINE SMOOTH",
"298 315 OFFCURVE",
"294 314 OFFCURVE",
"289 311 CURVE SMOOTH",
"284 308 OFFCURVE",
"281 304 OFFCURVE",
"278 297 CURVE SMOOTH",
"192 117 LINE SMOOTH",
"189 110 OFFCURVE",
"189 103 OFFCURVE",
"193 97 CURVE SMOOTH",
"194 95 LINE SMOOTH",
"199 88 OFFCURVE",
"204 85 OFFCURVE",
"212 85 CURVE SMOOTH",
"240 85 LINE",
"240 15 LINE",
"-30 15 LINE"
);
},
{
closed = 1;
nodes = (
"516 385 LINE SMOOTH",
"524 385 OFFCURVE",
"529 387 OFFCURVE",
"535 393 CURVE SMOOTH",
"540 398 OFFCURVE",
"542 403 OFFCURVE",
"542 411 CURVE SMOOTH",
"542 589 LINE SMOOTH",
"542 597 OFFCURVE",
"540 602 OFFCURVE",
"535 608 CURVE SMOOTH",
"529 613 OFFCURVE",
"524 615 OFFCURVE",
"516 615 CURVE SMOOTH",
"448 615 LINE SMOOTH",
"440 615 OFFCURVE",
"436 614 OFFCURVE",
"431 611 CURVE SMOOTH",
"426 608 OFFCURVE",
"423 604 OFFCURVE",
"420 597 CURVE SMOOTH",
"334 417 LINE SMOOTH",
"331 410 OFFCURVE",
"331 403 OFFCURVE",
"336 397 CURVE SMOOTH",
"337 395 LINE SMOOTH",
"341 388 OFFCURVE",
"346 385 OFFCURVE",
"355 385 CURVE SMOOTH"
);
},
{
closed = 1;
nodes = (
"447 585 LINE",
"512 585 LINE",
"512 415 LINE",
"367 415 LINE"
);
}
);
width = 822;
},
{
associatedMasterId = "90EC08FA-78FA-4D06-9A9B-D8A14CBAAFF5";
layerId = "A620B0A1-3333-4CFE-A402-BAD96905A423";
name = path;
paths = (
{
closed = 1;
nodes = (
"330 0 LINE",
"330 100 LINE",
"275.596 100 LINE",
"370.398 300 LINE",
"602 300 LINE",
"602 0 LINE",
"852 0 LINE",
"852 100 LINE",
"802 100 LINE",
"802 600 LINE",
"852 600 LINE",
"852 700 LINE",
"360 700 LINE",
"75.596 100 LINE",
"20 100 LINE",
"20 0 LINE"
);
},
{
closed = 1;
nodes = (
"512.599 600 LINE",
"602 600 LINE",
"602 400 LINE",
"417.798 400 LINE"
);
}
);
width = 852;
},
{
associatedMasterId = "90EC08FA-78FA-4D06-9A9B-D8A14CBAAFF5";
layerId = "5D7018DF-7F4D-440A-8553-66D77E10ABF2";
name = base;
paths = (
{
closed = 1;
nodes = (
"384 600 LINE",
"852 600 LINE",
"852 700 LINE",
"384 700 LINE"
);
},
{
closed = 1;
nodes = (
"20 0 LINE",
"330 0 LINE",
"330 100 LINE",
"20 100 LINE"
);
},
{
closed = 1;
nodes = (
"250 46 LINE",
"560 700 LINE",
"360 700 LINE",
"50 46 LINE"
);
},
{
closed = 1;
nodes = (
"250 300 LINE",
"650 300 LINE",
"650 400 LINE",
"250 400 LINE"
);
},
{
closed = 1;
nodes = (
"602 100 LINE",
"602 0 LINE",
"852 0 LINE",
"852 100 LINE"
);
},
{
closed = 1;
nodes = (
"602 54 LINE",
"802 54 LINE",
"802 700 LINE",
"602 700 LINE"
);
}
);
width = 852;
}
);
},
{
glyphname = F.alt1;
lastChange = "2018-10-10 15:16:39 +0000";
layers = (
{
layerId = "90EC08FA-78FA-4D06-9A9B-D8A14CBAAFF5";
paths = (
{
closed = 1;
nodes = (
"334 -15 LINE SMOOTH",
"342 -15 OFFCURVE",
"347 -13 OFFCURVE",
"353 -8 CURVE SMOOTH",
"358 -2 OFFCURVE",
"360 3 OFFCURVE",
"360 11 CURVE SMOOTH",
"360 89 LINE SMOOTH",
"360 97 OFFCURVE",
"358 102 OFFCURVE",
"353 108 CURVE SMOOTH",
"347 113 OFFCURVE",
"342 115 OFFCURVE",
"334 115 CURVE SMOOTH",
"310 115 LINE",
"310 285 LINE",
"484 285 LINE SMOOTH",
"492 285 OFFCURVE",
"497 287 OFFCURVE",
"503 293 CURVE SMOOTH",
"508 298 OFFCURVE",
"510 303 OFFCURVE",
"510 311 CURVE SMOOTH",
"510 389 LINE SMOOTH",
"510 397 OFFCURVE",
"508 402 OFFCURVE",
"503 408 CURVE SMOOTH",
"497 413 OFFCURVE",
"492 415 OFFCURVE",
"484 415 CURVE SMOOTH",
"310 415 LINE",
"310 585 LINE",
"560 585 LINE",
"560 311 LINE SMOOTH",
"560 303 OFFCURVE",
"562 298 OFFCURVE",
"568 293 CURVE SMOOTH",
"573 287 OFFCURVE",
"578 285 OFFCURVE",
"586 285 CURVE SMOOTH",
"635 285 LINE SMOOTH",
"642 285 OFFCURVE",
"647 286 OFFCURVE",
"652 289 CURVE SMOOTH",
"656 292 OFFCURVE",
"660 295 OFFCURVE",
"663 302 CURVE SMOOTH",
"863 683 LINE SMOOTH",
"867 690 OFFCURVE",
"866 696 OFFCURVE",
"862 703 CURVE SMOOTH",
"861 705 LINE SMOOTH",
"857 712 OFFCURVE",
"851 715 OFFCURVE",
"843 715 CURVE SMOOTH",
"56 715 LINE SMOOTH",
"48 715 OFFCURVE",
"43 713 OFFCURVE",
"38 708 CURVE SMOOTH",
"32 702 OFFCURVE",
"30 697 OFFCURVE",
"30 689 CURVE SMOOTH",
"30 611 LINE SMOOTH",
"30 603 OFFCURVE",
"32 598 OFFCURVE",
"38 593 CURVE SMOOTH",
"43 587 OFFCURVE",
"48 585 OFFCURVE",
"56 585 CURVE SMOOTH",
"80 585 LINE",
"80 115 LINE",
"56 115 LINE SMOOTH",
"48 115 OFFCURVE",
"43 113 OFFCURVE",
"38 108 CURVE SMOOTH",
"32 102 OFFCURVE",
"30 97 OFFCURVE",
"30 89 CURVE SMOOTH",
"30 11 LINE SMOOTH",
"30 3 OFFCURVE",
"32 -2 OFFCURVE",
"38 -8 CURVE SMOOTH",
"43 -13 OFFCURVE",
"48 -15 OFFCURVE",
"56 -15 CURVE SMOOTH"
);
},
{
closed = 1;
nodes = (
"60 85 LINE",
"84 85 LINE SMOOTH",
"92 85 OFFCURVE",
"97 87 OFFCURVE",
"103 93 CURVE SMOOTH",
"108 98 OFFCURVE",
"110 103 OFFCURVE",
"110 111 CURVE SMOOTH",
"110 589 LINE SMOOTH",
"110 597 OFFCURVE",
"108 602 OFFCURVE",
"103 608 CURVE SMOOTH",
"97 613 OFFCURVE",
"92 615 OFFCURVE",
"84 615 CURVE SMOOTH",
"60 615 LINE",
"60 685 LINE",
"830 685 LINE",
"636 315 LINE",
"590 315 LINE",
"590 589 LINE SMOOTH",
"590 597 OFFCURVE",
"588 602 OFFCURVE",
"583 608 CURVE SMOOTH",
"577 613 OFFCURVE",
"572 615 OFFCURVE",
"564 615 CURVE SMOOTH",
"306 615 LINE SMOOTH",
"298 615 OFFCURVE",
"293 613 OFFCURVE",
"288 608 CURVE SMOOTH",
"282 602 OFFCURVE",
"280 597 OFFCURVE",
"280 589 CURVE SMOOTH",
"280 411 LINE SMOOTH",
"280 403 OFFCURVE",
"282 398 OFFCURVE",
"288 393 CURVE SMOOTH",
"293 387 OFFCURVE",
"298 385 OFFCURVE",
"306 385 CURVE SMOOTH",
"480 385 LINE",
"480 315 LINE",
"306 315 LINE SMOOTH",
"298 315 OFFCURVE",
"293 313 OFFCURVE",
"288 308 CURVE SMOOTH",
"282 302 OFFCURVE",
"280 297 OFFCURVE",
"280 289 CURVE SMOOTH",
"280 111 LINE SMOOTH",
"280 103 OFFCURVE",
"282 98 OFFCURVE",
"288 93 CURVE SMOOTH",
"293 87 OFFCURVE",
"298 85 OFFCURVE",
"306 85 CURVE SMOOTH",
"330 85 LINE",
"330 15 LINE",
"60 15 LINE"
);
}
);
width = 896;
},
{
associatedMasterId = "90EC08FA-78FA-4D06-9A9B-D8A14CBAAFF5";
layerId = "22739F4D-AC7C-4031-AC60-AD7C4509F7BF";
name = path;
paths = (
{
closed = 1;
nodes = (
"0 600 LINE",
"50 600 LINE",
"50 100 LINE",
"0 100 LINE",
"0 0 LINE",
"300 0 LINE",
"300 100 LINE",
"250 100 LINE",
"250 300 LINE",
"450 300 LINE",
"450 400 LINE",
"250 400 LINE",
"250 600 LINE",
"530 600 LINE",
"530 300 LINE",
"600 300 LINE",
"810 700 LINE",
"0 700 LINE"
);
}
);
width = 810;
}
);
},
{
glyphname = V.alt1;
lastChange = "2018-12-03 12:56:02 +0000";
layers = (
{
layerId = "90EC08FA-78FA-4D06-9A9B-D8A14CBAAFF5";
paths = (
{
closed = 1;
nodes = (
"527 -15 LINE SMOOTH",
"534 -15 OFFCURVE",
"539 -14 OFFCURVE",
"544 -11 CURVE SMOOTH",
"549 -8 OFFCURVE",
"552 -4 OFFCURVE",
"555 3 CURVE SMOOTH",
"831 585 LINE",
"866 585 LINE SMOOTH",
"874 585 OFFCURVE",
"879 587 OFFCURVE",
"885 593 CURVE SMOOTH",
"890 598 OFFCURVE",
"892 603 OFFCURVE",
"892 611 CURVE SMOOTH",
"892 689 LINE SMOOTH",
"892 697 OFFCURVE",
"890 702 OFFCURVE",
"885 708 CURVE SMOOTH",
"879 713 OFFCURVE",
"874 715 OFFCURVE",
"866 715 CURVE SMOOTH",
"578 715 LINE SMOOTH",
"570 715 OFFCURVE",
"565 713 OFFCURVE",
"560 708 CURVE SMOOTH",
"554 702 OFFCURVE",
"552 697 OFFCURVE",
"552 689 CURVE SMOOTH",
"552 611 LINE SMOOTH",
"552 603 OFFCURVE",
"554 598 OFFCURVE",
"560 593 CURVE SMOOTH",
"565 587 OFFCURVE",
"570 585 OFFCURVE",
"578 585 CURVE SMOOTH",
"598 585 LINE",
"375 115 LINE",
"310 115 LINE",
"310 689 LINE SMOOTH",
"310 697 OFFCURVE",
"308 702 OFFCURVE",
"303 708 CURVE SMOOTH",
"297 713 OFFCURVE",
"292 715 OFFCURVE",
"284 715 CURVE SMOOTH",
"56 715 LINE SMOOTH",
"48 715 OFFCURVE",
"43 713 OFFCURVE",
"38 708 CURVE SMOOTH",
"32 702 OFFCURVE",
"30 697 OFFCURVE",
"30 689 CURVE SMOOTH",
"30 611 LINE SMOOTH",
"30 603 OFFCURVE",
"32 598 OFFCURVE",
"38 593 CURVE SMOOTH",
"43 587 OFFCURVE",
"48 585 OFFCURVE",
"56 585 CURVE SMOOTH",
"80 585 LINE",
"80 11 LINE SMOOTH",
"80 3 OFFCURVE",
"82 -2 OFFCURVE",
"88 -8 CURVE SMOOTH",
"93 -13 OFFCURVE",
"98 -15 OFFCURVE",
"106 -15 CURVE SMOOTH"
);
},
{
closed = 1;
nodes = (
"110 589 LINE SMOOTH",
"110 597 OFFCURVE",
"108 602 OFFCURVE",
"103 608 CURVE SMOOTH",
"97 613 OFFCURVE",
"92 615 OFFCURVE",
"84 615 CURVE SMOOTH",
"60 615 LINE",
"60 685 LINE",
"280 685 LINE",
"280 111 LINE SMOOTH",
"280 103 OFFCURVE",
"282 98 OFFCURVE",
"288 93 CURVE SMOOTH",
"293 87 OFFCURVE",
"298 85 OFFCURVE",
"306 85 CURVE SMOOTH",
"374 85 LINE SMOOTH",
"382 85 OFFCURVE",
"386 86 OFFCURVE",
"391 89 CURVE SMOOTH",
"396 92 OFFCURVE",
"399 96 OFFCURVE",
"402 103 CURVE SMOOTH",
"630 583 LINE SMOOTH",
"633 590 OFFCURVE",
"633 597 OFFCURVE",
"629 603 CURVE SMOOTH",
"628 605 LINE SMOOTH",
"623 612 OFFCURVE",
"618 615 OFFCURVE",
"610 615 CURVE SMOOTH",
"582 615 LINE",
"582 685 LINE",
"862 685 LINE",
"862 615 LINE",
"831 615 LINE SMOOTH",
"824 615 OFFCURVE",
"820 614 OFFCURVE",
"815 611 CURVE SMOOTH",
"810 608 OFFCURVE",
"807 604 OFFCURVE",
"804 597 CURVE SMOOTH",
"528 15 LINE",
"110 15 LINE"
);
}
);
width = 832;
},
{
associatedMasterId = "90EC08FA-78FA-4D06-9A9B-D8A14CBAAFF5";
layerId = "5D2D4F87-C882-4874-8293-C84E37A36AB9";
name = path;
paths = (
{
closed = 1;
nodes = (
"70 600 LINE",
"70 0 LINE",
"512 0 LINE",
"796.404 600 LINE",
"852 600 LINE",
"852 700 LINE",
"542 700 LINE",
"542 600 LINE",
"596.404 600 LINE",
"359.401 100 LINE",
"270 100 LINE",
"270 700 LINE",
"20 700 LINE",
"20 600 LINE"
);
}
);
width = 600;
},
{
associatedMasterId = "90EC08FA-78FA-4D06-9A9B-D8A14CBAAFF5";
layerId = "52EBFF94-965D-4F29-867E-E87FB730F5F8";
name = base;
paths = (
{
closed = 1;
nodes = (
"488 100 LINE",
"110 100 LINE",
"110 0 LINE",
"488 0 LINE"
);
},
{
closed = 1;
nodes = (
"852 700 LINE",
"542 700 LINE",
"542 600 LINE",
"852 600 LINE"
);
},
{
closed = 1;
nodes = (
"622 654 LINE",
"312 0 LINE",
"512 0 LINE",
"822 654 LINE"
);
},
{
closed = 1;
nodes = (
"270 600 LINE",
"270 700 LINE",
"20 700 LINE",
"20 600 LINE"
);
},
{
closed = 1;
nodes = (
"270 646 LINE",
"70 646 LINE",
"70 0 LINE",
"270 0 LINE"
);
}
);
width = 600;
}
);
},
{
color = 0;
glyphname = W.alt1;
lastChange = "2018-12-03 12:56:18 +0000";
layers = (
{
layerId = "90EC08FA-78FA-4D06-9A9B-D8A14CBAAFF5";
paths = (
{
closed = 1;
nodes = (
"507 -15 LINE SMOOTH",
"514 -15 OFFCURVE",
"519 -14 OFFCURVE",
"524 -10 CURVE SMOOTH",
"529 -6 OFFCURVE",
"532 -2 OFFCURVE",
"534 5 CURVE SMOOTH",
"650 356 LINE",
"740 6 LINE SMOOTH",
"742 -1 OFFCURVE",
"745 -5 OFFCURVE",
"750 -9 CURVE SMOOTH",
"755 -13 OFFCURVE",
"760 -15 OFFCURVE",
"767 -15 CURVE SMOOTH",
"1117 -15 LINE SMOOTH",
"1124 -15 OFFCURVE",
"1129 -14 OFFCURVE",
"1134 -10 CURVE SMOOTH",
"1139 -6 OFFCURVE",
"1142 -2 OFFCURVE",
"1144 5 CURVE SMOOTH",
"1335 585 LINE",
"1389 585 LINE SMOOTH",
"1397 585 OFFCURVE",
"1402 587 OFFCURVE",
"1408 593 CURVE SMOOTH",
"1413 598 OFFCURVE",
"1415 603 OFFCURVE",
"1415 611 CURVE SMOOTH",
"1415 689 LINE SMOOTH",
"1415 697 OFFCURVE",
"1413 702 OFFCURVE",
"1408 708 CURVE SMOOTH",
"1402 713 OFFCURVE",
"1397 715 OFFCURVE",
"1389 715 CURVE SMOOTH",
"1197 715 LINE SMOOTH",
"1190 715 OFFCURVE",
"1185 714 OFFCURVE",
"1180 710 CURVE SMOOTH",
"1175 707 OFFCURVE",
"1172 703 OFFCURVE",
"1169 696 CURVE SMOOTH",
"954 115 LINE",
"938 115 LINE",
"764 694 LINE SMOOTH",
"762 702 OFFCURVE",
"759 706 OFFCURVE",
"754 710 CURVE SMOOTH",
"749 713 OFFCURVE",
"744 715 OFFCURVE",
"737 715 CURVE SMOOTH",
"587 715 LINE SMOOTH",
"580 715 OFFCURVE",
"575 714 OFFCURVE",
"570 710 CURVE SMOOTH",
"565 707 OFFCURVE",
"562 703 OFFCURVE",
"559 696 CURVE SMOOTH",
"344 115 LINE",
"290 115 LINE",
"290 689 LINE SMOOTH",
"290 697 OFFCURVE",
"288 702 OFFCURVE",
"283 708 CURVE SMOOTH",
"277 713 OFFCURVE",
"272 715 OFFCURVE",
"264 715 CURVE SMOOTH",
"36 715 LINE SMOOTH",
"28 715 OFFCURVE",
"23 713 OFFCURVE",
"18 708 CURVE SMOOTH",
"12 702 OFFCURVE",
"10 697 OFFCURVE",
"10 689 CURVE SMOOTH",
"10 611 LINE SMOOTH",
"10 603 OFFCURVE",
"12 598 OFFCURVE",
"18 593 CURVE SMOOTH",
"23 587 OFFCURVE",
"28 585 OFFCURVE",
"36 585 CURVE SMOOTH",
"60 585 LINE",
"60 11 LINE SMOOTH",
"60 3 OFFCURVE",
"62 -2 OFFCURVE",
"68 -8 CURVE SMOOTH",
"73 -13 OFFCURVE",
"78 -15 OFFCURVE",
"86 -15 CURVE SMOOTH"
);
},
{
closed = 1;
nodes = (
"90 589 LINE SMOOTH",
"90 597 OFFCURVE",
"88 602 OFFCURVE",
"83 608 CURVE SMOOTH",
"77 613 OFFCURVE",
"72 615 OFFCURVE",
"64 615 CURVE SMOOTH",
"40 615 LINE",
"40 685 LINE",
"260 685 LINE",
"260 111 LINE SMOOTH",
"260 103 OFFCURVE",
"262 98 OFFCURVE",
"268 93 CURVE SMOOTH",
"273 87 OFFCURVE",
"278 85 OFFCURVE",
"286 85 CURVE SMOOTH",
"344 85 LINE SMOOTH",
"351 85 OFFCURVE",
"356 86 OFFCURVE",
"361 90 CURVE SMOOTH",
"366 93 OFFCURVE",
"369 97 OFFCURVE",
"372 104 CURVE SMOOTH",
"587 685 LINE",
"736 685 LINE",
"910 106 LINE SMOOTH",
"912 98 OFFCURVE",
"915 94 OFFCURVE",
"920 90 CURVE SMOOTH",
"925 87 OFFCURVE",
"930 85 OFFCURVE",
"937 85 CURVE SMOOTH",
"954 85 LINE SMOOTH",
"961 85 OFFCURVE",
"966 86 OFFCURVE",
"971 90 CURVE SMOOTH",
"976 93 OFFCURVE",
"979 97 OFFCURVE",
"982 104 CURVE SMOOTH",
"1197 685 LINE",
"1385 685 LINE",
"1385 615 LINE",
"1334 615 LINE SMOOTH",
"1327 615 OFFCURVE",
"1322 614 OFFCURVE",
"1317 610 CURVE SMOOTH",
"1312 606 OFFCURVE",
"1309 602 OFFCURVE",
"1307 595 CURVE SMOOTH",
"1116 15 LINE",
"769 15 LINE",
"669 401 LINE SMOOTH",
"667 409 OFFCURVE",
"662 414 OFFCURVE",
"653 414 CURVE SMOOTH",
"651 414 LINE SMOOTH",
"642 414 OFFCURVE",
"636 410 OFFCURVE",
"633 402 CURVE SMOOTH",
"506 15 LINE",
"90 15 LINE"
);
}
);
width = 1425;
},
{
associatedMasterId = "90EC08FA-78FA-4D06-9A9B-D8A14CBAAFF5";
layerId = "799DAB7F-A03A-4503-970D-81303427B327";
name = path;
paths = (
{
closed = 1;
nodes = (
"80 600 LINE",
"80 0 LINE",
"522 0 LINE",
"685 343.877 LINE",
"685 0 LINE",
"1074 0 LINE",
"1358.404 600 LINE",
"1437 600 LINE",
"1437 700 LINE",
"1127 700 LINE",
"1127 600 LINE",
"1158.404 600 LINE",
"921.401 100 LINE",
"832 100 LINE",
"832 600 LINE",
"885 600 LINE",
"885 700 LINE",
"575 700 LINE",
"575 600 LINE",
"606.404 600 LINE",
"369.401 100 LINE",
"280 100 LINE",
"280 700 LINE",
"30 700 LINE",
"30 600 LINE"
);
}
);
width = 1467;
},
{
associatedMasterId = "90EC08FA-78FA-4D06-9A9B-D8A14CBAAFF5";
layerId = "AAEC5395-00D3-484A-8023-949FBA4725F9";
name = base;
paths = (
{
closed = 1;
nodes = (
"875 700 LINE",
"565 700 LINE",
"565 600 LINE",
"875 600 LINE"
);
},
{
closed = 1;
nodes = (
"622 654 LINE",
"312 0 LINE",
"512 0 LINE",
"822 654 LINE"
);
},
{
closed = 1;
nodes = (
"270 600 LINE",
"270 700 LINE",
"20 700 LINE",
"20 600 LINE"
);
},
{
closed = 1;
nodes = (
"270 646 LINE",
"70 646 LINE",
"70 0 LINE",
"270 0 LINE"
);
},
{
closed = 1;
nodes = (
"444 100 LINE",
"123 100 LINE",
"123 0 LINE",
"444 0 LINE"
);
},
{
closed = 1;
nodes = (
"875 700 LINE",
"565 700 LINE",
"565 600 LINE",
"875 600 LINE"
);
},
{
closed = 1;
nodes = (
"622 654 LINE",
"312 0 LINE",
"512 0 LINE",
"822 654 LINE"
);
},
{
closed = 1;
nodes = (
"270 600 LINE",
"270 700 LINE",
"20 700 LINE",
"20 600 LINE"
);
},
{
closed = 1;
nodes = (
"270 646 LINE",
"70 646 LINE",
"70 0 LINE",
"270 0 LINE"
);
},
{
closed = 1;
nodes = (
"444 100 LINE",
"123 100 LINE",
"123 0 LINE",
"444 0 LINE"
);
},
{
closed = 1;
nodes = (
"1427 708 LINE",
"1117 708 LINE",
"1117 608 LINE",
"1427 608 LINE"
);
},
{
closed = 1;
nodes = (
"1174 662 LINE",
"864 8 LINE",
"1064 8 LINE",
"1374 662 LINE"
);
},
{
closed = 1;
nodes = (
"822 654 LINE",
"622 654 LINE",
"622 8 LINE",
"822 8 LINE"
);
},
{
closed = 1;
nodes = (
"996 108 LINE",
"675 108 LINE",
"675 8 LINE",
"996 8 LINE"
);
}
);
width = 600;
},
{
associatedMasterId = "90EC08FA-78FA-4D06-9A9B-D8A14CBAAFF5";
layerId = "70ADCD48-B1F8-4F31-976B-A51A460B4659";
name = base2;
paths = (
{
closed = 1;
nodes = (
"572 654 LINE",
"312 0 LINE",
"512 0 LINE",
"772 654 LINE"
);
},
{
closed = 1;
nodes = (
"270 600 LINE",
"270 700 LINE",
"20 700 LINE",
"20 600 LINE"
);
},
{
closed = 1;
nodes = (
"270 646 LINE",
"70 646 LINE",
"70 0 LINE",
"270 0 LINE"
);
},
{
closed = 1;
nodes = (
"444 100 LINE",
"123 100 LINE",
"123 0 LINE",
"444 0 LINE"
);
},
{
closed = 1;
nodes = (
"572 654 LINE",
"312 0 LINE",
"512 0 LINE",
"772 654 LINE"
);
},
{
closed = 1;
nodes = (
"270 600 LINE",
"270 700 LINE",
"20 700 LINE",
"20 600 LINE"
);
},
{
closed = 1;
nodes = (
"270 646 LINE",
"70 646 LINE",
"70 0 LINE",
"270 0 LINE"
);
},
{
closed = 1;
nodes = (
"444 100 LINE",
"123 100 LINE",
"123 0 LINE",
"444 0 LINE"
);
},
{
closed = 1;
nodes = (
"782 0 LINE",
"982 0 LINE",
"772 654 LINE",
"572 654 LINE"
);
},
{
closed = 1;
nodes = (
"1171 0 LINE",
"1171 100 LINE",
"850 100 LINE",
"850 0 LINE"
);
},
{
closed = 1;
nodes = (
"782 0 LINE",
"982 0 LINE",
"772 654 LINE",
"572 654 LINE"
);
},
{
closed = 1;
nodes = (
"1171 0 LINE",
"1171 100 LINE",
"850 100 LINE",
"850 0 LINE"
);
},
{
closed = 1;
nodes = (
"1545 700 LINE",
"1235 700 LINE",
"1235 600 LINE",
"1545 600 LINE"
);
},
{
closed = 1;
nodes = (
"1292 654 LINE",
"982 0 LINE",
"1182 0 LINE",
"1492 654 LINE"
);
}
);
width = 600;
},
{
associatedMasterId = "90EC08FA-78FA-4D06-9A9B-D8A14CBAAFF5";
layerId = "3CFE15C3-90C8-4F3C-9E92-E3CB7FAF300B";
name = "Nov 6 18, 16:13";
paths = (
{
closed = 1;
nodes = (
"527 -15 LINE SMOOTH",
"534 -15 OFFCURVE",
"539 -14 OFFCURVE",
"544 -11 CURVE SMOOTH",
"549 -8 OFFCURVE",
"552 -4 OFFCURVE",
"555 3 CURVE SMOOTH",
"685 277 LINE",
"685 11 LINE SMOOTH",
"685 3 OFFCURVE",
"687 -2 OFFCURVE",
"693 -8 CURVE SMOOTH",
"698 -13 OFFCURVE",
"703 -15 OFFCURVE",
"711 -15 CURVE SMOOTH",
"1079 -15 LINE SMOOTH",
"1086 -15 OFFCURVE",
"1091 -14 OFFCURVE",
"1096 -11 CURVE SMOOTH",
"1101 -8 OFFCURVE",
"1104 -4 OFFCURVE",
"1107 3 CURVE SMOOTH",
"1383 585 LINE",
"1441 585 LINE SMOOTH",
"1449 585 OFFCURVE",
"1454 587 OFFCURVE",
"1460 593 CURVE SMOOTH",
"1465 598 OFFCURVE",
"1467 603 OFFCURVE",
"1467 611 CURVE SMOOTH",
"1467 689 LINE SMOOTH",
"1467 697 OFFCURVE",
"1465 702 OFFCURVE",
"1460 708 CURVE SMOOTH",
"1454 713 OFFCURVE",
"1449 715 OFFCURVE",
"1441 715 CURVE SMOOTH",
"1153 715 LINE SMOOTH",
"1145 715 OFFCURVE",
"1140 713 OFFCURVE",
"1135 708 CURVE SMOOTH",
"1129 702 OFFCURVE",
"1127 697 OFFCURVE",
"1127 689 CURVE SMOOTH",
"1127 611 LINE SMOOTH",
"1127 603 OFFCURVE",
"1129 598 OFFCURVE",
"1135 593 CURVE SMOOTH",
"1140 587 OFFCURVE",
"1144 585 OFFCURVE",
"1150 585 CURVE",
"927 115 LINE",
"862 115 LINE",
"862 585 LINE",
"889 585 LINE SMOOTH",
"897 585 OFFCURVE",
"902 587 OFFCURVE",
"908 593 CURVE SMOOTH",
"913 598 OFFCURVE",
"915 603 OFFCURVE",
"915 611 CURVE SMOOTH",
"915 689 LINE SMOOTH",
"915 697 OFFCURVE",
"913 702 OFFCURVE",
"908 708 CURVE SMOOTH",
"902 713 OFFCURVE",
"897 715 OFFCURVE",
"889 715 CURVE SMOOTH",
"601 715 LINE SMOOTH",
"593 715 OFFCURVE",
"588 713 OFFCURVE",
"583 708 CURVE SMOOTH",
"577 702 OFFCURVE",
"575 697 OFFCURVE",
"575 689 CURVE SMOOTH",
"575 611 LINE SMOOTH",
"575 603 OFFCURVE",
"577 598 OFFCURVE",
"583 593 CURVE SMOOTH",
"588 587 OFFCURVE",
"592 585 OFFCURVE",
"598 585 CURVE",
"375 115 LINE",
"310 115 LINE",
"310 689 LINE SMOOTH",
"310 697 OFFCURVE",
"308 702 OFFCURVE",
"303 708 CURVE SMOOTH",
"297 713 OFFCURVE",
"292 715 OFFCURVE",
"284 715 CURVE SMOOTH",
"56 715 LINE SMOOTH",
"48 715 OFFCURVE",
"43 713 OFFCURVE",
"38 708 CURVE SMOOTH",
"32 702 OFFCURVE",
"30 697 OFFCURVE",
"30 689 CURVE SMOOTH",
"30 611 LINE SMOOTH",
"30 603 OFFCURVE",
"32 598 OFFCURVE",
"38 593 CURVE SMOOTH",
"43 587 OFFCURVE",
"48 585 OFFCURVE",
"56 585 CURVE SMOOTH",
"80 585 LINE",
"80 11 LINE SMOOTH",
"80 3 OFFCURVE",
"82 -2 OFFCURVE",
"88 -8 CURVE SMOOTH",
"93 -13 OFFCURVE",
"98 -15 OFFCURVE",
"106 -15 CURVE SMOOTH"
);
},
{
closed = 1;
nodes = (
"110 589 LINE SMOOTH",
"110 597 OFFCURVE",
"108 602 OFFCURVE",
"103 608 CURVE SMOOTH",
"97 613 OFFCURVE",
"92 615 OFFCURVE",
"84 615 CURVE SMOOTH",
"60 615 LINE",
"60 685 LINE",
"280 685 LINE",
"280 111 LINE SMOOTH",
"280 103 OFFCURVE",
"282 98 OFFCURVE",
"288 93 CURVE SMOOTH",
"293 87 OFFCURVE",
"298 85 OFFCURVE",
"306 85 CURVE SMOOTH",
"374 85 LINE SMOOTH",
"382 85 OFFCURVE",
"386 86 OFFCURVE",
"391 89 CURVE SMOOTH",
"396 92 OFFCURVE",
"399 96 OFFCURVE",
"402 103 CURVE SMOOTH",
"630 583 LINE SMOOTH",
"633 590 OFFCURVE",
"633 597 OFFCURVE",
"629 603 CURVE SMOOTH",
"628 605 LINE SMOOTH",
"623 612 OFFCURVE",
"618 615 OFFCURVE",
"610 615 CURVE SMOOTH",
"605 615 LINE",
"605 685 LINE",
"885 685 LINE",
"885 615 LINE",
"858 615 LINE SMOOTH",
"850 615 OFFCURVE",
"845 613 OFFCURVE",
"840 608 CURVE SMOOTH",
"834 602 OFFCURVE",
"832 597 OFFCURVE",
"832 589 CURVE SMOOTH",
"832 111 LINE SMOOTH",
"832 103 OFFCURVE",
"834 98 OFFCURVE",
"840 93 CURVE SMOOTH",
"845 87 OFFCURVE",
"850 85 OFFCURVE",
"858 85 CURVE SMOOTH",
"926 85 LINE SMOOTH",
"934 85 OFFCURVE",
"938 86 OFFCURVE",
"943 89 CURVE SMOOTH",
"948 92 OFFCURVE",
"951 96 OFFCURVE",
"954 103 CURVE SMOOTH",
"1182 583 LINE SMOOTH",
"1185 590 OFFCURVE",
"1185 597 OFFCURVE",
"1181 603 CURVE SMOOTH",
"1180 605 LINE SMOOTH",
"1175 612 OFFCURVE",
"1170 615 OFFCURVE",
"1162 615 CURVE SMOOTH",
"1157 615 LINE",
"1157 685 LINE",
"1437 685 LINE",
"1437 615 LINE",
"1383 615 LINE SMOOTH",
"1376 615 OFFCURVE",
"1372 614 OFFCURVE",
"1367 611 CURVE SMOOTH",
"1362 608 OFFCURVE",
"1359 604 OFFCURVE",
"1356 597 CURVE SMOOTH",
"1080 15 LINE",
"715 15 LINE",
"715 330 LINE SMOOTH",
"715 339 OFFCURVE",
"711 345 OFFCURVE",
"702 347 CURVE SMOOTH",
"700 347 LINE SMOOTH",
"691 349 OFFCURVE",
"685 346 OFFCURVE",
"681 338 CURVE SMOOTH",
"528 15 LINE",
"110 15 LINE"
);
}
);
width = 1497;
},
{
associatedMasterId = "90EC08FA-78FA-4D06-9A9B-D8A14CBAAFF5";
layerId = "CA0ED68C-7400-47C4-8D20-9526C95EA5AA";
name = "Nov 6 18, 16:15";
paths = (
{
closed = 1;
nodes = (
"572 700 LINE",
"312 0 LINE",
"512 0 LINE",
"742 700 LINE"
);
},
{
closed = 1;
nodes = (
"270 600 LINE",
"270 700 LINE",
"20 700 LINE",
"20 600 LINE"
);
},
{
closed = 1;
nodes = (
"270 646 LINE",
"70 646 LINE",
"70 0 LINE",
"270 0 LINE"
);
},
{
closed = 1;
nodes = (
"444 100 LINE",
"123 100 LINE",
"123 0 LINE",
"444 0 LINE"
);
},
{
closed = 1;
nodes = (
"572 700 LINE",
"312 0 LINE",
"512 0 LINE",
"742 700 LINE"
);
},
{
closed = 1;
nodes = (
"270 600 LINE",
"270 700 LINE",
"20 700 LINE",
"20 600 LINE"
);
},
{
closed = 1;
nodes = (
"270 646 LINE",
"70 646 LINE",
"70 0 LINE",
"270 0 LINE"
);
},
{
closed = 1;
nodes = (
"444 100 LINE",
"123 100 LINE",
"123 0 LINE",
"444 0 LINE"
);
},
{
closed = 1;
nodes = (
"752 0 LINE",
"952 0 LINE",
"742 700 LINE",
"572 700 LINE"
);
},
{
closed = 1;
nodes = (
"1091 0 LINE",
"1091 100 LINE",
"820 100 LINE",
"820 0 LINE"
);
},
{
closed = 1;
nodes = (
"752 0 LINE",
"952 0 LINE",
"742 700 LINE",
"572 700 LINE"
);
},
{
closed = 1;
nodes = (
"1395 700 LINE",
"1245 700 LINE",
"1245 600 LINE",
"1395 600 LINE"
);
},
{
closed = 1;
nodes = (
"1182 700 LINE",
"922 0 LINE",
"1122 0 LINE",
"1352 700 LINE"
);
}
);
width = 1497;
}
);
},
{
glyphname = A.alt2;
lastChange = "2018-12-17 08:55:23 +0000";
layers = (
{
layerId = "90EC08FA-78FA-4D06-9A9B-D8A14CBAAFF5";
paths = (
{
closed = 1;
nodes = (
"864 -15 OFFCURVE",
"869 -13 OFFCURVE",
"874 -8 CURVE SMOOTH",
"880 -2 OFFCURVE",
"882 3 OFFCURVE",
"882 11 CURVE SMOOTH",
"882 89 LINE SMOOTH",
"882 97 OFFCURVE",
"880 102 OFFCURVE",
"874 108 CURVE SMOOTH",
"869 113 OFFCURVE",
"864 115 OFFCURVE",
"856 115 CURVE SMOOTH",
"831 115 LINE",
"555 697 LINE SMOOTH",
"552 704 OFFCURVE",
"549 708 OFFCURVE",
"544 711 CURVE SMOOTH",
"539 714 OFFCURVE",
"534 715 OFFCURVE",
"527 715 CURVE SMOOTH",
"56 715 LINE SMOOTH",
"48 715 OFFCURVE",
"43 713 OFFCURVE",
"37 708 CURVE SMOOTH",
"32 702 OFFCURVE",
"30 697 OFFCURVE",
"30 689 CURVE SMOOTH",
"30 611 LINE SMOOTH",
"30 603 OFFCURVE",
"32 598 OFFCURVE",
"37 593 CURVE SMOOTH",
"43 587 OFFCURVE",
"48 585 OFFCURVE",
"56 585 CURVE SMOOTH",
"80 585 LINE",
"80 115 LINE",
"56 115 LINE SMOOTH",
"48 115 OFFCURVE",
"43 113 OFFCURVE",
"37 108 CURVE SMOOTH",
"32 102 OFFCURVE",
"30 97 OFFCURVE",
"30 89 CURVE SMOOTH",
"30 11 LINE SMOOTH",
"30 3 OFFCURVE",
"32 -2 OFFCURVE",
"37 -8 CURVE SMOOTH",
"43 -13 OFFCURVE",
"48 -15 OFFCURVE",
"56 -15 CURVE SMOOTH",
"284 -15 LINE SMOOTH",
"292 -15 OFFCURVE",
"297 -13 OFFCURVE",
"302 -8 CURVE SMOOTH",
"308 -2 OFFCURVE",
"310 3 OFFCURVE",
"310 11 CURVE SMOOTH",
"310 285 LINE",
"517 285 LINE",
"598 115 LINE",
"578 115 LINE SMOOTH",
"570 115 OFFCURVE",
"565 113 OFFCURVE",
"559 108 CURVE SMOOTH",
"554 102 OFFCURVE",
"552 97 OFFCURVE",
"552 89 CURVE SMOOTH",
"552 11 LINE SMOOTH",
"552 3 OFFCURVE",
"554 -2 OFFCURVE",
"559 -8 CURVE SMOOTH",
"565 -13 OFFCURVE",
"570 -15 OFFCURVE",
"578 -15 CURVE SMOOTH",
"856 -15 LINE SMOOTH"
);
},
{
closed = 1;
nodes = (
"582 15 LINE",
"582 85 LINE",
"610 85 LINE SMOOTH",
"618 85 OFFCURVE",
"623 88 OFFCURVE",
"628 95 CURVE SMOOTH",
"629 97 LINE SMOOTH",
"633 103 OFFCURVE",
"633 110 OFFCURVE",
"630 117 CURVE SMOOTH",
"544 297 LINE SMOOTH",
"541 304 OFFCURVE",
"538 308 OFFCURVE",
"533 311 CURVE SMOOTH",
"528 314 OFFCURVE",
"524 315 OFFCURVE",
"517 315 CURVE SMOOTH",
"306 315 LINE SMOOTH",
"298 315 OFFCURVE",
"293 313 OFFCURVE",
"287 308 CURVE SMOOTH",
"282 302 OFFCURVE",
"280 297 OFFCURVE",
"280 289 CURVE SMOOTH",
"280 15 LINE",
"60 15 LINE",
"60 85 LINE",
"84 85 LINE SMOOTH",
"92 85 OFFCURVE",
"97 87 OFFCURVE",
"102 93 CURVE SMOOTH",
"108 98 OFFCURVE",
"110 103 OFFCURVE",
"110 111 CURVE SMOOTH",
"110 589 LINE SMOOTH",
"110 597 OFFCURVE",
"108 602 OFFCURVE",
"102 608 CURVE SMOOTH",
"97 613 OFFCURVE",
"92 615 OFFCURVE",
"84 615 CURVE SMOOTH",
"60 615 LINE",
"60 685 LINE",
"528 685 LINE",
"804 103 LINE SMOOTH",
"807 96 OFFCURVE",
"810 92 OFFCURVE",
"815 89 CURVE SMOOTH",
"820 86 OFFCURVE",
"824 85 OFFCURVE",
"831 85 CURVE SMOOTH",
"852 85 LINE",
"852 15 LINE"
);
},
{
closed = 1;
nodes = (
"476 385 OFFCURVE",
"481 388 OFFCURVE",
"485 395 CURVE SMOOTH",
"486 397 LINE SMOOTH",
"491 403 OFFCURVE",
"491 410 OFFCURVE",
"488 417 CURVE SMOOTH",
"402 597 LINE SMOOTH",
"399 604 OFFCURVE",
"396 608 OFFCURVE",
"391 611 CURVE SMOOTH",
"386 614 OFFCURVE",
"382 615 OFFCURVE",
"374 615 CURVE SMOOTH",
"306 615 LINE SMOOTH",
"298 615 OFFCURVE",
"293 613 OFFCURVE",
"287 608 CURVE SMOOTH",
"282 602 OFFCURVE",
"280 597 OFFCURVE",
"280 589 CURVE SMOOTH",
"280 411 LINE SMOOTH",
"280 403 OFFCURVE",
"282 398 OFFCURVE",
"287 393 CURVE SMOOTH",
"293 387 OFFCURVE",
"298 385 OFFCURVE",
"306 385 CURVE SMOOTH",
"467 385 LINE SMOOTH"
);
},
{
closed = 1;
nodes = (
"310 415 LINE",
"310 585 LINE",
"375 585 LINE",
"455 415 LINE"
);
}
);
width = 912;
}
);
},
{
glyphname = A_E_hyphen_one.liga;
lastChange = "2018-12-17 09:11:57 +0000";
layers = (
{
associatedMasterId = "90EC08FA-78FA-4D06-9A9B-D8A14CBAAFF5";
layerId = "770EC966-B660-4354-8A8E-35A4D69BBA8E";
name = path;
paths = (
{
closed = 1;
nodes = (
"330 0 LINE",
"330 100 LINE",
"275.596 100 LINE",
"370.398 300 LINE",
"602 300 LINE",
"602 0 LINE",
"852 0 LINE",
"852 100 LINE",
"802 100 LINE",
"802 600 LINE",
"852 600 LINE",
"852 700 LINE",
"360 700 LINE",
"75.596 100 LINE",
"20 100 LINE",
"20 0 LINE"
);
},
{
closed = 1;
nodes = (
"512.599 600 LINE",
"602 600 LINE",
"602 400 LINE",
"417.798 400 LINE"
);
},
{
closed = 1;
nodes = (
"1009 600 LINE",
"1059 600 LINE",
"1059 100 LINE",
"1009 100 LINE",
"1009 0 LINE",
"1609 0 LINE",
"1609 150 LINE",
"1509 150 LINE",
"1509 100 LINE",
"1259 100 LINE",
"1259 300 LINE",
"1459 300 LINE",
"1459 400 LINE",
"1259 400 LINE",
"1259 600 LINE",
"1509 600 LINE",
"1509 550 LINE",
"1609 550 LINE",
"1609 700 LINE",
"1009 700 LINE"
);
},
{
closed = 1;
nodes = (
"1728 300 LINE",
"2018 300 LINE",
"2018 400 LINE",
"1728 400 LINE"
);
},
{
closed = 1;
nodes = (
"2479 0 LINE",
"2479 100 LINE",
"2369 100 LINE",
"2369 700 LINE",
"2079 700 LINE",
"2079 600 LINE",
"2169 600 LINE",
"2169 100 LINE",
"2059 100 LINE",
"2059 0 LINE"
);
}
);
visible = 1;
width = 1680;
},
{
layerId = "90EC08FA-78FA-4D06-9A9B-D8A14CBAAFF5";
paths = (
{
closed = 1;
nodes = (
"329 -15 LINE SMOOTH",
"337 -15 OFFCURVE",
"342 -13 OFFCURVE",
"348 -8 CURVE SMOOTH",
"353 -2 OFFCURVE",
"355 3 OFFCURVE",
"355 11 CURVE SMOOTH",
"355 89 LINE SMOOTH",
"355 97 OFFCURVE",
"353 102 OFFCURVE",
"348 108 CURVE SMOOTH",
"342 113 OFFCURVE",
"337 115 OFFCURVE",
"329 115 CURVE SMOOTH",
"309 115 LINE",
"390 285 LINE",
"597 285 LINE",
"597 11 LINE SMOOTH",
"597 3 OFFCURVE",
"599 -2 OFFCURVE",
"605 -8 CURVE SMOOTH",
"610 -13 OFFCURVE",
"615 -15 OFFCURVE",
"623 -15 CURVE SMOOTH",
"851 -15 LINE SMOOTH",
"859 -15 OFFCURVE",
"864 -13 OFFCURVE",
"870 -8 CURVE SMOOTH",
"875 -2 OFFCURVE",
"877 3 OFFCURVE",
"877 11 CURVE SMOOTH",
"877 89 LINE SMOOTH",
"877 97 OFFCURVE",
"875 102 OFFCURVE",
"870 108 CURVE SMOOTH",
"864 113 OFFCURVE",
"859 115 OFFCURVE",
"851 115 CURVE SMOOTH",
"827 115 LINE",
"827 585 LINE",
"851 585 LINE SMOOTH",
"859 585 OFFCURVE",
"864 587 OFFCURVE",
"870 593 CURVE SMOOTH",
"875 598 OFFCURVE",
"877 603 OFFCURVE",
"877 611 CURVE SMOOTH",
"877 689 LINE SMOOTH",
"877 697 OFFCURVE",
"875 702 OFFCURVE",
"870 708 CURVE SMOOTH",
"864 713 OFFCURVE",
"859 715 OFFCURVE",
"851 715 CURVE SMOOTH",
"380 715 LINE SMOOTH",
"373 715 OFFCURVE",
"368 714 OFFCURVE",
"363 711 CURVE",
"358 708 OFFCURVE",
"355 704 OFFCURVE",
"352 697 CURVE SMOOTH",
"76 115 LINE",
"41 115 LINE SMOOTH",
"33 115 OFFCURVE",
"28 113 OFFCURVE",
"23 108 CURVE SMOOTH",
"17 102 OFFCURVE",
"15 97 OFFCURVE",
"15 89 CURVE SMOOTH",
"15 11 LINE SMOOTH",
"15 3 OFFCURVE",
"17 -2 OFFCURVE",
"23 -8 CURVE SMOOTH",
"28 -13 OFFCURVE",
"33 -15 OFFCURVE",
"41 -15 CURVE SMOOTH"
);
},
{
closed = 1;
nodes = (
"45 85 LINE",
"76 85 LINE SMOOTH",
"83 85 OFFCURVE",
"87 86 OFFCURVE",
"92 89 CURVE SMOOTH",
"97 92 OFFCURVE",
"100 96 OFFCURVE",
"103 103 CURVE SMOOTH",
"379 685 LINE",
"847 685 LINE",
"847 615 LINE",
"823 615 LINE SMOOTH",
"815 615 OFFCURVE",
"810 613 OFFCURVE",
"805 608 CURVE SMOOTH",
"799 602 OFFCURVE",
"797 597 OFFCURVE",
"797 589 CURVE SMOOTH",
"797 111 LINE SMOOTH",
"797 103 OFFCURVE",
"799 98 OFFCURVE",
"805 93 CURVE SMOOTH",
"810 87 OFFCURVE",
"815 85 OFFCURVE",
"823 85 CURVE SMOOTH",
"847 85 LINE",
"847 15 LINE",
"627 15 LINE",
"627 289 LINE SMOOTH",
"627 297 OFFCURVE",
"625 302 OFFCURVE",
"620 308 CURVE SMOOTH",
"614 313 OFFCURVE",
"609 315 OFFCURVE",
"601 315 CURVE SMOOTH",
"390 315 LINE SMOOTH",
"383 315 OFFCURVE",
"379 314 OFFCURVE",
"374 311 CURVE SMOOTH",
"369 308 OFFCURVE",
"366 304 OFFCURVE",
"363 297 CURVE SMOOTH",
"277 117 LINE SMOOTH",
"274 110 OFFCURVE",
"274 103 OFFCURVE",
"278 97 CURVE SMOOTH",
"279 95 LINE SMOOTH",
"284 88 OFFCURVE",
"289 85 OFFCURVE",
"297 85 CURVE SMOOTH",
"325 85 LINE",
"325 15 LINE",
"45 15 LINE"
);
},
{
closed = 1;
nodes = (
"601 385 LINE SMOOTH",
"609 385 OFFCURVE",
"614 387 OFFCURVE",
"620 393 CURVE SMOOTH",
"625 398 OFFCURVE",
"627 403 OFFCURVE",
"627 411 CURVE SMOOTH",
"627 589 LINE SMOOTH",
"627 597 OFFCURVE",
"625 602 OFFCURVE",
"620 608 CURVE SMOOTH",
"614 613 OFFCURVE",
"609 615 OFFCURVE",
"601 615 CURVE SMOOTH",
"533 615 LINE SMOOTH",
"525 615 OFFCURVE",
"521 614 OFFCURVE",
"516 611 CURVE SMOOTH",
"511 608 OFFCURVE",
"508 604 OFFCURVE",
"505 597 CURVE SMOOTH",
"419 417 LINE SMOOTH",
"416 410 OFFCURVE",
"416 403 OFFCURVE",
"421 397 CURVE SMOOTH",
"422 395 LINE SMOOTH",
"426 388 OFFCURVE",
"431 385 OFFCURVE",
"440 385 CURVE SMOOTH"
);
},
{
closed = 1;
nodes = (
"532 585 LINE",
"597 585 LINE",
"597 415 LINE",
"452 415 LINE"
);
},
{
closed = 1;
nodes = (
"1608 -15 LINE SMOOTH",
"1616 -15 OFFCURVE",
"1621 -13 OFFCURVE",
"1627 -8 CURVE SMOOTH",
"1632 -2 OFFCURVE",
"1634 3 OFFCURVE",
"1634 11 CURVE SMOOTH",
"1634 139 LINE SMOOTH",
"1634 147 OFFCURVE",
"1632 152 OFFCURVE",
"1627 158 CURVE SMOOTH",
"1621 163 OFFCURVE",
"1616 165 OFFCURVE",
"1608 165 CURVE SMOOTH",
"1530 165 LINE SMOOTH",
"1522 165 OFFCURVE",
"1517 163 OFFCURVE",
"1512 158 CURVE SMOOTH",
"1506 152 OFFCURVE",
"1504 147 OFFCURVE",
"1504 139 CURVE SMOOTH",
"1504 115 LINE",
"1284 115 LINE",
"1284 285 LINE",
"1458 285 LINE SMOOTH",
"1466 285 OFFCURVE",
"1471 287 OFFCURVE",
"1477 293 CURVE SMOOTH",
"1482 298 OFFCURVE",
"1484 303 OFFCURVE",
"1484 311 CURVE SMOOTH",
"1484 389 LINE SMOOTH",
"1484 397 OFFCURVE",
"1482 402 OFFCURVE",
"1477 408 CURVE SMOOTH",
"1471 413 OFFCURVE",
"1466 415 OFFCURVE",
"1458 415 CURVE SMOOTH",
"1284 415 LINE",
"1284 585 LINE",
"1504 585 LINE",
"1504 561 LINE SMOOTH",
"1504 553 OFFCURVE",
"1506 548 OFFCURVE",
"1512 543 CURVE SMOOTH",
"1517 537 OFFCURVE",
"1522 535 OFFCURVE",
"1530 535 CURVE SMOOTH",
"1608 535 LINE SMOOTH",
"1616 535 OFFCURVE",
"1621 537 OFFCURVE",
"1627 543 CURVE SMOOTH",
"1632 548 OFFCURVE",
"1634 553 OFFCURVE",
"1634 561 CURVE SMOOTH",
"1634 689 LINE SMOOTH",
"1634 697 OFFCURVE",
"1632 702 OFFCURVE",
"1627 708 CURVE SMOOTH",
"1621 713 OFFCURVE",
"1616 715 OFFCURVE",
"1608 715 CURVE SMOOTH",
"1030 715 LINE SMOOTH",
"1022 715 OFFCURVE",
"1017 713 OFFCURVE",
"1012 708 CURVE SMOOTH",
"1006 702 OFFCURVE",
"1004 697 OFFCURVE",
"1004 689 CURVE SMOOTH",
"1004 611 LINE SMOOTH",
"1004 603 OFFCURVE",
"1006 598 OFFCURVE",
"1012 593 CURVE SMOOTH",
"1017 587 OFFCURVE",
"1022 585 OFFCURVE",
"1030 585 CURVE SMOOTH",
"1054 585 LINE",
"1054 115 LINE",
"1030 115 LINE SMOOTH",
"1022 115 OFFCURVE",
"1017 113 OFFCURVE",
"1012 108 CURVE SMOOTH",
"1006 102 OFFCURVE",
"1004 97 OFFCURVE",
"1004 89 CURVE SMOOTH",
"1004 11 LINE SMOOTH",
"1004 3 OFFCURVE",
"1006 -2 OFFCURVE",
"1012 -8 CURVE SMOOTH",
"1017 -13 OFFCURVE",
"1022 -15 OFFCURVE",
"1030 -15 CURVE SMOOTH"
);
},
{
closed = 1;
nodes = (
"1034 85 LINE",
"1058 85 LINE SMOOTH",
"1066 85 OFFCURVE",
"1071 87 OFFCURVE",
"1077 93 CURVE SMOOTH",
"1082 98 OFFCURVE",
"1084 103 OFFCURVE",
"1084 111 CURVE SMOOTH",
"1084 589 LINE SMOOTH",
"1084 597 OFFCURVE",
"1082 602 OFFCURVE",
"1077 608 CURVE SMOOTH",
"1071 613 OFFCURVE",
"1066 615 OFFCURVE",
"1058 615 CURVE SMOOTH",
"1034 615 LINE",
"1034 685 LINE",
"1604 685 LINE",
"1604 565 LINE",
"1534 565 LINE",
"1534 589 LINE SMOOTH",
"1534 597 OFFCURVE",
"1532 602 OFFCURVE",
"1527 608 CURVE SMOOTH",
"1521 613 OFFCURVE",
"1516 615 OFFCURVE",
"1508 615 CURVE SMOOTH",
"1280 615 LINE SMOOTH",
"1272 615 OFFCURVE",
"1267 613 OFFCURVE",
"1262 608 CURVE SMOOTH",
"1256 602 OFFCURVE",
"1254 597 OFFCURVE",
"1254 589 CURVE SMOOTH",
"1254 411 LINE SMOOTH",
"1254 403 OFFCURVE",
"1256 398 OFFCURVE",
"1262 393 CURVE SMOOTH",
"1267 387 OFFCURVE",
"1272 385 OFFCURVE",
"1280 385 CURVE SMOOTH",
"1454 385 LINE",
"1454 315 LINE",
"1280 315 LINE SMOOTH",
"1272 315 OFFCURVE",
"1267 313 OFFCURVE",
"1262 308 CURVE SMOOTH",
"1256 302 OFFCURVE",
"1254 297 OFFCURVE",
"1254 289 CURVE SMOOTH",
"1254 111 LINE SMOOTH",
"1254 103 OFFCURVE",
"1256 98 OFFCURVE",
"1262 93 CURVE SMOOTH",
"1267 87 OFFCURVE",
"1272 85 OFFCURVE",
"1280 85 CURVE SMOOTH",
"1508 85 LINE SMOOTH",
"1516 85 OFFCURVE",
"1521 87 OFFCURVE",
"1527 93 CURVE SMOOTH",
"1532 98 OFFCURVE",
"1534 103 OFFCURVE",
"1534 111 CURVE SMOOTH",
"1534 135 LINE",
"1604 135 LINE",
"1604 15 LINE",
"1034 15 LINE"
);
},
{
closed = 1;
nodes = (
"1957 285 LINE SMOOTH",
"1965 285 OFFCURVE",
"1970 287 OFFCURVE",
"1976 293 CURVE SMOOTH",
"1981 298 OFFCURVE",
"1983 303 OFFCURVE",
"1983 311 CURVE SMOOTH",
"1983 389 LINE SMOOTH",
"1983 397 OFFCURVE",
"1981 402 OFFCURVE",
"1976 408 CURVE SMOOTH",
"1971 414 OFFCURVE",
"1965 415 OFFCURVE",
"1957 415 CURVE SMOOTH",
"1689 415 LINE SMOOTH",
"1681 415 OFFCURVE",
"1676 413 OFFCURVE",
"1671 408 CURVE SMOOTH",
"1665 402 OFFCURVE",
"1663 397 OFFCURVE",
"1663 389 CURVE SMOOTH",
"1663 311 LINE SMOOTH",
"1663 303 OFFCURVE",
"1665 298 OFFCURVE",
"1671 293 CURVE SMOOTH",
"1677 288 OFFCURVE",
"1681 285 OFFCURVE",
"1689 285 CURVE SMOOTH"
);
},
{
closed = 1;
nodes = (
"1693 385 LINE",
"1953 385 LINE",
"1953 315 LINE",
"1693 315 LINE"
);
},
{
closed = 1;
nodes = (
"2418 -15 LINE SMOOTH",
"2426 -15 OFFCURVE",
"2431 -13 OFFCURVE",
"2437 -8 CURVE SMOOTH",
"2443 -3 OFFCURVE",
"2444 3 OFFCURVE",
"2444 11 CURVE SMOOTH",
"2444 89 LINE SMOOTH",
"2444 97 OFFCURVE",
"2442 102 OFFCURVE",
"2437 108 CURVE SMOOTH",
"2432 114 OFFCURVE",
"2426 115 OFFCURVE",
"2418 115 CURVE SMOOTH",
"2334 115 LINE",
"2334 689 LINE SMOOTH",
"2334 697 OFFCURVE",
"2332 702 OFFCURVE",
"2327 708 CURVE SMOOTH",
"2322 714 OFFCURVE",
"2316 715 OFFCURVE",
"2308 715 CURVE SMOOTH",
"2040 715 LINE SMOOTH",
"2032 715 OFFCURVE",
"2027 713 OFFCURVE",
"2022 708 CURVE SMOOTH",
"2016 702 OFFCURVE",
"2014 697 OFFCURVE",
"2014 689 CURVE SMOOTH",
"2014 611 LINE SMOOTH",
"2014 603 OFFCURVE",
"2016 598 OFFCURVE",
"2022 593 CURVE SMOOTH",
"2028 588 OFFCURVE",
"2032 585 OFFCURVE",
"2040 585 CURVE SMOOTH",
"2104 585 LINE",
"2104 115 LINE",
"2020 115 LINE SMOOTH",
"2012 115 OFFCURVE",
"2007 113 OFFCURVE",
"2002 108 CURVE SMOOTH",
"1996 102 OFFCURVE",
"1994 97 OFFCURVE",
"1994 89 CURVE SMOOTH",
"1994 11 LINE SMOOTH",
"1994 3 OFFCURVE",
"1996 -2 OFFCURVE",
"2002 -8 CURVE SMOOTH",
"2007 -13 OFFCURVE",
"2012 -15 OFFCURVE",
"2020 -15 CURVE SMOOTH"
);
},
{
closed = 1;
nodes = (
"2024 85 LINE",
"2108 85 LINE SMOOTH",
"2116 85 OFFCURVE",
"2121 87 OFFCURVE",
"2127 93 CURVE SMOOTH",
"2132 98 OFFCURVE",
"2134 103 OFFCURVE",
"2134 111 CURVE SMOOTH",
"2134 589 LINE SMOOTH",
"2134 597 OFFCURVE",
"2132 602 OFFCURVE",
"2127 608 CURVE SMOOTH",
"2122 614 OFFCURVE",
"2116 615 OFFCURVE",
"2108 615 CURVE SMOOTH",
"2044 615 LINE",
"2044 685 LINE",
"2304 685 LINE",
"2304 111 LINE SMOOTH",
"2304 103 OFFCURVE",
"2306 98 OFFCURVE",
"2312 93 CURVE SMOOTH",
"2318 88 OFFCURVE",
"2322 85 OFFCURVE",
"2330 85 CURVE SMOOTH",
"2414 85 LINE",
"2414 15 LINE",
"2024 15 LINE"
);
}
);
visible = 1;
width = 2519;
}
);
},
{
glyphname = A_T_hyphen_one.liga;
lastChange = "2018-12-17 09:12:03 +0000";
layers = (
{
layerId = "90EC08FA-78FA-4D06-9A9B-D8A14CBAAFF5";
paths = (
{
closed = 1;
nodes = (
"329 -15 LINE SMOOTH",
"337 -15 OFFCURVE",
"342 -13 OFFCURVE",
"348 -8 CURVE SMOOTH",
"353 -2 OFFCURVE",
"355 3 OFFCURVE",
"355 11 CURVE SMOOTH",
"355 89 LINE SMOOTH",
"355 97 OFFCURVE",
"353 102 OFFCURVE",
"348 108 CURVE SMOOTH",
"342 113 OFFCURVE",
"337 115 OFFCURVE",
"329 115 CURVE SMOOTH",
"309 115 LINE",
"390 285 LINE",
"597 285 LINE",
"597 11 LINE SMOOTH",
"597 3 OFFCURVE",
"599 -2 OFFCURVE",
"605 -8 CURVE SMOOTH",
"610 -13 OFFCURVE",
"615 -15 OFFCURVE",
"623 -15 CURVE SMOOTH",
"851 -15 LINE SMOOTH",
"859 -15 OFFCURVE",
"864 -13 OFFCURVE",
"870 -8 CURVE SMOOTH",
"875 -2 OFFCURVE",
"877 3 OFFCURVE",
"877 11 CURVE SMOOTH",
"877 89 LINE SMOOTH",
"877 97 OFFCURVE",
"875 102 OFFCURVE",
"870 108 CURVE SMOOTH",
"864 113 OFFCURVE",
"859 115 OFFCURVE",
"851 115 CURVE SMOOTH",
"827 115 LINE",
"827 585 LINE",
"851 585 LINE SMOOTH",
"859 585 OFFCURVE",
"864 587 OFFCURVE",
"870 593 CURVE SMOOTH",
"875 598 OFFCURVE",
"877 603 OFFCURVE",
"877 611 CURVE SMOOTH",
"877 689 LINE SMOOTH",
"877 697 OFFCURVE",
"875 702 OFFCURVE",
"870 708 CURVE SMOOTH",
"864 713 OFFCURVE",
"859 715 OFFCURVE",
"851 715 CURVE SMOOTH",
"380 715 LINE SMOOTH",
"373 715 OFFCURVE",
"368 714 OFFCURVE",
"363 711 CURVE",
"358 708 OFFCURVE",
"355 704 OFFCURVE",
"352 697 CURVE SMOOTH",
"76 115 LINE",
"41 115 LINE SMOOTH",
"33 115 OFFCURVE",
"28 113 OFFCURVE",
"23 108 CURVE SMOOTH",
"17 102 OFFCURVE",
"15 97 OFFCURVE",
"15 89 CURVE SMOOTH",
"15 11 LINE SMOOTH",
"15 3 OFFCURVE",
"17 -2 OFFCURVE",
"23 -8 CURVE SMOOTH",
"28 -13 OFFCURVE",
"33 -15 OFFCURVE",
"41 -15 CURVE SMOOTH"
);
},
{
closed = 1;
nodes = (
"45 85 LINE",
"76 85 LINE SMOOTH",
"83 85 OFFCURVE",
"87 86 OFFCURVE",
"92 89 CURVE SMOOTH",
"97 92 OFFCURVE",
"100 96 OFFCURVE",
"103 103 CURVE SMOOTH",
"379 685 LINE",
"847 685 LINE",
"847 615 LINE",
"823 615 LINE SMOOTH",
"815 615 OFFCURVE",
"810 613 OFFCURVE",
"805 608 CURVE SMOOTH",
"799 602 OFFCURVE",
"797 597 OFFCURVE",
"797 589 CURVE SMOOTH",
"797 111 LINE SMOOTH",
"797 103 OFFCURVE",
"799 98 OFFCURVE",
"805 93 CURVE SMOOTH",
"810 87 OFFCURVE",
"815 85 OFFCURVE",
"823 85 CURVE SMOOTH",
"847 85 LINE",
"847 15 LINE",
"627 15 LINE",
"627 289 LINE SMOOTH",
"627 297 OFFCURVE",
"625 302 OFFCURVE",
"620 308 CURVE SMOOTH",
"614 313 OFFCURVE",
"609 315 OFFCURVE",
"601 315 CURVE SMOOTH",
"390 315 LINE SMOOTH",
"383 315 OFFCURVE",
"379 314 OFFCURVE",
"374 311 CURVE SMOOTH",
"369 308 OFFCURVE",
"366 304 OFFCURVE",
"363 297 CURVE SMOOTH",
"277 117 LINE SMOOTH",
"274 110 OFFCURVE",
"274 103 OFFCURVE",
"278 97 CURVE SMOOTH",
"279 95 LINE SMOOTH",
"284 88 OFFCURVE",
"289 85 OFFCURVE",
"297 85 CURVE SMOOTH",
"325 85 LINE",
"325 15 LINE",
"45 15 LINE"
);
},
{
closed = 1;
nodes = (
"601 385 LINE SMOOTH",
"609 385 OFFCURVE",
"614 387 OFFCURVE",
"620 393 CURVE SMOOTH",
"625 398 OFFCURVE",
"627 403 OFFCURVE",
"627 411 CURVE SMOOTH",
"627 589 LINE SMOOTH",
"627 597 OFFCURVE",
"625 602 OFFCURVE",
"620 608 CURVE SMOOTH",
"614 613 OFFCURVE",
"609 615 OFFCURVE",
"601 615 CURVE SMOOTH",
"533 615 LINE SMOOTH",
"525 615 OFFCURVE",
"521 614 OFFCURVE",
"516 611 CURVE SMOOTH",
"511 608 OFFCURVE",
"508 604 OFFCURVE",
"505 597 CURVE SMOOTH",
"419 417 LINE SMOOTH",
"416 410 OFFCURVE",
"416 403 OFFCURVE",
"421 397 CURVE SMOOTH",
"422 395 LINE SMOOTH",
"426 388 OFFCURVE",
"431 385 OFFCURVE",
"440 385 CURVE SMOOTH"
);
},
{
closed = 1;
nodes = (
"532 585 LINE",
"597 585 LINE",
"597 415 LINE",
"452 415 LINE"
);
},
{
closed = 1;
nodes = (
"1454 -15 LINE SMOOTH",
"1462 -15 OFFCURVE",
"1467 -13 OFFCURVE",
"1473 -8 CURVE SMOOTH",
"1479 -3 OFFCURVE",
"1480 3 OFFCURVE",
"1480 11 CURVE SMOOTH",
"1480 89 LINE SMOOTH",
"1480 97 OFFCURVE",
"1478 102 OFFCURVE",
"1473 108 CURVE SMOOTH",
"1468 114 OFFCURVE",
"1462 115 OFFCURVE",
"1454 115 CURVE SMOOTH",
"1430 115 LINE",
"1430 585 LINE",
"1550 585 LINE",
"1550 561 LINE SMOOTH",
"1550 553 OFFCURVE",
"1552 548 OFFCURVE",
"1558 543 CURVE SMOOTH",
"1564 538 OFFCURVE",
"1568 535 OFFCURVE",
"1576 535 CURVE SMOOTH",
"1654 535 LINE SMOOTH",
"1662 535 OFFCURVE",
"1667 537 OFFCURVE",
"1673 543 CURVE SMOOTH",
"1678 548 OFFCURVE",
"1680 553 OFFCURVE",
"1680 561 CURVE SMOOTH",
"1680 689 LINE SMOOTH",
"1680 697 OFFCURVE",
"1678 702 OFFCURVE",
"1673 708 CURVE SMOOTH",
"1668 714 OFFCURVE",
"1662 715 OFFCURVE",
"1654 715 CURVE SMOOTH",
"996 715 LINE SMOOTH",
"988 715 OFFCURVE",
"983 713 OFFCURVE",
"978 708 CURVE SMOOTH",
"972 702 OFFCURVE",
"970 697 OFFCURVE",
"970 689 CURVE SMOOTH",
"970 561 LINE SMOOTH",
"970 553 OFFCURVE",
"972 548 OFFCURVE",
"978 543 CURVE SMOOTH",
"984 538 OFFCURVE",
"988 535 OFFCURVE",
"996 535 CURVE SMOOTH",
"1074 535 LINE SMOOTH",
"1082 535 OFFCURVE",
"1087 537 OFFCURVE",
"1093 543 CURVE SMOOTH",
"1098 548 OFFCURVE",
"1100 553 OFFCURVE",
"1100 561 CURVE SMOOTH",
"1100 585 LINE",
"1200 585 LINE",
"1200 115 LINE",
"1176 115 LINE SMOOTH",
"1168 115 OFFCURVE",
"1163 113 OFFCURVE",
"1158 108 CURVE SMOOTH",
"1152 102 OFFCURVE",
"1150 97 OFFCURVE",
"1150 89 CURVE SMOOTH",
"1150 11 LINE SMOOTH",
"1150 3 OFFCURVE",
"1152 -2 OFFCURVE",
"1158 -8 CURVE SMOOTH",
"1163 -13 OFFCURVE",
"1168 -15 OFFCURVE",
"1176 -15 CURVE SMOOTH"
);
},
{
closed = 1;
nodes = (
"1180 85 LINE",
"1204 85 LINE SMOOTH",
"1212 85 OFFCURVE",
"1217 87 OFFCURVE",
"1223 93 CURVE SMOOTH",
"1228 98 OFFCURVE",
"1230 103 OFFCURVE",
"1230 111 CURVE SMOOTH",
"1230 589 LINE SMOOTH",
"1230 597 OFFCURVE",
"1228 602 OFFCURVE",
"1223 608 CURVE SMOOTH",
"1218 614 OFFCURVE",
"1212 615 OFFCURVE",
"1204 615 CURVE SMOOTH",
"1096 615 LINE SMOOTH",
"1088 615 OFFCURVE",
"1083 613 OFFCURVE",
"1078 608 CURVE SMOOTH",
"1072 602 OFFCURVE",
"1070 597 OFFCURVE",
"1070 589 CURVE SMOOTH",
"1070 565 LINE",
"1000 565 LINE",
"1000 685 LINE",
"1650 685 LINE",
"1650 565 LINE",
"1580 565 LINE",
"1580 589 LINE SMOOTH",
"1580 597 OFFCURVE",
"1578 602 OFFCURVE",
"1573 608 CURVE SMOOTH",
"1568 614 OFFCURVE",
"1562 615 OFFCURVE",
"1554 615 CURVE SMOOTH",
"1426 615 LINE SMOOTH",
"1418 615 OFFCURVE",
"1413 613 OFFCURVE",
"1408 608 CURVE SMOOTH",
"1402 602 OFFCURVE",
"1400 597 OFFCURVE",
"1400 589 CURVE SMOOTH",
"1400 111 LINE SMOOTH",
"1400 103 OFFCURVE",
"1402 98 OFFCURVE",
"1408 93 CURVE SMOOTH",
"1414 88 OFFCURVE",
"1418 85 OFFCURVE",
"1426 85 CURVE SMOOTH",
"1450 85 LINE",
"1450 15 LINE",
"1180 15 LINE"
);
},
{
closed = 1;
nodes = (
"2017 285 LINE SMOOTH",
"2025 285 OFFCURVE",
"2030 287 OFFCURVE",
"2036 293 CURVE SMOOTH",
"2041 298 OFFCURVE",
"2043 303 OFFCURVE",
"2043 311 CURVE SMOOTH",
"2043 389 LINE SMOOTH",
"2043 397 OFFCURVE",
"2041 402 OFFCURVE",
"2036 408 CURVE SMOOTH",
"2030 413 OFFCURVE",
"2025 415 OFFCURVE",
"2017 415 CURVE SMOOTH",
"1749 415 LINE SMOOTH",
"1741 415 OFFCURVE",
"1736 413 OFFCURVE",
"1731 408 CURVE SMOOTH",
"1725 402 OFFCURVE",
"1723 397 OFFCURVE",
"1723 389 CURVE SMOOTH",
"1723 311 LINE SMOOTH",
"1723 303 OFFCURVE",
"1725 298 OFFCURVE",
"1731 293 CURVE SMOOTH",
"1736 287 OFFCURVE",
"1741 285 OFFCURVE",
"1749 285 CURVE SMOOTH"
);
},
{
closed = 1;
nodes = (
"1753 385 LINE",
"2013 385 LINE",
"2013 315 LINE",
"1753 315 LINE"
);
},
{
closed = 1;
nodes = (
"2478 -15 LINE SMOOTH",
"2486 -15 OFFCURVE",
"2491 -13 OFFCURVE",
"2497 -8 CURVE SMOOTH",
"2502 -2 OFFCURVE",
"2504 3 OFFCURVE",
"2504 11 CURVE SMOOTH",
"2504 89 LINE SMOOTH",
"2504 97 OFFCURVE",
"2502 102 OFFCURVE",
"2497 108 CURVE SMOOTH",
"2491 113 OFFCURVE",
"2486 115 OFFCURVE",
"2478 115 CURVE SMOOTH",
"2394 115 LINE",
"2394 689 LINE SMOOTH",
"2394 697 OFFCURVE",
"2392 702 OFFCURVE",
"2387 708 CURVE SMOOTH",
"2381 713 OFFCURVE",
"2376 715 OFFCURVE",
"2368 715 CURVE SMOOTH",
"2100 715 LINE SMOOTH",
"2092 715 OFFCURVE",
"2087 713 OFFCURVE",
"2082 708 CURVE SMOOTH",
"2076 702 OFFCURVE",
"2074 697 OFFCURVE",
"2074 689 CURVE SMOOTH",
"2074 611 LINE SMOOTH",
"2074 603 OFFCURVE",
"2076 598 OFFCURVE",
"2082 593 CURVE SMOOTH",
"2087 587 OFFCURVE",
"2092 585 OFFCURVE",
"2100 585 CURVE SMOOTH",
"2164 585 LINE",
"2164 115 LINE",
"2080 115 LINE SMOOTH",
"2072 115 OFFCURVE",
"2067 113 OFFCURVE",
"2062 108 CURVE SMOOTH",
"2056 102 OFFCURVE",
"2054 97 OFFCURVE",
"2054 89 CURVE SMOOTH",
"2054 11 LINE SMOOTH",
"2054 3 OFFCURVE",
"2056 -2 OFFCURVE",
"2062 -8 CURVE SMOOTH",
"2067 -13 OFFCURVE",
"2072 -15 OFFCURVE",
"2080 -15 CURVE SMOOTH"
);
},
{
closed = 1;
nodes = (
"2084 85 LINE",
"2168 85 LINE SMOOTH",
"2176 85 OFFCURVE",
"2181 87 OFFCURVE",
"2187 93 CURVE SMOOTH",
"2192 98 OFFCURVE",
"2194 103 OFFCURVE",
"2194 111 CURVE SMOOTH",
"2194 589 LINE SMOOTH",
"2194 597 OFFCURVE",
"2192 602 OFFCURVE",
"2187 608 CURVE SMOOTH",
"2181 613 OFFCURVE",
"2176 615 OFFCURVE",
"2168 615 CURVE SMOOTH",
"2104 615 LINE",
"2104 685 LINE",
"2364 685 LINE",
"2364 111 LINE SMOOTH",
"2364 103 OFFCURVE",
"2366 98 OFFCURVE",
"2372 93 CURVE SMOOTH",
"2377 87 OFFCURVE",
"2382 85 OFFCURVE",
"2390 85 CURVE SMOOTH",
"2474 85 LINE",
"2474 15 LINE",
"2084 15 LINE"
);
}
);
width = 2519;
},
{
associatedMasterId = "90EC08FA-78FA-4D06-9A9B-D8A14CBAAFF5";
layerId = "12AFD9F5-4019-4E49-BDA4-0895B5D9F466";
name = path;
paths = (
{
closed = 1;
nodes = (
"330 0 LINE",
"330 100 LINE",
"275.596 100 LINE",
"370.398 300 LINE",
"602 300 LINE",
"602 0 LINE",
"852 0 LINE",
"852 100 LINE",
"802 100 LINE",
"802 600 LINE",
"852 600 LINE",
"852 700 LINE",
"360 700 LINE",
"75.596 100 LINE",
"20 100 LINE",
"20 0 LINE"
);
},
{
closed = 1;
nodes = (
"512.599 600 LINE",
"602 600 LINE",
"602 400 LINE",
"417.798 400 LINE"
);
},
{
closed = 1;
nodes = (
"1728 300 LINE",
"2018 300 LINE",
"2018 400 LINE",
"1728 400 LINE"
);
},
{
closed = 1;
nodes = (
"2479 0 LINE",
"2479 100 LINE",
"2369 100 LINE",
"2369 700 LINE",
"2079 700 LINE",
"2079 600 LINE",
"2169 600 LINE",
"2169 100 LINE",
"2059 100 LINE",
"2059 0 LINE"
);
},
{
closed = 1;
nodes = (
"1055 550 LINE",
"1055 600 LINE",
"1185 600 LINE",
"1185 100 LINE",
"1135 100 LINE",
"1135 0 LINE",
"1435 0 LINE",
"1435 100 LINE",
"1385 100 LINE",
"1385 600 LINE",
"1535 600 LINE",
"1535 550 LINE",
"1635 550 LINE",
"1635 700 LINE",
"955 700 LINE",
"955 550 LINE"
);
}
);
width = 1750;
}
);
},
{
glyphname = A_V_hyphen_one.liga;
lastChange = "2018-12-17 09:14:36 +0000";
layers = (
{
associatedMasterId = "90EC08FA-78FA-4D06-9A9B-D8A14CBAAFF5";
layerId = "B736359E-92F0-4625-AF17-363BC473811C";
name = path;
paths = (
{
closed = 1;
nodes = (
"330 0 LINE",
"330 100 LINE",
"275.596 100 LINE",
"370.398 300 LINE",
"602 300 LINE",
"602 0 LINE",
"852 0 LINE",
"852 100 LINE",
"802 100 LINE",
"802 600 LINE",
"852 600 LINE",
"852 700 LINE",
"360 700 LINE",
"75.596 100 LINE",
"20 100 LINE",
"20 0 LINE"
);
},
{
closed = 1;
nodes = (
"512.599 600 LINE",
"602 600 LINE",
"602 400 LINE",
"417.798 400 LINE"
);
},
{
closed = 1;
nodes = (
"1798 300 LINE",
"2088 300 LINE",
"2088 400 LINE",
"1798 400 LINE"
);
},
{
closed = 1;
nodes = (
"2549 0 LINE",
"2549 100 LINE",
"2439 100 LINE",
"2439 700 LINE",
"2149 700 LINE",
"2149 600 LINE",
"2239 600 LINE",
"2239 100 LINE",
"2129 100 LINE",
"2129 0 LINE"
);
},
{
closed = 1;
nodes = (
"1035 600 LINE",
"1035 0 LINE",
"1477 0 LINE",
"1762 600 LINE",
"1817 600 LINE",
"1817 700 LINE",
"1507 700 LINE",
"1507 600 LINE",
"1562 600 LINE",
"1325 100 LINE",
"1235 100 LINE",
"1235 700 LINE",
"985 700 LINE",
"985 600 LINE"
);
}
);
width = 1950;
},
{
layerId = "90EC08FA-78FA-4D06-9A9B-D8A14CBAAFF5";
paths = (
{
closed = 1;
nodes = (
"1477 -15 LINE SMOOTH",
"1484 -15 OFFCURVE",
"1489 -14 OFFCURVE",
"1494 -11 CURVE SMOOTH",
"1499 -8 OFFCURVE",
"1502 -4 OFFCURVE",
"1505 3 CURVE SMOOTH",
"1781 585 LINE",
"1816 585 LINE SMOOTH",
"1824 585 OFFCURVE",
"1829 587 OFFCURVE",
"1835 593 CURVE SMOOTH",
"1840 598 OFFCURVE",
"1842 603 OFFCURVE",
"1842 611 CURVE SMOOTH",
"1842 689 LINE SMOOTH",
"1842 697 OFFCURVE",
"1840 702 OFFCURVE",
"1835 708 CURVE SMOOTH",
"1829 713 OFFCURVE",
"1824 715 OFFCURVE",
"1816 715 CURVE SMOOTH",
"1528 715 LINE SMOOTH",
"1520 715 OFFCURVE",
"1515 713 OFFCURVE",
"1510 708 CURVE SMOOTH",
"1504 702 OFFCURVE",
"1502 697 OFFCURVE",
"1502 689 CURVE SMOOTH",
"1502 611 LINE SMOOTH",
"1502 603 OFFCURVE",
"1504 598 OFFCURVE",
"1510 593 CURVE SMOOTH",
"1515 587 OFFCURVE",
"1520 585 OFFCURVE",
"1528 585 CURVE SMOOTH",
"1548 585 LINE",
"1326 115 LINE",
"1260 115 LINE",
"1260 689 LINE SMOOTH",
"1260 697 OFFCURVE",
"1258 702 OFFCURVE",
"1253 708 CURVE SMOOTH",
"1247 713 OFFCURVE",
"1242 715 OFFCURVE",
"1234 715 CURVE SMOOTH",
"1006 715 LINE SMOOTH",
"998 715 OFFCURVE",
"993 713 OFFCURVE",
"988 708 CURVE SMOOTH",
"982 702 OFFCURVE",
"980 697 OFFCURVE",
"980 689 CURVE SMOOTH",
"980 611 LINE SMOOTH",
"980 603 OFFCURVE",
"982 598 OFFCURVE",
"988 593 CURVE SMOOTH",
"993 587 OFFCURVE",
"998 585 OFFCURVE",
"1006 585 CURVE SMOOTH",
"1030 585 LINE",
"1030 11 LINE SMOOTH",
"1030 3 OFFCURVE",
"1032 -2 OFFCURVE",
"1038 -8 CURVE SMOOTH",
"1043 -13 OFFCURVE",
"1048 -15 OFFCURVE",
"1056 -15 CURVE SMOOTH"
);
},
{
closed = 1;
nodes = (
"329 -15 LINE SMOOTH",
"337 -15 OFFCURVE",
"342 -13 OFFCURVE",
"348 -8 CURVE SMOOTH",
"353 -2 OFFCURVE",
"355 3 OFFCURVE",
"355 11 CURVE SMOOTH",
"355 89 LINE SMOOTH",
"355 97 OFFCURVE",
"353 102 OFFCURVE",
"348 108 CURVE SMOOTH",
"342 113 OFFCURVE",
"337 115 OFFCURVE",
"329 115 CURVE SMOOTH",
"309 115 LINE",
"390 285 LINE",
"597 285 LINE",
"597 11 LINE SMOOTH",
"597 3 OFFCURVE",
"599 -2 OFFCURVE",
"605 -8 CURVE SMOOTH",
"610 -13 OFFCURVE",
"615 -15 OFFCURVE",
"623 -15 CURVE SMOOTH",
"851 -15 LINE SMOOTH",
"859 -15 OFFCURVE",
"864 -13 OFFCURVE",
"870 -8 CURVE SMOOTH",
"875 -2 OFFCURVE",
"877 3 OFFCURVE",
"877 11 CURVE SMOOTH",
"877 89 LINE SMOOTH",
"877 97 OFFCURVE",
"875 102 OFFCURVE",
"870 108 CURVE SMOOTH",
"864 113 OFFCURVE",
"859 115 OFFCURVE",
"851 115 CURVE SMOOTH",
"827 115 LINE",
"827 585 LINE",
"851 585 LINE SMOOTH",
"859 585 OFFCURVE",
"864 587 OFFCURVE",
"870 593 CURVE SMOOTH",
"875 598 OFFCURVE",
"877 603 OFFCURVE",
"877 611 CURVE SMOOTH",
"877 689 LINE SMOOTH",
"877 697 OFFCURVE",
"875 702 OFFCURVE",
"870 708 CURVE SMOOTH",
"864 713 OFFCURVE",
"859 715 OFFCURVE",
"851 715 CURVE SMOOTH",
"380 715 LINE SMOOTH",
"373 715 OFFCURVE",
"368 714 OFFCURVE",
"363 711 CURVE",
"358 708 OFFCURVE",
"355 704 OFFCURVE",
"352 697 CURVE SMOOTH",
"76 115 LINE",
"41 115 LINE SMOOTH",
"33 115 OFFCURVE",
"28 113 OFFCURVE",
"23 108 CURVE SMOOTH",
"17 102 OFFCURVE",
"15 97 OFFCURVE",
"15 89 CURVE SMOOTH",
"15 11 LINE SMOOTH",
"15 3 OFFCURVE",
"17 -2 OFFCURVE",
"23 -8 CURVE SMOOTH",
"28 -13 OFFCURVE",
"33 -15 OFFCURVE",
"41 -15 CURVE SMOOTH"
);
},
{
closed = 1;
nodes = (
"45 85 LINE",
"76 85 LINE SMOOTH",
"83 85 OFFCURVE",
"87 86 OFFCURVE",
"92 89 CURVE SMOOTH",
"97 92 OFFCURVE",
"100 96 OFFCURVE",
"103 103 CURVE SMOOTH",
"379 685 LINE",
"847 685 LINE",
"847 615 LINE",
"823 615 LINE SMOOTH",
"815 615 OFFCURVE",
"810 613 OFFCURVE",
"805 608 CURVE SMOOTH",
"799 602 OFFCURVE",
"797 597 OFFCURVE",
"797 589 CURVE SMOOTH",
"797 111 LINE SMOOTH",
"797 103 OFFCURVE",
"799 98 OFFCURVE",
"805 93 CURVE SMOOTH",
"810 87 OFFCURVE",
"815 85 OFFCURVE",
"823 85 CURVE SMOOTH",
"847 85 LINE",
"847 15 LINE",
"627 15 LINE",
"627 289 LINE SMOOTH",
"627 297 OFFCURVE",
"625 302 OFFCURVE",
"620 308 CURVE SMOOTH",
"614 313 OFFCURVE",
"609 315 OFFCURVE",
"601 315 CURVE SMOOTH",
"390 315 LINE SMOOTH",
"383 315 OFFCURVE",
"379 314 OFFCURVE",
"374 311 CURVE SMOOTH",
"369 308 OFFCURVE",
"366 304 OFFCURVE",
"363 297 CURVE SMOOTH",
"277 117 LINE SMOOTH",
"274 110 OFFCURVE",
"274 103 OFFCURVE",
"278 97 CURVE SMOOTH",
"279 95 LINE SMOOTH",
"284 88 OFFCURVE",
"289 85 OFFCURVE",
"297 85 CURVE SMOOTH",
"325 85 LINE",
"325 15 LINE",
"45 15 LINE"
);
},
{
closed = 1;
nodes = (
"601 385 LINE SMOOTH",
"609 385 OFFCURVE",
"614 387 OFFCURVE",
"620 393 CURVE SMOOTH",
"625 398 OFFCURVE",
"627 403 OFFCURVE",
"627 411 CURVE SMOOTH",
"627 589 LINE SMOOTH",
"627 597 OFFCURVE",
"625 602 OFFCURVE",
"620 608 CURVE SMOOTH",
"614 613 OFFCURVE",
"609 615 OFFCURVE",
"601 615 CURVE SMOOTH",
"533 615 LINE SMOOTH",
"525 615 OFFCURVE",
"521 614 OFFCURVE",
"516 611 CURVE SMOOTH",
"511 608 OFFCURVE",
"508 604 OFFCURVE",
"505 597 CURVE SMOOTH",
"419 417 LINE SMOOTH",
"416 410 OFFCURVE",
"416 403 OFFCURVE",
"421 397 CURVE SMOOTH",
"422 395 LINE SMOOTH",
"426 388 OFFCURVE",
"431 385 OFFCURVE",
"440 385 CURVE SMOOTH"
);
},
{
closed = 1;
nodes = (
"532 585 LINE",
"597 585 LINE",
"597 415 LINE",
"452 415 LINE"
);
},
{
closed = 1;
nodes = (
"1060 589 LINE SMOOTH",
"1060 597 OFFCURVE",
"1058 602 OFFCURVE",
"1053 608 CURVE SMOOTH",
"1047 613 OFFCURVE",
"1042 615 OFFCURVE",
"1034 615 CURVE SMOOTH",
"1010 615 LINE",
"1010 685 LINE",
"1230 685 LINE",
"1230 111 LINE SMOOTH",
"1230 103 OFFCURVE",
"1232 98 OFFCURVE",
"1238 93 CURVE SMOOTH",
"1243 87 OFFCURVE",
"1248 85 OFFCURVE",
"1256 85 CURVE SMOOTH",
"1325 85 LINE SMOOTH",
"1332 85 OFFCURVE",
"1337 86 OFFCURVE",
"1342 89 CURVE SMOOTH",
"1347 92 OFFCURVE",
"1350 96 OFFCURVE",
"1353 103 CURVE SMOOTH",
"1581 583 LINE SMOOTH",
"1584 590 OFFCURVE",
"1584 597 OFFCURVE",
"1579 603 CURVE SMOOTH",
"1578 605 LINE SMOOTH",
"1574 612 OFFCURVE",
"1568 615 OFFCURVE",
"1560 615 CURVE SMOOTH",
"1532 615 LINE",
"1532 685 LINE",
"1812 685 LINE",
"1812 615 LINE",
"1782 615 LINE SMOOTH",
"1775 615 OFFCURVE",
"1770 614 OFFCURVE",
"1765 611 CURVE SMOOTH",
"1760 608 OFFCURVE",
"1757 604 OFFCURVE",
"1754 597 CURVE SMOOTH",
"1478 15 LINE",
"1060 15 LINE"
);
},
{
closed = 1;
nodes = (
"2087 285 LINE SMOOTH",
"2095 285 OFFCURVE",
"2100 287 OFFCURVE",
"2106 293 CURVE SMOOTH",
"2111 298 OFFCURVE",
"2113 303 OFFCURVE",
"2113 311 CURVE SMOOTH",
"2113 389 LINE SMOOTH",
"2113 397 OFFCURVE",
"2111 402 OFFCURVE",
"2106 408 CURVE SMOOTH",
"2100 413 OFFCURVE",
"2095 415 OFFCURVE",
"2087 415 CURVE SMOOTH",
"1819 415 LINE SMOOTH",
"1811 415 OFFCURVE",
"1806 413 OFFCURVE",
"1801 408 CURVE SMOOTH",
"1795 402 OFFCURVE",
"1793 397 OFFCURVE",
"1793 389 CURVE SMOOTH",
"1793 311 LINE SMOOTH",
"1793 303 OFFCURVE",
"1795 298 OFFCURVE",
"1801 293 CURVE SMOOTH",
"1806 287 OFFCURVE",
"1811 285 OFFCURVE",
"1819 285 CURVE SMOOTH"
);
},
{
closed = 1;
nodes = (
"1823 385 LINE",
"2083 385 LINE",
"2083 315 LINE",
"1823 315 LINE"
);
},
{
closed = 1;
nodes = (
"2548 -15 LINE SMOOTH",
"2556 -15 OFFCURVE",
"2561 -13 OFFCURVE",
"2567 -8 CURVE SMOOTH",
"2572 -2 OFFCURVE",
"2574 3 OFFCURVE",
"2574 11 CURVE SMOOTH",
"2574 89 LINE SMOOTH",
"2574 97 OFFCURVE",
"2572 102 OFFCURVE",
"2567 108 CURVE SMOOTH",
"2561 113 OFFCURVE",
"2556 115 OFFCURVE",
"2548 115 CURVE SMOOTH",
"2464 115 LINE",
"2464 689 LINE SMOOTH",
"2464 697 OFFCURVE",
"2462 702 OFFCURVE",
"2457 708 CURVE SMOOTH",
"2451 713 OFFCURVE",
"2446 715 OFFCURVE",
"2438 715 CURVE SMOOTH",
"2170 715 LINE SMOOTH",
"2162 715 OFFCURVE",
"2157 713 OFFCURVE",
"2152 708 CURVE SMOOTH",
"2146 702 OFFCURVE",
"2144 697 OFFCURVE",
"2144 689 CURVE SMOOTH",
"2144 611 LINE SMOOTH",
"2144 603 OFFCURVE",
"2146 598 OFFCURVE",
"2152 593 CURVE SMOOTH",
"2157 587 OFFCURVE",
"2162 585 OFFCURVE",
"2170 585 CURVE SMOOTH",
"2234 585 LINE",
"2234 115 LINE",
"2150 115 LINE SMOOTH",
"2142 115 OFFCURVE",
"2137 113 OFFCURVE",
"2132 108 CURVE SMOOTH",
"2126 102 OFFCURVE",
"2124 97 OFFCURVE",
"2124 89 CURVE SMOOTH",
"2124 11 LINE SMOOTH",
"2124 3 OFFCURVE",
"2126 -2 OFFCURVE",
"2132 -8 CURVE SMOOTH",
"2137 -13 OFFCURVE",
"2142 -15 OFFCURVE",
"2150 -15 CURVE SMOOTH"
);
},
{
closed = 1;
nodes = (
"2154 85 LINE",
"2238 85 LINE SMOOTH",
"2246 85 OFFCURVE",
"2251 87 OFFCURVE",
"2257 93 CURVE SMOOTH",
"2262 98 OFFCURVE",
"2264 103 OFFCURVE",
"2264 111 CURVE SMOOTH",
"2264 589 LINE SMOOTH",
"2264 597 OFFCURVE",
"2262 602 OFFCURVE",
"2257 608 CURVE SMOOTH",
"2251 613 OFFCURVE",
"2246 615 OFFCURVE",
"2238 615 CURVE SMOOTH",
"2174 615 LINE",
"2174 685 LINE",
"2434 685 LINE",
"2434 111 LINE SMOOTH",
"2434 103 OFFCURVE",
"2436 98 OFFCURVE",
"2442 93 CURVE SMOOTH",
"2447 87 OFFCURVE",
"2452 85 OFFCURVE",
"2460 85 CURVE SMOOTH",
"2544 85 LINE",
"2544 15 LINE",
"2154 15 LINE"
);
}
);
width = 2589;
}
);
},
{
glyphname = A_hyphen_one.liga;
lastChange = "2018-12-17 09:13:06 +0000";
layers = (
{
layerId = "90EC08FA-78FA-4D06-9A9B-D8A14CBAAFF5";
paths = (
{
closed = 1;
nodes = (
"329 -15 LINE SMOOTH",
"337 -15 OFFCURVE",
"342 -13 OFFCURVE",
"348 -8 CURVE SMOOTH",
"353 -2 OFFCURVE",
"355 3 OFFCURVE",
"355 11 CURVE SMOOTH",
"355 89 LINE SMOOTH",
"355 97 OFFCURVE",
"353 102 OFFCURVE",
"348 108 CURVE SMOOTH",
"342 113 OFFCURVE",
"337 115 OFFCURVE",
"329 115 CURVE SMOOTH",
"309 115 LINE",
"390 285 LINE",
"597 285 LINE",
"597 11 LINE SMOOTH",
"597 3 OFFCURVE",
"599 -2 OFFCURVE",
"605 -8 CURVE SMOOTH",
"610 -13 OFFCURVE",
"615 -15 OFFCURVE",
"623 -15 CURVE SMOOTH",
"851 -15 LINE SMOOTH",
"859 -15 OFFCURVE",
"864 -13 OFFCURVE",
"870 -8 CURVE SMOOTH",
"875 -2 OFFCURVE",
"877 3 OFFCURVE",
"877 11 CURVE SMOOTH",
"877 89 LINE SMOOTH",
"877 97 OFFCURVE",
"875 102 OFFCURVE",
"870 108 CURVE SMOOTH",
"864 113 OFFCURVE",
"859 115 OFFCURVE",
"851 115 CURVE SMOOTH",
"827 115 LINE",
"827 585 LINE",
"851 585 LINE SMOOTH",
"859 585 OFFCURVE",
"864 587 OFFCURVE",
"870 593 CURVE SMOOTH",
"875 598 OFFCURVE",
"877 603 OFFCURVE",
"877 611 CURVE SMOOTH",
"877 689 LINE SMOOTH",
"877 697 OFFCURVE",
"875 702 OFFCURVE",
"870 708 CURVE SMOOTH",
"864 713 OFFCURVE",
"859 715 OFFCURVE",
"851 715 CURVE SMOOTH",
"380 715 LINE SMOOTH",
"373 715 OFFCURVE",
"368 714 OFFCURVE",
"363 711 CURVE",
"358 708 OFFCURVE",
"355 704 OFFCURVE",
"352 697 CURVE SMOOTH",
"76 115 LINE",
"41 115 LINE SMOOTH",
"33 115 OFFCURVE",
"28 113 OFFCURVE",
"23 108 CURVE SMOOTH",
"17 102 OFFCURVE",
"15 97 OFFCURVE",
"15 89 CURVE SMOOTH",
"15 11 LINE SMOOTH",
"15 3 OFFCURVE",
"17 -2 OFFCURVE",
"23 -8 CURVE SMOOTH",
"28 -13 OFFCURVE",
"33 -15 OFFCURVE",
"41 -15 CURVE SMOOTH"
);
},
{
closed = 1;
nodes = (
"45 85 LINE",
"76 85 LINE SMOOTH",
"83 85 OFFCURVE",
"87 86 OFFCURVE",
"92 89 CURVE SMOOTH",
"97 92 OFFCURVE",
"100 96 OFFCURVE",
"103 103 CURVE SMOOTH",
"379 685 LINE",
"847 685 LINE",
"847 615 LINE",
"823 615 LINE SMOOTH",
"815 615 OFFCURVE",
"810 613 OFFCURVE",
"805 608 CURVE SMOOTH",
"799 602 OFFCURVE",
"797 597 OFFCURVE",
"797 589 CURVE SMOOTH",
"797 111 LINE SMOOTH",
"797 103 OFFCURVE",
"799 98 OFFCURVE",
"805 93 CURVE SMOOTH",
"810 87 OFFCURVE",
"815 85 OFFCURVE",
"823 85 CURVE SMOOTH",
"847 85 LINE",
"847 15 LINE",
"627 15 LINE",
"627 289 LINE SMOOTH",
"627 297 OFFCURVE",
"625 302 OFFCURVE",
"620 308 CURVE SMOOTH",
"614 313 OFFCURVE",
"609 315 OFFCURVE",
"601 315 CURVE SMOOTH",
"390 315 LINE SMOOTH",
"383 315 OFFCURVE",
"379 314 OFFCURVE",
"374 311 CURVE SMOOTH",
"369 308 OFFCURVE",
"366 304 OFFCURVE",
"363 297 CURVE SMOOTH",
"277 117 LINE SMOOTH",
"274 110 OFFCURVE",
"274 103 OFFCURVE",
"278 97 CURVE SMOOTH",
"279 95 LINE SMOOTH",
"284 88 OFFCURVE",
"289 85 OFFCURVE",
"297 85 CURVE SMOOTH",
"325 85 LINE",
"325 15 LINE",
"45 15 LINE"
);
},
{
closed = 1;
nodes = (
"601 385 LINE SMOOTH",
"609 385 OFFCURVE",
"614 387 OFFCURVE",
"620 393 CURVE SMOOTH",
"625 398 OFFCURVE",
"627 403 OFFCURVE",
"627 411 CURVE SMOOTH",
"627 589 LINE SMOOTH",
"627 597 OFFCURVE",
"625 602 OFFCURVE",
"620 608 CURVE SMOOTH",
"614 613 OFFCURVE",
"609 615 OFFCURVE",
"601 615 CURVE SMOOTH",
"533 615 LINE SMOOTH",
"525 615 OFFCURVE",
"521 614 OFFCURVE",
"516 611 CURVE SMOOTH",
"511 608 OFFCURVE",
"508 604 OFFCURVE",
"505 597 CURVE SMOOTH",
"419 417 LINE SMOOTH",
"416 410 OFFCURVE",
"416 403 OFFCURVE",
"421 397 CURVE SMOOTH",
"422 395 LINE SMOOTH",
"426 388 OFFCURVE",
"431 385 OFFCURVE",
"440 385 CURVE SMOOTH"
);
},
{
closed = 1;
nodes = (
"532 585 LINE",
"597 585 LINE",
"597 415 LINE",
"452 415 LINE"
);
},
{
closed = 1;
nodes = (
"1235 285 LINE SMOOTH",
"1243 285 OFFCURVE",
"1248 287 OFFCURVE",
"1254 293 CURVE SMOOTH",
"1259 298 OFFCURVE",
"1261 303 OFFCURVE",
"1261 311 CURVE SMOOTH",
"1261 389 LINE SMOOTH",
"1261 397 OFFCURVE",
"1259 402 OFFCURVE",
"1254 408 CURVE SMOOTH",
"1248 413 OFFCURVE",
"1243 415 OFFCURVE",
"1235 415 CURVE SMOOTH",
"967 415 LINE SMOOTH",
"959 415 OFFCURVE",
"954 413 OFFCURVE",
"949 408 CURVE SMOOTH",
"943 402 OFFCURVE",
"941 397 OFFCURVE",
"941 389 CURVE SMOOTH",
"941 311 LINE SMOOTH",
"941 303 OFFCURVE",
"943 298 OFFCURVE",
"949 293 CURVE SMOOTH",
"954 287 OFFCURVE",
"959 285 OFFCURVE",
"967 285 CURVE SMOOTH"
);
},
{
closed = 1;
nodes = (
"971 385 LINE",
"1231 385 LINE",
"1231 315 LINE",
"971 315 LINE"
);
},
{
closed = 1;
nodes = (
"1696 -15 LINE SMOOTH",
"1704 -15 OFFCURVE",
"1709 -13 OFFCURVE",
"1715 -8 CURVE SMOOTH",
"1720 -2 OFFCURVE",
"1722 3 OFFCURVE",
"1722 11 CURVE SMOOTH",
"1722 89 LINE SMOOTH",
"1722 97 OFFCURVE",
"1720 102 OFFCURVE",
"1715 108 CURVE SMOOTH",
"1709 113 OFFCURVE",
"1704 115 OFFCURVE",
"1696 115 CURVE SMOOTH",
"1612 115 LINE",
"1612 689 LINE SMOOTH",
"1612 697 OFFCURVE",
"1610 702 OFFCURVE",
"1605 708 CURVE SMOOTH",
"1599 713 OFFCURVE",
"1594 715 OFFCURVE",
"1586 715 CURVE SMOOTH",
"1318 715 LINE SMOOTH",
"1310 715 OFFCURVE",
"1305 713 OFFCURVE",
"1300 708 CURVE SMOOTH",
"1294 702 OFFCURVE",
"1292 697 OFFCURVE",
"1292 689 CURVE SMOOTH",
"1292 611 LINE SMOOTH",
"1292 603 OFFCURVE",
"1294 598 OFFCURVE",
"1300 593 CURVE SMOOTH",
"1305 587 OFFCURVE",
"1310 585 OFFCURVE",
"1318 585 CURVE SMOOTH",
"1382 585 LINE",
"1382 115 LINE",
"1298 115 LINE SMOOTH",
"1290 115 OFFCURVE",
"1285 113 OFFCURVE",
"1280 108 CURVE SMOOTH",
"1274 102 OFFCURVE",
"1272 97 OFFCURVE",
"1272 89 CURVE SMOOTH",
"1272 11 LINE SMOOTH",
"1272 3 OFFCURVE",
"1274 -2 OFFCURVE",
"1280 -8 CURVE SMOOTH",
"1285 -13 OFFCURVE",
"1290 -15 OFFCURVE",
"1298 -15 CURVE SMOOTH"
);
},
{
closed = 1;
nodes = (
"1302 85 LINE",
"1386 85 LINE SMOOTH",
"1394 85 OFFCURVE",
"1399 87 OFFCURVE",
"1405 93 CURVE SMOOTH",
"1410 98 OFFCURVE",
"1412 103 OFFCURVE",
"1412 111 CURVE SMOOTH",
"1412 589 LINE SMOOTH",
"1412 597 OFFCURVE",
"1410 602 OFFCURVE",
"1405 608 CURVE SMOOTH",
"1399 613 OFFCURVE",
"1394 615 OFFCURVE",
"1386 615 CURVE SMOOTH",
"1322 615 LINE",
"1322 685 LINE",
"1582 685 LINE",
"1582 111 LINE SMOOTH",
"1582 103 OFFCURVE",
"1584 98 OFFCURVE",
"1590 93 CURVE SMOOTH",
"1595 87 OFFCURVE",
"1600 85 OFFCURVE",
"1608 85 CURVE SMOOTH",
"1692 85 LINE",
"1692 15 LINE",
"1302 15 LINE"
);
}
);
width = 1737;
},
{
associatedMasterId = "90EC08FA-78FA-4D06-9A9B-D8A14CBAAFF5";
layerId = "54E843A0-C31E-43C2-8B26-57BFA6A3B11E";
name = path;
paths = (
{
closed = 1;
nodes = (
"330 0 LINE",
"330 100 LINE",
"275.596 100 LINE",
"370.398 300 LINE",
"602 300 LINE",
"602 0 LINE",
"852 0 LINE",
"852 100 LINE",
"802 100 LINE",
"802 600 LINE",
"852 600 LINE",
"852 700 LINE",
"360 700 LINE",
"75.596 100 LINE",
"20 100 LINE",
"20 0 LINE"
);
},
{
closed = 1;
nodes = (
"512.599 600 LINE",
"602 600 LINE",
"602 400 LINE",
"417.798 400 LINE"
);
},
{
closed = 1;
nodes = (
"946 300 LINE",
"1236 300 LINE",
"1236 400 LINE",
"946 400 LINE"
);
},
{
closed = 1;
nodes = (
"1697 0 LINE",
"1697 100 LINE",
"1587 100 LINE",
"1587 700 LINE",
"1297 700 LINE",
"1297 600 LINE",
"1387 600 LINE",
"1387 100 LINE",
"1277 100 LINE",
"1277 0 LINE"
);
}
);
width = 600;
}
);
},
{
glyphname = one;
lastChange = "2018-12-17 09:01:41 +0000";
layers = (
{
layerId = "90EC08FA-78FA-4D06-9A9B-D8A14CBAAFF5";
paths = (
{
closed = 1;
nodes = (
"439 -15 LINE SMOOTH",
"447 -15 OFFCURVE",
"452 -13 OFFCURVE",
"458 -8 CURVE SMOOTH",
"463 -2 OFFCURVE",
"465 3 OFFCURVE",
"465 11 CURVE SMOOTH",
"465 89 LINE SMOOTH",
"465 97 OFFCURVE",
"463 102 OFFCURVE",
"458 108 CURVE SMOOTH",
"452 113 OFFCURVE",
"447 115 OFFCURVE",
"439 115 CURVE SMOOTH",
"355 115 LINE",
"355 689 LINE SMOOTH",
"355 697 OFFCURVE",
"353 702 OFFCURVE",
"348 708 CURVE SMOOTH",
"342 713 OFFCURVE",
"337 715 OFFCURVE",
"329 715 CURVE SMOOTH",
"61 715 LINE SMOOTH",
"53 715 OFFCURVE",
"48 713 OFFCURVE",
"43 708 CURVE SMOOTH",
"37 702 OFFCURVE",
"35 697 OFFCURVE",
"35 689 CURVE SMOOTH",
"35 611 LINE SMOOTH",
"35 603 OFFCURVE",
"37 598 OFFCURVE",
"43 593 CURVE SMOOTH",
"48 587 OFFCURVE",
"53 585 OFFCURVE",
"61 585 CURVE SMOOTH",
"125 585 LINE",
"125 115 LINE",
"41 115 LINE SMOOTH",
"33 115 OFFCURVE",
"28 113 OFFCURVE",
"23 108 CURVE SMOOTH",
"17 102 OFFCURVE",
"15 97 OFFCURVE",
"15 89 CURVE SMOOTH",
"15 11 LINE SMOOTH",
"15 3 OFFCURVE",
"17 -2 OFFCURVE",
"23 -8 CURVE SMOOTH",
"28 -13 OFFCURVE",
"33 -15 OFFCURVE",
"41 -15 CURVE SMOOTH"
);
},
{
closed = 1;
nodes = (
"45 85 LINE",
"129 85 LINE SMOOTH",
"137 85 OFFCURVE",
"142 87 OFFCURVE",
"148 93 CURVE SMOOTH",
"153 98 OFFCURVE",
"155 103 OFFCURVE",
"155 111 CURVE SMOOTH",
"155 589 LINE SMOOTH",
"155 597 OFFCURVE",
"153 602 OFFCURVE",
"148 608 CURVE SMOOTH",
"142 613 OFFCURVE",
"137 615 OFFCURVE",
"129 615 CURVE SMOOTH",
"65 615 LINE",
"65 685 LINE",
"325 685 LINE",
"325 111 LINE SMOOTH",
"325 103 OFFCURVE",
"327 98 OFFCURVE",
"333 93 CURVE SMOOTH",
"338 87 OFFCURVE",
"343 85 OFFCURVE",
"351 85 CURVE SMOOTH",
"435 85 LINE",
"435 15 LINE",
"45 15 LINE"
);
}
);
width = 480;
},
{
associatedMasterId = "90EC08FA-78FA-4D06-9A9B-D8A14CBAAFF5";
layerId = "DB4D977E-5484-4F05-B7BC-DAFD4515C8CA";
name = path;
paths = (
{
closed = 1;
nodes = (
"360 0 LINE",
"360 100 LINE",
"250 100 LINE",
"250 700 LINE",
"-40 700 LINE",
"-40 600 LINE",
"50 600 LINE",
"50 100 LINE",
"-60 100 LINE",
"-60 0 LINE"
);
}
);
width = 600;
},
{
associatedMasterId = "90EC08FA-78FA-4D06-9A9B-D8A14CBAAFF5";
layerId = "0D14B54B-4243-4342-8084-F8E19A4AE3D2";
name = base;
paths = (
{
closed = 1;
nodes = (
"-40 600 LINE",
"250 600 LINE",
"250 700 LINE",
"-40 700 LINE"
);
},
{
closed = 1;
nodes = (
"-60 0 LINE",
"360 0 LINE",
"360 100 LINE",
"-60 100 LINE"
);
},
{
closed = 1;
nodes = (
"250 46 LINE",
"250 646 LINE",
"50 646 LINE",
"50 46 LINE"
);
}
);
width = 600;
}
);
unicode = 0031;
},
{
glyphname = exclam;
lastChange = "2018-12-17 09:31:17 +0000";
layers = (
{
layerId = "90EC08FA-78FA-4D06-9A9B-D8A14CBAAFF5";
paths = (
{
closed = 1;
nodes = (
"166 229 LINE SMOOTH",
"174 229 OFFCURVE",
"179 231 OFFCURVE",
"184 236 CURVE SMOOTH",
"190 241 OFFCURVE",
"192 246 OFFCURVE",
"192 254 CURVE SMOOTH",
"212 688 LINE SMOOTH",
"212 696 OFFCURVE",
"210 702 OFFCURVE",
"204 707 CURVE SMOOTH",
"199 713 OFFCURVE",
"194 715 OFFCURVE",
"186 715 CURVE SMOOTH",
"48 715 LINE SMOOTH",
"40 715 OFFCURVE",
"35 713 OFFCURVE",
"30 707 CURVE SMOOTH",
"24 702 OFFCURVE",
"22 696 OFFCURVE",
"22 688 CURVE SMOOTH",
"42 254 LINE SMOOTH",
"42 246 OFFCURVE",
"44 241 OFFCURVE",
"50 236 CURVE SMOOTH",
"55 231 OFFCURVE",
"60 229 OFFCURVE",
"68 229 CURVE SMOOTH"
);
},
{
closed = 1;
nodes = (
"173 -15 OFFCURVE",
"219 31 OFFCURVE",
"219 87 CURVE SMOOTH",
"219 142 OFFCURVE",
"173 188 OFFCURVE",
"117 188 CURVE SMOOTH",
"61 188 OFFCURVE",
"15 142 OFFCURVE",
"15 87 CURVE SMOOTH",
"15 31 OFFCURVE",
"61 -15 OFFCURVE",
"117 -15 CURVE SMOOTH"
);
},
{
closed = 1;
nodes = (
"77 15 OFFCURVE",
"45 47 OFFCURVE",
"45 87 CURVE SMOOTH",
"45 126 OFFCURVE",
"77 158 OFFCURVE",
"117 158 CURVE SMOOTH",
"157 158 OFFCURVE",
"189 126 OFFCURVE",
"189 87 CURVE SMOOTH",
"189 47 OFFCURVE",
"157 15 OFFCURVE",
"117 15 CURVE SMOOTH"
);
},
{
closed = 1;
nodes = (
"53 685 LINE",
"181 685 LINE",
"163 259 LINE",
"71 259 LINE"
);
}
);
width = 234;
},
{
associatedMasterId = "90EC08FA-78FA-4D06-9A9B-D8A14CBAAFF5";
layerId = "A00104A4-73F1-4061-BB44-EFE772E40969";
name = "Dec 17 18, 10:30";
paths = (
{
closed = 1;
nodes = (
"240 700 LINE",
"100 700 LINE",
"100 244 LINE",
"240 244 LINE"
);
},
{
closed = 1;
nodes = (
"218 0 OFFCURVE",
"257 39 OFFCURVE",
"257 87 CURVE SMOOTH",
"257 134 OFFCURVE",
"218 173 OFFCURVE",
"170 173 CURVE SMOOTH",
"122 173 OFFCURVE",
"83 134 OFFCURVE",
"83 87 CURVE SMOOTH",
"83 39 OFFCURVE",
"122 0 OFFCURVE",
"170 0 CURVE SMOOTH"
);
}
);
width = 600;
},
{
associatedMasterId = "90EC08FA-78FA-4D06-9A9B-D8A14CBAAFF5";
layerId = "3C578B47-EEAB-4FDC-B55E-1D3617543889";
name = "Dec 17 18, 10:30";
paths = (
{
closed = 1;
nodes = (
"250 700 LINE",
"90 700 LINE",
"110 244 LINE",
"230 244 LINE"
);
},
{
closed = 1;
nodes = (
"218 0 OFFCURVE",
"257 39 OFFCURVE",
"257 87 CURVE SMOOTH",
"257 134 OFFCURVE",
"218 173 OFFCURVE",
"170 173 CURVE SMOOTH",
"122 173 OFFCURVE",
"83 134 OFFCURVE",
"83 87 CURVE SMOOTH",
"83 39 OFFCURVE",
"122 0 OFFCURVE",
"170 0 CURVE SMOOTH"
);
}
);
width = 600;
}
);
unicode = 0021;
},
{
glyphname = bracketleft;
lastChange = "2018-12-17 09:33:52 +0000";
layers = (
{
layerId = "90EC08FA-78FA-4D06-9A9B-D8A14CBAAFF5";
paths = (
{
closed = 1;
nodes = (
"299 -15 LINE SMOOTH",
"307 -15 OFFCURVE",
"312 -13 OFFCURVE",
"318 -8 CURVE SMOOTH",
"323 -2 OFFCURVE",
"325 3 OFFCURVE",
"325 11 CURVE SMOOTH",
"325 89 LINE SMOOTH",
"325 97 OFFCURVE",
"323 102 OFFCURVE",
"318 108 CURVE SMOOTH",
"312 113 OFFCURVE",
"307 115 OFFCURVE",
"299 115 CURVE SMOOTH",
"155 115 LINE",
"155 585 LINE",
"299 585 LINE SMOOTH",
"307 585 OFFCURVE",
"312 587 OFFCURVE",
"318 593 CURVE SMOOTH",
"323 598 OFFCURVE",
"325 603 OFFCURVE",
"325 611 CURVE SMOOTH",
"325 689 LINE SMOOTH",
"325 697 OFFCURVE",
"323 702 OFFCURVE",
"318 708 CURVE SMOOTH",
"312 713 OFFCURVE",
"307 715 OFFCURVE",
"299 715 CURVE SMOOTH",
"41 715 LINE SMOOTH",
"33 715 OFFCURVE",
"28 713 OFFCURVE",
"23 708 CURVE SMOOTH",
"17 702 OFFCURVE",
"15 697 OFFCURVE",
"15 689 CURVE SMOOTH",
"15 11 LINE SMOOTH",
"15 3 OFFCURVE",
"17 -2 OFFCURVE",
"23 -8 CURVE SMOOTH",
"28 -13 OFFCURVE",
"33 -15 OFFCURVE",
"41 -15 CURVE SMOOTH"
);
},
{
closed = 1;
nodes = (
"45 685 LINE",
"295 685 LINE",
"295 615 LINE",
"151 615 LINE SMOOTH",
"143 615 OFFCURVE",
"138 613 OFFCURVE",
"133 608 CURVE SMOOTH",
"127 602 OFFCURVE",
"125 597 OFFCURVE",
"125 589 CURVE SMOOTH",
"125 111 LINE SMOOTH",
"125 103 OFFCURVE",
"127 98 OFFCURVE",
"133 93 CURVE SMOOTH",
"138 87 OFFCURVE",
"143 85 OFFCURVE",
"151 85 CURVE SMOOTH",
"295 85 LINE",
"295 15 LINE",
"45 15 LINE"
);
}
);
width = 340;
},
{
associatedMasterId = "90EC08FA-78FA-4D06-9A9B-D8A14CBAAFF5";
layerId = "E7863D0C-8372-4856-80F8-89CDE99CA989";
name = path;
paths = (
{
closed = 1;
nodes = (
"280 0 LINE",
"280 100 LINE",
"110 100 LINE",
"110 600 LINE",
"280 600 LINE",
"280 700 LINE",
"0 700 LINE",
"0 0 LINE"
);
}
);
width = 600;
},
{
associatedMasterId = "90EC08FA-78FA-4D06-9A9B-D8A14CBAAFF5";
layerId = "4025836D-FB40-49E4-8719-07A7B7F1C859";
name = base;
paths = (
{
closed = 1;
nodes = (
"130 46 LINE",
"130 646 LINE",
"0 646 LINE",
"0 46 LINE"
);
},
{
closed = 1;
nodes = (
"280 0 LINE",
"280 100 LINE",
"0 100 LINE",
"0 0 LINE"
);
},
{
closed = 1;
nodes = (
"280 600 LINE",
"280 700 LINE",
"0 700 LINE",
"0 600 LINE"
);
}
);
visible = 1;
width = 600;
}
);
unicode = 005B;
},
{
glyphname = bracketright;
lastChange = "2018-12-17 09:33:52 +0000";
layers = (
{
layerId = "90EC08FA-78FA-4D06-9A9B-D8A14CBAAFF5";
paths = (
{
closed = 1;
nodes = (
"299 -15 LINE SMOOTH",
"307 -15 OFFCURVE",
"312 -13 OFFCURVE",
"318 -8 CURVE SMOOTH",
"323 -2 OFFCURVE",
"325 3 OFFCURVE",
"325 11 CURVE SMOOTH",
"325 689 LINE SMOOTH",
"325 697 OFFCURVE",
"323 702 OFFCURVE",
"318 708 CURVE SMOOTH",
"312 713 OFFCURVE",
"307 715 OFFCURVE",
"299 715 CURVE SMOOTH",
"41 715 LINE SMOOTH",
"33 715 OFFCURVE",
"28 713 OFFCURVE",
"23 708 CURVE SMOOTH",
"17 702 OFFCURVE",
"15 697 OFFCURVE",
"15 689 CURVE SMOOTH",
"15 611 LINE SMOOTH",
"15 603 OFFCURVE",
"17 598 OFFCURVE",
"23 593 CURVE SMOOTH",
"28 587 OFFCURVE",
"33 585 OFFCURVE",
"41 585 CURVE SMOOTH",
"185 585 LINE",
"185 115 LINE",
"41 115 LINE SMOOTH",
"33 115 OFFCURVE",
"28 113 OFFCURVE",
"23 108 CURVE SMOOTH",
"17 102 OFFCURVE",
"15 97 OFFCURVE",
"15 89 CURVE SMOOTH",
"15 11 LINE SMOOTH",
"15 3 OFFCURVE",
"17 -2 OFFCURVE",
"23 -8 CURVE SMOOTH",
"28 -13 OFFCURVE",
"33 -15 OFFCURVE",
"41 -15 CURVE SMOOTH"
);
},
{
closed = 1;
nodes = (
"45 85 LINE",
"189 85 LINE SMOOTH",
"197 85 OFFCURVE",
"202 87 OFFCURVE",
"208 93 CURVE SMOOTH",
"213 98 OFFCURVE",
"215 103 OFFCURVE",
"215 111 CURVE SMOOTH",
"215 589 LINE SMOOTH",
"215 597 OFFCURVE",
"213 602 OFFCURVE",
"208 608 CURVE SMOOTH",
"202 613 OFFCURVE",
"197 615 OFFCURVE",
"189 615 CURVE SMOOTH",
"45 615 LINE",
"45 685 LINE",
"295 685 LINE",
"295 15 LINE",
"45 15 LINE"
);
}
);
width = 340;
},
{
associatedMasterId = "90EC08FA-78FA-4D06-9A9B-D8A14CBAAFF5";
layerId = "084696AF-B4A3-4156-8F98-95F838B69156";
name = path;
paths = (
{
closed = 1;
nodes = (
"280 700 LINE",
"0 700 LINE",
"0 600 LINE",
"170 600 LINE",
"170 100 LINE",
"0 100 LINE",
"0 0 LINE",
"280 0 LINE"
);
}
);
width = 600;
}
);
unicode = 005D;
},
{
glyphname = parenleft;
lastChange = "2018-12-17 09:27:06 +0000";
layers = (
{
layerId = "90EC08FA-78FA-4D06-9A9B-D8A14CBAAFF5";
paths = (
{
closed = 1;
nodes = (
"266 -15 LINE SMOOTH",
"274 -15 OFFCURVE",
"280 -12 OFFCURVE",
"284 -5 CURVE SMOOTH",
"285 -3 LINE SMOOTH",
"290 4 OFFCURVE",
"290 10 OFFCURVE",
"286 17 CURVE SMOOTH",
"260 66 OFFCURVE",
"172 225 OFFCURVE",
"172 350 CURVE SMOOTH",
"172 475 OFFCURVE",
"260 634 OFFCURVE",
"286 683 CURVE SMOOTH",
"290 690 OFFCURVE",
"290 696 OFFCURVE",
"285 703 CURVE SMOOTH",
"284 705 LINE SMOOTH",
"280 712 OFFCURVE",
"274 715 OFFCURVE",
"266 715 CURVE SMOOTH",
"198 715 LINE SMOOTH",
"191 715 OFFCURVE",
"186 714 OFFCURVE",
"182 712 CURVE SMOOTH",
"178 710 OFFCURVE",
"175 708 OFFCURVE",
"170 702 CURVE SMOOTH",
"118 641 OFFCURVE",
"15 529 OFFCURVE",
"15 350 CURVE SMOOTH",
"15 171 OFFCURVE",
"118 59 OFFCURVE",
"170 -2 CURVE SMOOTH",
"175 -8 OFFCURVE",
"178 -10 OFFCURVE",
"182 -12 CURVE SMOOTH",
"186 -14 OFFCURVE",
"191 -15 OFFCURVE",
"198 -15 CURVE SMOOTH"
);
},
{
closed = 1;
nodes = (
"143 76 OFFCURVE",
"45 181 OFFCURVE",
"45 350 CURVE SMOOTH",
"45 519 OFFCURVE",
"143 624 OFFCURVE",
"195 685 CURVE",
"253 685 LINE",
"221 625 OFFCURVE",
"142 473 OFFCURVE",
"142 350 CURVE SMOOTH",
"142 227 OFFCURVE",
"221 75 OFFCURVE",
"253 15 CURVE",
"195 15 LINE"
);
}
);
width = 304;
},
{
associatedMasterId = "90EC08FA-78FA-4D06-9A9B-D8A14CBAAFF5";
layerId = "17ED7625-F586-4094-BE16-B44E7786361E";
name = path;
paths = (
{
closed = 1;
nodes = (
"385 30 OFFCURVE",
"279 210 OFFCURVE",
"279 350 CURVE SMOOTH",
"279 490 OFFCURVE",
"385 670 OFFCURVE",
"400 700 CURVE",
"310 700 LINE",
"260 640 OFFCURVE",
"152 530 OFFCURVE",
"152 350 CURVE SMOOTH",
"152 170 OFFCURVE",
"260 60 OFFCURVE",
"310 0 CURVE",
"400 0 LINE"
);
}
);
width = 600;
}
);
unicode = 0028;
},
{
glyphname = parenright;
lastChange = "2018-12-17 09:27:19 +0000";
layers = (
{
layerId = "90EC08FA-78FA-4D06-9A9B-D8A14CBAAFF5";
paths = (
{
closed = 1;
nodes = (
"106 -15 LINE SMOOTH",
"113 -15 OFFCURVE",
"118 -14 OFFCURVE",
"122 -12 CURVE SMOOTH",
"126 -10 OFFCURVE",
"129 -8 OFFCURVE",
"134 -2 CURVE SMOOTH",
"186 59 OFFCURVE",
"289 171 OFFCURVE",
"289 350 CURVE SMOOTH",
"289 529 OFFCURVE",
"186 641 OFFCURVE",
"134 702 CURVE SMOOTH",
"129 708 OFFCURVE",
"126 710 OFFCURVE",
"122 712 CURVE SMOOTH",
"118 714 OFFCURVE",
"113 715 OFFCURVE",
"106 715 CURVE SMOOTH",
"38 715 LINE SMOOTH",
"30 715 OFFCURVE",
"24 712 OFFCURVE",
"20 705 CURVE SMOOTH",
"19 703 LINE SMOOTH",
"14 696 OFFCURVE",
"14 690 OFFCURVE",
"18 683 CURVE SMOOTH",
"44 634 OFFCURVE",
"132 475 OFFCURVE",
"132 350 CURVE SMOOTH",
"132 225 OFFCURVE",
"44 66 OFFCURVE",
"18 17 CURVE SMOOTH",
"14 10 OFFCURVE",
"14 4 OFFCURVE",
"19 -3 CURVE SMOOTH",
"20 -5 LINE SMOOTH",
"24 -12 OFFCURVE",
"30 -15 OFFCURVE",
"38 -15 CURVE SMOOTH"
);
},
{
closed = 1;
nodes = (
"83 75 OFFCURVE",
"162 227 OFFCURVE",
"162 350 CURVE SMOOTH",
"162 473 OFFCURVE",
"83 625 OFFCURVE",
"51 685 CURVE",
"109 685 LINE",
"161 624 OFFCURVE",
"259 519 OFFCURVE",
"259 350 CURVE SMOOTH",
"259 181 OFFCURVE",
"161 76 OFFCURVE",
"109 15 CURVE",
"51 15 LINE"
);
}
);
width = 304;
}
);
unicode = 0029;
},
{
glyphname = emdash;
lastChange = "2018-12-17 09:28:31 +0000";
layers = (
{
layerId = "90EC08FA-78FA-4D06-9A9B-D8A14CBAAFF5";
paths = (
{
closed = 1;
nodes = (
"619 285 LINE SMOOTH",
"627 285 OFFCURVE",
"632 287 OFFCURVE",
"638 293 CURVE SMOOTH",
"643 298 OFFCURVE",
"645 303 OFFCURVE",
"645 311 CURVE SMOOTH",
"645 389 LINE SMOOTH",
"645 397 OFFCURVE",
"643 402 OFFCURVE",
"638 408 CURVE SMOOTH",
"632 413 OFFCURVE",
"627 415 OFFCURVE",
"619 415 CURVE SMOOTH",
"41 415 LINE SMOOTH",
"33 415 OFFCURVE",
"28 413 OFFCURVE",
"23 408 CURVE SMOOTH",
"17 402 OFFCURVE",
"15 397 OFFCURVE",
"15 389 CURVE SMOOTH",
"15 311 LINE SMOOTH",
"15 303 OFFCURVE",
"17 298 OFFCURVE",
"23 293 CURVE SMOOTH",
"28 287 OFFCURVE",
"33 285 OFFCURVE",
"41 285 CURVE SMOOTH"
);
},
{
closed = 1;
nodes = (
"45 385 LINE",
"615 385 LINE",
"615 315 LINE",
"45 315 LINE"
);
}
);
width = 660;
},
{
associatedMasterId = "90EC08FA-78FA-4D06-9A9B-D8A14CBAAFF5";
layerId = "0C8673FE-FC0E-4EE0-80D3-4D5FAE11F9AC";
name = "Dec 17 18, 10:28";
paths = (
{
closed = 1;
nodes = (
"164 300 LINE",
"764 300 LINE",
"764 400 LINE",
"164 400 LINE"
);
}
);
width = 600;
}
);
unicode = 2014;
},
{
glyphname = endash;
lastChange = "2018-12-17 09:28:36 +0000";
layers = (
{
layerId = "90EC08FA-78FA-4D06-9A9B-D8A14CBAAFF5";
paths = (
{
closed = 1;
nodes = (
"419 285 LINE SMOOTH",
"427 285 OFFCURVE",
"432 287 OFFCURVE",
"438 293 CURVE SMOOTH",
"443 298 OFFCURVE",
"445 303 OFFCURVE",
"445 311 CURVE SMOOTH",
"445 389 LINE SMOOTH",
"445 397 OFFCURVE",
"443 402 OFFCURVE",
"438 408 CURVE SMOOTH",
"432 413 OFFCURVE",
"427 415 OFFCURVE",
"419 415 CURVE SMOOTH",
"41 415 LINE SMOOTH",
"33 415 OFFCURVE",
"28 413 OFFCURVE",
"23 408 CURVE SMOOTH",
"17 402 OFFCURVE",
"15 397 OFFCURVE",
"15 389 CURVE SMOOTH",
"15 311 LINE SMOOTH",
"15 303 OFFCURVE",
"17 298 OFFCURVE",
"23 293 CURVE SMOOTH",
"28 287 OFFCURVE",
"33 285 OFFCURVE",
"41 285 CURVE SMOOTH"
);
},
{
closed = 1;
nodes = (
"45 385 LINE",
"415 385 LINE",
"415 315 LINE",
"45 315 LINE"
);
}
);
width = 460;
},
{
associatedMasterId = "90EC08FA-78FA-4D06-9A9B-D8A14CBAAFF5";
layerId = "7AA323ED-09C3-4B42-B26D-187186142D35";
name = "Dec 17 18, 10:28";
paths = (
{
closed = 1;
nodes = (
"164 300 LINE",
"564 300 LINE",
"564 400 LINE",
"164 400 LINE"
);
}
);
width = 600;
}
);
unicode = 2013;
},
